<?xml version="1.0" encoding="utf-8"?>
<!-- Generator: Adobe Illustrator 16.0.0, SVG Export Plug-In . SVG Version: 6.00 Build 0)  -->
<!DOCTYPE svg PUBLIC "-//W3C//DTD SVG 1.1//EN" "http://www.w3.org/Graphics/SVG/1.1/DTD/svg11.dtd">
<svg version="1.1" id="Layer_1" xmlns="http://www.w3.org/2000/svg" xmlns:xlink="http://www.w3.org/1999/xlink" x="0px" y="0px"
	 width="756.5px" height="762px" viewBox="0 38.5 756.5 762" enable-background="new 0 38.5 756.5 762" xml:space="preserve">
<path fill="#3C7DB1" d="M84.211,228.5l8.66,5v10l-8.66,5l-8.66-5v-10L84.211,228.5z"/>
<path fill="#005798" d="M84.211,248.5l8.66,5v10l-8.66,5l-8.66-5v-10L84.211,248.5z"/>
<path fill="#7CA1C7" d="M84.211,268.5l8.66,5v10l-8.66,5l-8.66-5v-10L84.211,268.5z"/>
<path fill="#002672" d="M84.211,288.5l8.66,5v10l-8.66,5l-8.66-5v-10L84.211,288.5z"/>
<path fill="#9CB6D4" d="M84.211,308.5l8.66,5v10l-8.66,5l-8.66-5v-10L84.211,308.5z"/>
<path fill="#002874" d="M84.211,328.5l8.66,5v10l-8.66,5l-8.66-5v-10L84.211,328.5z"/>
<path fill="#001664" d="M84.211,348.5l8.66,5v10l-8.66,5l-8.66-5v-10L84.211,348.5z"/>
<path fill="#004C8F" d="M84.211,368.5l8.66,5v10l-8.66,5l-8.66-5v-10L84.211,368.5z"/>
<path fill="#6090BD" d="M84.211,388.5l8.66,5v10l-8.66,5l-8.66-5v-10L84.211,388.5z"/>
<path fill="#00075D" d="M84.211,408.5l8.66,5v10l-8.66,5l-8.66-5v-10L84.211,408.5z"/>
<path fill="#005596" d="M84.211,428.5l8.66,5v10l-8.66,5l-8.66-5v-10L84.211,428.5z"/>
<path fill="#7EA2C8" d="M84.211,448.5l8.66,5v10l-8.66,5l-8.66-5v-10L84.211,448.5z"/>
<path fill="#2C77AD" d="M84.211,468.5l8.66,5v10l-8.66,5l-8.66-5v-10L84.211,468.5z"/>
<path fill="#002A75" d="M84.211,488.5l8.66,5v10l-8.66,5l-8.66-5v-10L84.211,488.5z"/>
<path fill="#003881" d="M84.211,508.5l8.66,5v10l-8.66,5l-8.66-5v-10L84.211,508.5z"/>
<path fill="#002571" d="M84.211,528.5l8.66,5v10l-8.66,5l-8.66-5v-10L84.211,528.5z"/>
<path fill="#4883B5" d="M84.211,548.5l8.66,5v10l-8.66,5l-8.66-5v-10L84.211,548.5z"/>
<path fill="#001765" d="M84.211,568.5l8.66,5v10l-8.66,5l-8.66-5v-10L84.211,568.5z"/>
<path fill="#6D97C2" d="M101.531,218.5l8.661,5v10l-8.661,5l-8.66-5v-10L101.531,218.5z"/>
<path fill="#0064A0" d="M101.531,238.5l8.661,5v10l-8.661,5l-8.66-5v-10L101.531,238.5z"/>
<path fill="#00609E" d="M101.531,258.5l8.661,5v10l-8.661,5l-8.66-5v-10L101.531,258.5z"/>
<path fill="#005596" d="M101.531,278.5l8.661,5v10l-8.661,5l-8.66-5v-10L101.531,278.5z"/>
<path fill="#5388B8" d="M101.531,298.5l8.661,5v10l-8.661,5l-8.66-5v-10L101.531,298.5z"/>
<path fill="#91AFD0" d="M101.531,318.5l8.661,5v10l-8.661,5l-8.66-5v-10L101.531,318.5z"/>
<path fill="#004289" d="M101.531,338.5l8.661,5v10l-8.661,5l-8.66-5v-10L101.531,338.5z"/>
<path fill="#004288" d="M101.531,358.5l8.661,5v10l-8.661,5l-8.66-5v-10L101.531,358.5z"/>
<path fill="#006CA5" d="M101.531,378.5l8.661,5v10l-8.661,5l-8.66-5v-10L101.531,378.5z"/>
<path fill="#00609E" d="M101.531,398.5l8.661,5v10l-8.661,5l-8.66-5v-10L101.531,398.5z"/>
<path fill="#004288" d="M101.531,418.5l8.661,5v10l-8.661,5l-8.66-5v-10L101.531,418.5z"/>
<path fill="#729BC4" d="M101.531,438.5l8.661,5v10l-8.661,5l-8.66-5v-10L101.531,438.5z"/>
<path fill="#6C97C1" d="M101.531,458.5l8.661,5v10l-8.661,5l-8.66-5v-10L101.531,458.5z"/>
<path fill="#7099C3" d="M101.531,478.5l8.661,5v10l-8.661,5l-8.66-5v-10L101.531,478.5z"/>
<path fill="#00216D" d="M101.531,498.5l8.661,5v10l-8.661,5l-8.66-5v-10L101.531,498.5z"/>
<path fill="#002773" d="M101.531,518.5l8.661,5v10l-8.661,5l-8.66-5v-10L101.531,518.5z"/>
<path fill="#94B1D1" d="M101.531,538.5l8.661,5v10l-8.661,5l-8.66-5v-10L101.531,538.5z"/>
<path fill="#00468B" d="M101.531,558.5l8.661,5v10l-8.661,5l-8.66-5v-10L101.531,558.5z"/>
<path fill="#004D90" d="M101.531,578.5l8.661,5v10l-8.661,5l-8.66-5v-10L101.531,578.5z"/>
<path fill="#00216D" d="M118.852,208.5l8.66,5v10l-8.66,5l-8.66-5v-10L118.852,208.5z"/>
<path fill="#4D85B6" d="M118.852,228.5l8.66,5v10l-8.66,5l-8.66-5v-10L118.852,228.5z"/>
<path fill="#002A75" d="M118.852,248.5l8.66,5v10l-8.66,5l-8.66-5v-10L118.852,248.5z"/>
<path fill="#A6BDD9" d="M118.852,268.5l8.66,5v10l-8.66,5l-8.66-5v-10L118.852,268.5z"/>
<path fill="#004187" d="M118.852,288.5l8.66,5v10l-8.66,5l-8.66-5v-10L118.852,288.5z"/>
<path fill="#005193" d="M118.852,308.5l8.66,5v10l-8.66,5l-8.66-5v-10L118.852,308.5z"/>
<path fill="#6593BE" d="M118.852,328.5l8.66,5v10l-8.66,5l-8.66-5v-10L118.852,328.5z"/>
<path fill="#3179AE" d="M118.852,348.5l8.66,5v10l-8.66,5l-8.66-5v-10L118.852,348.5z"/>
<path fill="#001161" d="M118.852,368.5l8.66,5v10l-8.66,5l-8.66-5v-10L118.852,368.5z"/>
<path fill="#00448A" d="M118.852,388.5l8.66,5v10l-8.66,5l-8.66-5v-10L118.852,388.5z"/>
<path fill="#006EA7" d="M118.852,408.5l8.66,5v10l-8.66,5l-8.66-5v-10L118.852,408.5z"/>
<path fill="#00458B" d="M118.852,428.5l8.66,5v10l-8.66,5l-8.66-5v-10L118.852,428.5z"/>
<path fill="#6B96C1" d="M118.852,448.5l8.66,5v10l-8.66,5l-8.66-5v-10L118.852,448.5z"/>
<path fill="#005F9D" d="M118.852,468.5l8.66,5v10l-8.66,5l-8.66-5v-10L118.852,468.5z"/>
<path fill="#001F6C" d="M118.852,488.5l8.66,5v10l-8.66,5l-8.66-5v-10L118.852,488.5z"/>
<path fill="#000059" d="M118.852,508.5l8.66,5v10l-8.66,5l-8.66-5v-10L118.852,508.5z"/>
<path fill="#6D97C2" d="M118.852,528.5l8.66,5v10l-8.66,5l-8.66-5v-10L118.852,528.5z"/>
<path fill="#3F7FB2" d="M118.852,548.5l8.66,5v10l-8.66,5l-8.66-5v-10L118.852,548.5z"/>
<path fill="#93B1D1" d="M118.852,568.5l8.66,5v10l-8.66,5l-8.66-5v-10L118.852,568.5z"/>
<path fill="#005697" d="M118.852,588.5l8.66,5v10l-8.66,5l-8.66-5v-10L118.852,588.5z"/>
<path fill="#5E8FBC" d="M136.172,198.5l8.66,5v10l-8.66,5l-8.66-5v-10L136.172,198.5z"/>
<path fill="#003982" d="M136.172,218.5l8.66,5v10l-8.66,5l-8.66-5v-10L136.172,218.5z"/>
<path fill="#005193" d="M136.172,238.5l8.66,5v10l-8.66,5l-8.66-5v-10L136.172,238.5z"/>
<path fill="#7BA0C7" d="M136.172,258.5l8.66,5v10l-8.66,5l-8.66-5v-10L136.172,258.5z"/>
<path fill="#001564" d="M136.172,278.5l8.66,5v10l-8.66,5l-8.66-5v-10L136.172,278.5z"/>
<path fill="#003A82" d="M136.172,298.5l8.66,5v10l-8.66,5l-8.66-5v-10L136.172,298.5z"/>
<path fill="#729BC4" d="M136.172,318.5l8.66,5v10l-8.66,5l-8.66-5v-10L136.172,318.5z"/>
<path fill="#001F6B" d="M136.172,338.5l8.66,5v10l-8.66,5l-8.66-5v-10L136.172,338.5z"/>
<path fill="#6A96C1" d="M136.172,358.5l8.66,5v10l-8.66,5l-8.66-5v-10L136.172,358.5z"/>
<path fill="#004C90" d="M136.172,378.5l8.66,5v10l-8.66,5l-8.66-5v-10L136.172,378.5z"/>
<path fill="#578BBA" d="M136.172,398.5l8.66,5v10l-8.66,5l-8.66-5v-10L136.172,398.5z"/>
<path fill="#002773" d="M136.172,418.5l8.66,5v10l-8.66,5l-8.66-5v-10L136.172,418.5z"/>
<path fill="#4280B3" d="M136.172,438.5l8.66,5v10l-8.66,5l-8.66-5v-10L136.172,438.5z"/>
<path fill="#00337D" d="M136.172,458.5l8.66,5v10l-8.66,5l-8.66-5v-10L136.172,458.5z"/>
<path fill="#86A8CC" d="M136.172,478.5l8.66,5v10l-8.66,5l-8.66-5v-10L136.172,478.5z"/>
<path fill="#6794BF" d="M136.172,498.5l8.66,5v10l-8.66,5l-8.66-5v-10L136.172,498.5z"/>
<path fill="#A5BDD8" d="M136.172,518.5l8.66,5v10l-8.66,5l-8.66-5v-10L136.172,518.5z"/>
<path fill="#001D6A" d="M136.172,538.5l8.66,5v10l-8.66,5l-8.66-5v-10L136.172,538.5z"/>
<path fill="#000A5E" d="M136.172,558.5l8.66,5v10l-8.66,5l-8.66-5v-10L136.172,558.5z"/>
<path fill="#002773" d="M136.172,578.5l8.66,5v10l-8.66,5l-8.66-5v-10L136.172,578.5z"/>
<path fill="#002471" d="M136.172,598.5l8.66,5v10l-8.66,5l-8.66-5v-10L136.172,598.5z"/>
<path fill="#001E6A" d="M153.493,188.5l8.66,5v10l-8.66,5l-8.661-5v-10L153.493,188.5z"/>
<path fill="#000B5E" d="M153.493,208.5l8.66,5v10l-8.66,5l-8.661-5v-10L153.493,208.5z"/>
<path fill="#2274AB" d="M153.493,228.5l8.66,5v10l-8.66,5l-8.661-5v-10L153.493,228.5z"/>
<path fill="#83A6CA" d="M153.493,248.5l8.66,5v10l-8.66,5l-8.661-5v-10L153.493,248.5z"/>
<path fill="#0065A1" d="M153.493,268.5l8.66,5v10l-8.66,5l-8.661-5v-10L153.493,268.5z"/>
<path fill="#003C84" d="M153.493,288.5l8.66,5v10l-8.66,5l-8.661-5v-10L153.493,288.5z"/>
<path fill="#001162" d="M153.493,308.5l8.66,5v10l-8.66,5l-8.661-5v-10L153.493,308.5z"/>
<path fill="#739BC4" d="M153.493,328.5l8.66,5v10l-8.66,5l-8.661-5v-10L153.493,328.5z"/>
<path fill="#3D7EB1" d="M153.493,348.5l8.66,5v10l-8.66,5l-8.661-5v-10L153.493,348.5z"/>
<path fill="#004087" d="M153.493,368.5l8.66,5v10l-8.66,5l-8.661-5v-10L153.493,368.5z"/>
<path fill="#5B8DBB" d="M153.493,388.5l8.66,5v10l-8.66,5l-8.661-5v-10L153.493,388.5z"/>
<path fill="#98B4D3" d="M153.493,408.5l8.66,5v10l-8.66,5l-8.661-5v-10L153.493,408.5z"/>
<path fill="#6894C0" d="M153.493,428.5l8.66,5v10l-8.66,5l-8.661-5v-10L153.493,428.5z"/>
<path fill="#003C84" d="M153.493,448.5l8.66,5v10l-8.66,5l-8.661-5v-10L153.493,448.5z"/>
<path fill="#0064A0" d="M153.493,468.5l8.66,5v10l-8.66,5l-8.661-5v-10L153.493,468.5z"/>
<path fill="#001966" d="M153.493,488.5l8.66,5v10l-8.66,5l-8.661-5v-10L153.493,488.5z"/>
<path fill="#005B9A" d="M153.493,508.5l8.66,5v10l-8.66,5l-8.661-5v-10L153.493,508.5z"/>
<path fill="#005A99" d="M153.493,528.5l8.66,5v10l-8.66,5l-8.661-5v-10L153.493,528.5z"/>
<path fill="#004D90" d="M153.493,548.5l8.66,5v10l-8.66,5l-8.661-5v-10L153.493,548.5z"/>
<path fill="#00005A" d="M153.493,568.5l8.66,5v10l-8.66,5l-8.661-5v-10L153.493,568.5z"/>
<path fill="#88A9CC" d="M153.493,588.5l8.66,5v10l-8.66,5l-8.661-5v-10L153.493,588.5z"/>
<path fill="#005093" d="M153.493,608.5l8.66,5v10l-8.66,5l-8.661-5v-10L153.493,608.5z"/>
<path fill="#005798" d="M170.813,178.5l8.66,5v10l-8.66,5l-8.66-5v-10L170.813,178.5z"/>
<path fill="#00085D" d="M170.813,198.5l8.66,5v10l-8.66,5l-8.66-5v-10L170.813,198.5z"/>
<path fill="#000F60" d="M170.813,218.5l8.66,5v10l-8.66,5l-8.66-5v-10L170.813,218.5z"/>
<path fill="#407FB2" d="M170.813,238.5l8.66,5v10l-8.66,5l-8.66-5v-10L170.813,238.5z"/>
<path fill="#00609E" d="M170.813,258.5l8.66,5v10l-8.66,5l-8.66-5v-10L170.813,258.5z"/>
<path fill="#8CACCE" d="M170.813,278.5l8.66,5v10l-8.66,5l-8.66-5v-10L170.813,278.5z"/>
<path fill="#1872A9" d="M170.813,298.5l8.66,5v10l-8.66,5l-8.66-5v-10L170.813,298.5z"/>
<path fill="#00005A" d="M170.813,318.5l8.66,5v10l-8.66,5l-8.66-5v-10L170.813,318.5z"/>
<path fill="#6090BD" d="M170.813,338.5l8.66,5v10l-8.66,5l-8.66-5v-10L170.813,338.5z"/>
<path fill="#005596" d="M170.813,358.5l8.66,5v10l-8.66,5l-8.66-5v-10L170.813,358.5z"/>
<path fill="#001B68" d="M170.813,378.5l8.66,5v10l-8.66,5l-8.66-5v-10L170.813,378.5z"/>
<path fill="#7DA2C8" d="M170.813,398.5l8.66,5v10l-8.66,5l-8.66-5v-10L170.813,398.5z"/>
<path fill="#6693BF" d="M170.813,418.5l8.66,5v10l-8.66,5l-8.66-5v-10L170.813,418.5z"/>
<path fill="#2D77AD" d="M170.813,438.5l8.66,5v10l-8.66,5l-8.66-5v-10L170.813,438.5z"/>
<path fill="#000A5E" d="M170.813,458.5l8.66,5v10l-8.66,5l-8.66-5v-10L170.813,458.5z"/>
<path fill="#3179AE" d="M170.813,478.5l8.66,5v10l-8.66,5l-8.66-5v-10L170.813,478.5z"/>
<path fill="#5A8CBB" d="M170.813,498.5l8.66,5v10l-8.66,5l-8.66-5v-10L170.813,498.5z"/>
<path fill="#002D78" d="M170.813,518.5l8.66,5v10l-8.66,5l-8.66-5v-10L170.813,518.5z"/>
<path fill="#00055C" d="M170.813,538.5l8.66,5v10l-8.66,5l-8.66-5v-10L170.813,538.5z"/>
<path fill="#00347E" d="M170.813,558.5l8.66,5v10l-8.66,5l-8.66-5v-10L170.813,558.5z"/>
<path fill="#00639F" d="M170.813,578.5l8.66,5v10l-8.66,5l-8.66-5v-10L170.813,578.5z"/>
<path fill="#026FA7" d="M170.813,598.5l8.66,5v10l-8.66,5l-8.66-5v-10L170.813,598.5z"/>
<path fill="#005797" d="M170.813,618.5l8.66,5v10l-8.66,5l-8.66-5v-10L170.813,618.5z"/>
<path fill="#00367F" d="M188.134,168.5l8.661,5v10l-8.661,5l-8.66-5v-10L188.134,168.5z"/>
<path fill="#729BC4" d="M188.134,188.5l8.661,5v10l-8.661,5l-8.66-5v-10L188.134,188.5z"/>
<path fill="#417FB2" d="M188.134,208.5l8.661,5v10l-8.661,5l-8.66-5v-10L188.134,208.5z"/>
<path fill="#00236F" d="M188.134,228.5l8.661,5v10l-8.661,5l-8.66-5v-10L188.134,228.5z"/>
<path fill="#00357E" d="M188.134,248.5l8.661,5v10l-8.661,5l-8.66-5v-10L188.134,248.5z"/>
<path fill="#004D90" d="M188.134,268.5l8.661,5v10l-8.661,5l-8.66-5v-10L188.134,268.5z"/>
<path fill="#005999" d="M188.134,288.5l8.661,5v10l-8.661,5l-8.66-5v-10L188.134,288.5z"/>
<path fill="#001161" d="M188.134,308.5l8.661,5v10l-8.661,5l-8.66-5v-10L188.134,308.5z"/>
<path fill="#4C85B6" d="M188.134,328.5l8.661,5v10l-8.661,5l-8.66-5v-10L188.134,328.5z"/>
<path fill="#00216D" d="M188.134,348.5l8.661,5v10l-8.661,5l-8.66-5v-10L188.134,348.5z"/>
<path fill="#6A96C0" d="M188.134,368.5l8.661,5v10l-8.661,5l-8.66-5v-10L188.134,368.5z"/>
<path fill="#7CA1C7" d="M188.134,388.5l8.661,5v10l-8.661,5l-8.66-5v-10L188.134,388.5z"/>
<path fill="#00448A" d="M188.134,408.5l8.661,5v10l-8.661,5l-8.66-5v-10L188.134,408.5z"/>
<path fill="#001D69" d="M188.134,428.5l8.661,5v10l-8.661,5l-8.66-5v-10L188.134,428.5z"/>
<path fill="#00075D" d="M188.134,448.5l8.661,5v10l-8.661,5l-8.66-5v-10L188.134,448.5z"/>
<path fill="#003C84" d="M188.134,468.5l8.661,5v10l-8.661,5l-8.66-5v-10L188.134,468.5z"/>
<path fill="#00619E" d="M188.134,488.5l8.661,5v10l-8.661,5l-8.66-5v-10L188.134,488.5z"/>
<path fill="#00307A" d="M188.134,508.5l8.661,5v10l-8.661,5l-8.66-5v-10L188.134,508.5z"/>
<path fill="#5F8FBC" d="M188.134,528.5l8.661,5v10l-8.661,5l-8.66-5v-10L188.134,528.5z"/>
<path fill="#93B0D1" d="M188.134,548.5l8.661,5v10l-8.661,5l-8.66-5v-10L188.134,548.5z"/>
<path fill="#2F78AE" d="M188.134,568.5l8.661,5v10l-8.661,5l-8.66-5v-10L188.134,568.5z"/>
<path fill="#4C85B6" d="M188.134,588.5l8.661,5v10l-8.661,5l-8.66-5v-10L188.134,588.5z"/>
<path fill="#00236F" d="M188.134,608.5l8.661,5v10l-8.661,5l-8.66-5v-10L188.134,608.5z"/>
<path fill="#96B2D2" d="M188.134,628.5l8.661,5v10l-8.661,5l-8.66-5v-10L188.134,628.5z"/>
<path fill="#367BB0" d="M205.455,158.5l8.66,5v10l-8.66,5l-8.66-5v-10L205.455,158.5z"/>
<path fill="#A7BED9" d="M205.455,178.5l8.66,5v10l-8.66,5l-8.66-5v-10L205.455,178.5z"/>
<path fill="#001B68" d="M205.455,198.5l8.66,5v10l-8.66,5l-8.66-5v-10L205.455,198.5z"/>
<path fill="#6492BE" d="M205.455,218.5l8.66,5v10l-8.66,5l-8.66-5v-10L205.455,218.5z"/>
<path fill="#00629F" d="M205.455,238.5l8.66,5v10l-8.66,5l-8.66-5v-10L205.455,238.5z"/>
<path fill="#9CB7D5" d="M205.455,258.5l8.66,5v10l-8.66,5l-8.66-5v-10L205.455,258.5z"/>
<path fill="#6090BD" d="M205.455,278.5l8.66,5v10l-8.66,5l-8.66-5v-10L205.455,278.5z"/>
<path fill="#00478C" d="M205.455,298.5l8.66,5v10l-8.66,5l-8.66-5v-10L205.455,298.5z"/>
<path fill="#000D5F" d="M205.455,318.5l8.66,5v10l-8.66,5l-8.66-5v-10L205.455,318.5z"/>
<path fill="#004288" d="M205.455,338.5l8.66,5v10l-8.66,5l-8.66-5v-10L205.455,338.5z"/>
<path fill="#001866" d="M205.455,358.5l8.66,5v10l-8.66,5l-8.66-5v-10L205.455,358.5z"/>
<path fill="#006EA7" d="M205.455,378.5l8.66,5v10l-8.66,5l-8.66-5v-10L205.455,378.5z"/>
<path fill="#1070A8" d="M205.455,398.5l8.66,5v10l-8.66,5l-8.66-5v-10L205.455,398.5z"/>
<path fill="#7CA1C7" d="M205.455,418.5l8.66,5v10l-8.66,5l-8.66-5v-10L205.455,418.5z"/>
<path fill="#00307A" d="M205.455,438.5l8.66,5v10l-8.66,5l-8.66-5v-10L205.455,438.5z"/>
<path fill="#005193" d="M205.455,458.5l8.66,5v10l-8.66,5l-8.66-5v-10L205.455,458.5z"/>
<path fill="#3A7DB0" d="M205.455,478.5l8.66,5v10l-8.66,5l-8.66-5v-10L205.455,478.5z"/>
<path fill="#387CB0" d="M205.455,498.5l8.66,5v10l-8.66,5l-8.66-5v-10L205.455,498.5z"/>
<path fill="#005395" d="M205.455,518.5l8.66,5v10l-8.66,5l-8.66-5v-10L205.455,518.5z"/>
<path fill="#001B68" d="M205.455,538.5l8.66,5v10l-8.66,5l-8.66-5v-10L205.455,538.5z"/>
<path fill="#005A99" d="M205.455,558.5l8.66,5v10l-8.66,5l-8.66-5v-10L205.455,558.5z"/>
<path fill="#1371A9" d="M205.455,578.5l8.66,5v10l-8.66,5l-8.66-5v-10L205.455,578.5z"/>
<path fill="#000059" d="M205.455,598.5l8.66,5v10l-8.66,5l-8.66-5v-10L205.455,598.5z"/>
<path fill="#002B76" d="M205.455,618.5l8.66,5v10l-8.66,5l-8.66-5v-10L205.455,618.5z"/>
<path fill="#005898" d="M205.455,638.5l8.66,5v10l-8.66,5l-8.66-5v-10L205.455,638.5z"/>
<path fill="#9BB6D4" d="M222.775,148.5l8.66,5v10l-8.66,5l-8.66-5v-10L222.775,148.5z"/>
<path fill="#8EADCF" d="M222.775,168.5l8.66,5v10l-8.66,5l-8.66-5v-10L222.775,168.5z"/>
<path fill="#005293" d="M222.775,188.5l8.66,5v10l-8.66,5l-8.66-5v-10L222.775,188.5z"/>
<path fill="#80A4C9" d="M222.775,208.5l8.66,5v10l-8.66,5l-8.66-5v-10L222.775,208.5z"/>
<path fill="#83A6CA" d="M222.775,228.5l8.66,5v10l-8.66,5l-8.66-5v-10L222.775,228.5z"/>
<path fill="#001E6A" d="M222.775,248.5l8.66,5v10l-8.66,5l-8.66-5v-10L222.775,248.5z"/>
<path fill="#002B76" d="M222.775,268.5l8.66,5v10l-8.66,5l-8.66-5v-10L222.775,268.5z"/>
<path fill="#000F60" d="M222.775,288.5l8.66,5v10l-8.66,5l-8.66-5v-10L222.775,288.5z"/>
<path fill="#83A6CA" d="M222.775,308.5l8.66,5v10l-8.66,5l-8.66-5v-10L222.775,308.5z"/>
<path fill="#001B68" d="M222.775,328.5l8.66,5v10l-8.66,5l-8.66-5v-10L222.775,328.5z"/>
<path fill="#00075D" d="M222.775,348.5l8.66,5v10l-8.66,5l-8.66-5v-10L222.775,348.5z"/>
<path fill="#00347D" d="M222.775,368.5l8.66,5v10l-8.66,5l-8.66-5v-10L222.775,368.5z"/>
<path fill="#006CA5" d="M222.775,388.5l8.66,5v10l-8.66,5l-8.66-5v-10L222.775,388.5z"/>
<path fill="#95B2D2" d="M222.775,408.5l8.66,5v10l-8.66,5l-8.66-5v-10L222.775,408.5z"/>
<path fill="#4A84B5" d="M222.775,428.5l8.66,5v10l-8.66,5l-8.66-5v-10L222.775,428.5z"/>
<path fill="#5D8EBC" d="M222.775,448.5l8.66,5v10l-8.66,5l-8.66-5v-10L222.775,448.5z"/>
<path fill="#001966" d="M222.775,468.5l8.66,5v10l-8.66,5l-8.66-5v-10L222.775,468.5z"/>
<path fill="#002B76" d="M222.775,488.5l8.66,5v10l-8.66,5l-8.66-5v-10L222.775,488.5z"/>
<path fill="#00337D" d="M222.775,508.5l8.66,5v10l-8.66,5l-8.66-5v-10L222.775,508.5z"/>
<path fill="#00236F" d="M222.775,528.5l8.66,5v10l-8.66,5l-8.66-5v-10L222.775,528.5z"/>
<path fill="#789EC6" d="M222.775,548.5l8.66,5v10l-8.66,5l-8.66-5v-10L222.775,548.5z"/>
<path fill="#0068A3" d="M222.775,568.5l8.66,5v10l-8.66,5l-8.66-5v-10L222.775,568.5z"/>
<path fill="#00619E" d="M222.775,588.5l8.66,5v10l-8.66,5l-8.66-5v-10L222.775,588.5z"/>
<path fill="#003680" d="M222.775,608.5l8.66,5v10l-8.66,5l-8.66-5v-10L222.775,608.5z"/>
<path fill="#95B2D2" d="M222.775,628.5l8.66,5v10l-8.66,5l-8.66-5v-10L222.775,628.5z"/>
<path fill="#2174AB" d="M222.775,648.5l8.66,5v10l-8.66,5l-8.66-5v-10L222.775,648.5z"/>
<path fill="#004E91" d="M240.096,138.5l8.66,5v10l-8.66,5l-8.661-5v-10L240.096,138.5z"/>
<path fill="#9BB6D4" d="M240.096,158.5l8.66,5v10l-8.66,5l-8.661-5v-10L240.096,158.5z"/>
<path fill="#00478C" d="M240.096,178.5l8.66,5v10l-8.66,5l-8.661-5v-10L240.096,178.5z"/>
<path fill="#005294" d="M240.096,198.5l8.66,5v10l-8.66,5l-8.661-5v-10L240.096,198.5z"/>
<path fill="#000059" d="M240.096,218.5l8.66,5v10l-8.66,5l-8.661-5v-10L240.096,218.5z"/>
<path fill="#00005A" d="M240.096,238.5l8.66,5v10l-8.66,5l-8.661-5v-10L240.096,238.5z"/>
<path fill="#2374AB" d="M240.096,258.5l8.66,5v10l-8.66,5l-8.661-5v-10L240.096,258.5z"/>
<path fill="#006DA6" d="M240.096,278.5l8.66,5v10l-8.66,5l-8.661-5v-10L240.096,278.5z"/>
<path fill="#8EADCF" d="M240.096,298.5l8.66,5v10l-8.66,5l-8.661-5v-10L240.096,298.5z"/>
<path fill="#86A7CB" d="M240.096,318.5l8.66,5v10l-8.66,5l-8.661-5v-10L240.096,318.5z"/>
<path fill="#003982" d="M240.096,338.5l8.66,5v10l-8.66,5l-8.661-5v-10L240.096,338.5z"/>
<path fill="#00357F" d="M240.096,358.5l8.66,5v10l-8.66,5l-8.661-5v-10L240.096,358.5z"/>
<path fill="#005999" d="M240.096,378.5l8.66,5v10l-8.66,5l-8.661-5v-10L240.096,378.5z"/>
<path fill="#001B68" d="M240.096,398.5l8.66,5v10l-8.66,5l-8.661-5v-10L240.096,398.5z"/>
<path fill="#82A5CA" d="M240.096,418.5l8.66,5v10l-8.66,5l-8.661-5v-10L240.096,418.5z"/>
<path fill="#7BA0C7" d="M240.096,438.5l8.66,5v10l-8.66,5l-8.661-5v-10L240.096,438.5z"/>
<path fill="#00005A" d="M240.096,458.5l8.66,5v10l-8.66,5l-8.661-5v-10L240.096,458.5z"/>
<path fill="#00206D" d="M240.096,478.5l8.66,5v10l-8.66,5l-8.661-5v-10L240.096,478.5z"/>
<path fill="#003B83" d="M240.096,498.5l8.66,5v10l-8.66,5l-8.661-5v-10L240.096,498.5z"/>
<path fill="#7FA3C9" d="M240.096,518.5l8.66,5v10l-8.66,5l-8.661-5v-10L240.096,518.5z"/>
<path fill="#005F9D" d="M240.096,538.5l8.66,5v10l-8.66,5l-8.661-5v-10L240.096,538.5z"/>
<path fill="#6291BD" d="M240.096,558.5l8.66,5v10l-8.66,5l-8.661-5v-10L240.096,558.5z"/>
<path fill="#004288" d="M240.096,578.5l8.66,5v10l-8.66,5l-8.661-5v-10L240.096,578.5z"/>
<path fill="#A7BED9" d="M240.096,598.5l8.66,5v10l-8.66,5l-8.661-5v-10L240.096,598.5z"/>
<path fill="#2876AC" d="M240.096,618.5l8.66,5v10l-8.66,5l-8.661-5v-10L240.096,618.5z"/>
<path fill="#5A8CBB" d="M240.096,638.5l8.66,5v10l-8.66,5l-8.661-5v-10L240.096,638.5z"/>
<path fill="#004B8F" d="M240.096,658.5l8.66,5v10l-8.66,5l-8.661-5v-10L240.096,658.5z"/>
<path fill="#5087B7" d="M257.416,128.5l8.66,5v10l-8.66,5l-8.66-5v-10L257.416,128.5z"/>
<path fill="#005394" d="M257.416,148.5l8.66,5v10l-8.66,5l-8.66-5v-10L257.416,148.5z"/>
<path fill="#00488D" d="M257.416,168.5l8.66,5v10l-8.66,5l-8.66-5v-10L257.416,168.5z"/>
<path fill="#001F6C" d="M257.416,188.5l8.66,5v10l-8.66,5l-8.66-5v-10L257.416,188.5z"/>
<path fill="#91AFD0" d="M257.416,208.5l8.66,5v10l-8.66,5l-8.66-5v-10L257.416,208.5z"/>
<path fill="#5489B9" d="M257.416,228.5l8.66,5v10l-8.66,5l-8.66-5v-10L257.416,228.5z"/>
<path fill="#000B5E" d="M257.416,248.5l8.66,5v10l-8.66,5l-8.66-5v-10L257.416,248.5z"/>
<path fill="#4381B3" d="M257.416,268.5l8.66,5v10l-8.66,5l-8.66-5v-10L257.416,268.5z"/>
<path fill="#5B8DBB" d="M257.416,288.5l8.66,5v10l-8.66,5l-8.66-5v-10L257.416,288.5z"/>
<path fill="#83A5CA" d="M257.416,308.5l8.66,5v10l-8.66,5l-8.66-5v-10L257.416,308.5z"/>
<path fill="#002874" d="M257.416,328.5l8.66,5v10l-8.66,5l-8.66-5v-10L257.416,328.5z"/>
<path fill="#001362" d="M257.416,348.5l8.66,5v10l-8.66,5l-8.66-5v-10L257.416,348.5z"/>
<path fill="#003C83" d="M257.416,368.5l8.66,5v10l-8.66,5l-8.66-5v-10L257.416,368.5z"/>
<path fill="#0B70A8" d="M257.416,388.5l8.66,5v10l-8.66,5l-8.66-5v-10L257.416,388.5z"/>
<path fill="#6A96C0" d="M257.416,408.5l8.66,5v10l-8.66,5l-8.66-5v-10L257.416,408.5z"/>
<path fill="#000B5E" d="M257.416,428.5l8.66,5v10l-8.66,5l-8.66-5v-10L257.416,428.5z"/>
<path fill="#002B76" d="M257.416,448.5l8.66,5v10l-8.66,5l-8.66-5v-10L257.416,448.5z"/>
<path fill="#95B1D2" d="M257.416,468.5l8.66,5v10l-8.66,5l-8.66-5v-10L257.416,468.5z"/>
<path fill="#6C97C1" d="M257.416,488.5l8.66,5v10l-8.66,5l-8.66-5v-10L257.416,488.5z"/>
<path fill="#8AAACD" d="M257.416,508.5l8.66,5v10l-8.66,5l-8.66-5v-10L257.416,508.5z"/>
<path fill="#004C8F" d="M257.416,528.5l8.66,5v10l-8.66,5l-8.66-5v-10L257.416,528.5z"/>
<path fill="#000A5E" d="M257.416,548.5l8.66,5v10l-8.66,5l-8.66-5v-10L257.416,548.5z"/>
<path fill="#00236F" d="M257.416,568.5l8.66,5v10l-8.66,5l-8.66-5v-10L257.416,568.5z"/>
<path fill="#2E78AE" d="M257.416,588.5l8.66,5v10l-8.66,5l-8.66-5v-10L257.416,588.5z"/>
<path fill="#86A8CC" d="M257.416,608.5l8.66,5v10l-8.66,5l-8.66-5v-10L257.416,608.5z"/>
<path fill="#004A8E" d="M257.416,628.5l8.66,5v10l-8.66,5l-8.66-5v-10L257.416,628.5z"/>
<path fill="#002975" d="M257.416,648.5l8.66,5v10l-8.66,5l-8.66-5v-10L257.416,648.5z"/>
<path fill="#80A3C9" d="M257.416,668.5l8.66,5v10l-8.66,5l-8.66-5v-10L257.416,668.5z"/>
<path fill="#001F6B" d="M274.736,118.5l8.661,5v10l-8.661,5l-8.66-5v-10L274.736,118.5z"/>
<path fill="#6190BD" d="M274.736,138.5l8.661,5v10l-8.661,5l-8.66-5v-10L274.736,138.5z"/>
<path fill="#337AAF" d="M274.736,158.5l8.661,5v10l-8.661,5l-8.66-5v-10L274.736,158.5z"/>
<path fill="#4E86B7" d="M274.736,178.5l8.661,5v10l-8.661,5l-8.66-5v-10L274.736,178.5z"/>
<path fill="#8CABCE" d="M274.736,198.5l8.661,5v10l-8.661,5l-8.66-5v-10L274.736,198.5z"/>
<path fill="#004F91" d="M274.736,218.5l8.661,5v10l-8.661,5l-8.66-5v-10L274.736,218.5z"/>
<path fill="#4782B4" d="M274.736,238.5l8.661,5v10l-8.661,5l-8.66-5v-10L274.736,238.5z"/>
<path fill="#8DACCE" d="M274.736,258.5l8.661,5v10l-8.661,5l-8.66-5v-10L274.736,258.5z"/>
<path fill="#003B83" d="M274.736,278.5l8.661,5v10l-8.661,5l-8.66-5v-10L274.736,278.5z"/>
<path fill="#001E6A" d="M274.736,298.5l8.661,5v10l-8.661,5l-8.66-5v-10L274.736,298.5z"/>
<path fill="#578BBA" d="M274.736,318.5l8.661,5v10l-8.661,5l-8.66-5v-10L274.736,318.5z"/>
<path fill="#1972AA" d="M274.736,338.5l8.661,5v10l-8.661,5l-8.66-5v-10L274.736,338.5z"/>
<path fill="#005697" d="M274.736,358.5l8.661,5v10l-8.661,5l-8.66-5v-10L274.736,358.5z"/>
<path fill="#005294" d="M274.736,378.5l8.661,5v10l-8.661,5l-8.66-5v-10L274.736,378.5z"/>
<path fill="#006BA5" d="M274.736,398.5l8.661,5v10l-8.661,5l-8.66-5v-10L274.736,398.5z"/>
<path fill="#006DA6" d="M274.736,418.5l8.661,5v10l-8.661,5l-8.66-5v-10L274.736,418.5z"/>
<path fill="#005998" d="M274.736,438.5l8.661,5v10l-8.661,5l-8.66-5v-10L274.736,438.5z"/>
<path fill="#3078AE" d="M274.736,458.5l8.661,5v10l-8.661,5l-8.66-5v-10L274.736,458.5z"/>
<path fill="#3D7EB1" d="M274.736,478.5l8.661,5v10l-8.661,5l-8.66-5v-10L274.736,478.5z"/>
<path fill="#001664" d="M274.736,498.5l8.661,5v10l-8.661,5l-8.66-5v-10L274.736,498.5z"/>
<path fill="#3B7DB1" d="M274.736,518.5l8.661,5v10l-8.661,5l-8.66-5v-10L274.736,518.5z"/>
<path fill="#005394" d="M274.736,538.5l8.661,5v10l-8.661,5l-8.66-5v-10L274.736,538.5z"/>
<path fill="#003A82" d="M274.736,558.5l8.661,5v10l-8.661,5l-8.66-5v-10L274.736,558.5z"/>
<path fill="#004087" d="M274.736,578.5l8.661,5v10l-8.661,5l-8.66-5v-10L274.736,578.5z"/>
<path fill="#002B76" d="M274.736,598.5l8.661,5v10l-8.661,5l-8.66-5v-10L274.736,598.5z"/>
<path fill="#002C77" d="M274.736,618.5l8.661,5v10l-8.661,5l-8.66-5v-10L274.736,618.5z"/>
<path fill="#002773" d="M274.736,638.5l8.661,5v10l-8.661,5l-8.66-5v-10L274.736,638.5z"/>
<path fill="#4782B4" d="M274.736,658.5l8.661,5v10l-8.661,5l-8.66-5v-10L274.736,658.5z"/>
<path fill="#83A6CA" d="M274.736,678.5l8.661,5v10l-8.661,5l-8.66-5v-10L274.736,678.5z"/>
<path fill="#5F8FBD" d="M292.057,108.5l8.66,5v10l-8.66,5l-8.661-5v-10L292.057,108.5z"/>
<path fill="#558AB9" d="M292.057,128.5l8.66,5v10l-8.66,5l-8.661-5v-10L292.057,128.5z"/>
<path fill="#7EA2C8" d="M292.057,148.5l8.66,5v10l-8.66,5l-8.661-5v-10L292.057,148.5z"/>
<path fill="#A1BAD7" d="M292.057,168.5l8.66,5v10l-8.66,5l-8.661-5v-10L292.057,168.5z"/>
<path fill="#000C5F" d="M292.057,188.5l8.66,5v10l-8.66,5l-8.661-5v-10L292.057,188.5z"/>
<path fill="#001363" d="M292.057,208.5l8.66,5v10l-8.66,5l-8.661-5v-10L292.057,208.5z"/>
<path fill="#0065A1" d="M292.057,228.5l8.66,5v10l-8.66,5l-8.661-5v-10L292.057,228.5z"/>
<path fill="#6F99C2" d="M292.057,248.5l8.66,5v10l-8.66,5l-8.661-5v-10L292.057,248.5z"/>
<path fill="#005A9A" d="M292.057,268.5l8.66,5v10l-8.66,5l-8.661-5v-10L292.057,268.5z"/>
<path fill="#93B1D1" d="M292.057,288.5l8.66,5v10l-8.66,5l-8.661-5v-10L292.057,288.5z"/>
<path fill="#001765" d="M292.057,308.5l8.66,5v10l-8.66,5l-8.661-5v-10L292.057,308.5z"/>
<path fill="#00468C" d="M292.057,328.5l8.66,5v10l-8.66,5l-8.661-5v-10L292.057,328.5z"/>
<path fill="#2074AB" d="M292.057,348.5l8.66,5v10l-8.66,5l-8.661-5v-10L292.057,348.5z"/>
<path fill="#001866" d="M292.057,368.5l8.66,5v10l-8.66,5l-8.661-5v-10L292.057,368.5z"/>
<path fill="#003780" d="M292.057,388.5l8.66,5v10l-8.66,5l-8.661-5v-10L292.057,388.5z"/>
<path fill="#003A82" d="M292.057,408.5l8.66,5v10l-8.66,5l-8.661-5v-10L292.057,408.5z"/>
<path fill="#0068A3" d="M292.057,428.5l8.66,5v10l-8.66,5l-8.661-5v-10L292.057,428.5z"/>
<path fill="#5E8FBC" d="M292.057,448.5l8.66,5v10l-8.66,5l-8.661-5v-10L292.057,448.5z"/>
<path fill="#A0BAD6" d="M292.057,468.5l8.66,5v10l-8.66,5l-8.661-5v-10L292.057,468.5z"/>
<path fill="#A4BCD8" d="M292.057,488.5l8.66,5v10l-8.66,5l-8.661-5v-10L292.057,488.5z"/>
<path fill="#6C97C1" d="M292.057,508.5l8.66,5v10l-8.66,5l-8.661-5v-10L292.057,508.5z"/>
<path fill="#00488C" d="M292.057,528.5l8.66,5v10l-8.66,5l-8.661-5v-10L292.057,528.5z"/>
<path fill="#005999" d="M292.057,548.5l8.66,5v10l-8.66,5l-8.661-5v-10L292.057,548.5z"/>
<path fill="#005C9B" d="M292.057,568.5l8.66,5v10l-8.66,5l-8.661-5v-10L292.057,568.5z"/>
<path fill="#005495" d="M292.057,588.5l8.66,5v10l-8.66,5l-8.661-5v-10L292.057,588.5z"/>
<path fill="#2976AC" d="M292.057,608.5l8.66,5v10l-8.66,5l-8.661-5v-10L292.057,608.5z"/>
<path fill="#002773" d="M292.057,628.5l8.66,5v10l-8.66,5l-8.661-5v-10L292.057,628.5z"/>
<path fill="#3F7FB2" d="M292.057,648.5l8.66,5v10l-8.66,5l-8.661-5v-10L292.057,648.5z"/>
<path fill="#0067A2" d="M292.057,668.5l8.66,5v10l-8.66,5l-8.661-5v-10L292.057,668.5z"/>
<path fill="#001D6A" d="M292.057,688.5l8.66,5v10l-8.66,5l-8.661-5v-10L292.057,688.5z"/>
<path fill="#A6BED9" d="M309.377,98.5l8.661,5v10l-8.661,5l-8.66-5v-10L309.377,98.5z"/>
<path fill="#719AC3" d="M309.377,118.5l8.661,5v10l-8.661,5l-8.66-5v-10L309.377,118.5z"/>
<path fill="#005999" d="M309.377,138.5l8.661,5v10l-8.661,5l-8.66-5v-10L309.377,138.5z"/>
<path fill="#8AAACD" d="M309.377,158.5l8.661,5v10l-8.661,5l-8.66-5v-10L309.377,158.5z"/>
<path fill="#00226E" d="M309.377,178.5l8.661,5v10l-8.661,5l-8.66-5v-10L309.377,178.5z"/>
<path fill="#005999" d="M309.377,198.5l8.661,5v10l-8.661,5l-8.66-5v-10L309.377,198.5z"/>
<path fill="#8AAACD" d="M309.377,218.5l8.661,5v10l-8.661,5l-8.66-5v-10L309.377,218.5z"/>
<path fill="#004A8E" d="M309.377,238.5l8.661,5v10l-8.661,5l-8.66-5v-10L309.377,238.5z"/>
<path fill="#002470" d="M309.377,258.5l8.661,5v10l-8.661,5l-8.66-5v-10L309.377,258.5z"/>
<path fill="#004D90" d="M309.377,278.5l8.661,5v10l-8.661,5l-8.66-5v-10L309.377,278.5z"/>
<path fill="#001B68" d="M309.377,298.5l8.661,5v10l-8.661,5l-8.66-5v-10L309.377,298.5z"/>
<path fill="#2876AC" d="M309.377,318.5l8.661,5v10l-8.661,5l-8.66-5v-10L309.377,318.5z"/>
<path fill="#00327C" d="M309.377,338.5l8.661,5v10l-8.661,5l-8.66-5v-10L309.377,338.5z"/>
<path fill="#001564" d="M309.377,358.5l8.661,5v10l-8.661,5l-8.66-5v-10L309.377,358.5z"/>
<path fill="#397CB0" d="M309.377,378.5l8.661,5v10l-8.661,5l-8.66-5v-10L309.377,378.5z"/>
<path fill="#003881" d="M309.377,398.5l8.661,5v10l-8.661,5l-8.66-5v-10L309.377,398.5z"/>
<path fill="#005E9C" d="M309.377,418.5l8.661,5v10l-8.661,5l-8.66-5v-10L309.377,418.5z"/>
<path fill="#799FC6" d="M309.377,438.5l8.661,5v10l-8.661,5l-8.66-5v-10L309.377,438.5z"/>
<path fill="#97B3D3" d="M309.377,458.5l8.661,5v10l-8.661,5l-8.66-5v-10L309.377,458.5z"/>
<path fill="#005B9A" d="M309.377,478.5l8.661,5v10l-8.661,5l-8.66-5v-10L309.377,478.5z"/>
<path fill="#002A76" d="M309.377,498.5l8.661,5v10l-8.661,5l-8.66-5v-10L309.377,498.5z"/>
<path fill="#8EADCF" d="M309.377,518.5l8.661,5v10l-8.661,5l-8.66-5v-10L309.377,518.5z"/>
<path fill="#729BC4" d="M309.377,538.5l8.661,5v10l-8.661,5l-8.66-5v-10L309.377,538.5z"/>
<path fill="#005495" d="M309.377,558.5l8.661,5v10l-8.661,5l-8.66-5v-10L309.377,558.5z"/>
<path fill="#003D85" d="M309.377,578.5l8.661,5v10l-8.661,5l-8.66-5v-10L309.377,578.5z"/>
<path fill="#00468B" d="M309.377,598.5l8.661,5v10l-8.661,5l-8.66-5v-10L309.377,598.5z"/>
<path fill="#00065C" d="M309.377,618.5l8.661,5v10l-8.661,5l-8.66-5v-10L309.377,618.5z"/>
<path fill="#002974" d="M309.377,638.5l8.661,5v10l-8.661,5l-8.66-5v-10L309.377,638.5z"/>
<path fill="#1D73AA" d="M309.377,658.5l8.661,5v10l-8.661,5l-8.66-5v-10L309.377,658.5z"/>
<path fill="#00478C" d="M309.377,678.5l8.661,5v10l-8.661,5l-8.66-5v-10L309.377,678.5z"/>
<path fill="#001564" d="M309.377,698.5l8.661,5v10l-8.661,5l-8.66-5v-10L309.377,698.5z"/>
<path fill="#8FAECF" d="M326.698,88.5l8.66,5v10l-8.66,5l-8.661-5v-10L326.698,88.5z"/>
<path fill="#003C84" d="M326.698,108.5l8.66,5v10l-8.66,5l-8.661-5v-10L326.698,108.5z"/>
<path fill="#5489B9" d="M326.698,128.5l8.66,5v10l-8.66,5l-8.661-5v-10L326.698,128.5z"/>
<path fill="#005F9D" d="M326.698,148.5l8.66,5v10l-8.66,5l-8.661-5v-10L326.698,148.5z"/>
<path fill="#00216D" d="M326.698,168.5l8.66,5v10l-8.66,5l-8.661-5v-10L326.698,168.5z"/>
<path fill="#004187" d="M326.698,188.5l8.66,5v10l-8.66,5l-8.661-5v-10L326.698,188.5z"/>
<path fill="#4783B4" d="M326.698,208.5l8.66,5v10l-8.66,5l-8.661-5v-10L326.698,208.5z"/>
<path fill="#759DC5" d="M326.698,228.5l8.66,5v10l-8.66,5l-8.661-5v-10L326.698,228.5z"/>
<path fill="#00307A" d="M326.698,248.5l8.66,5v10l-8.66,5l-8.661-5v-10L326.698,248.5z"/>
<path fill="#8FAECF" d="M326.698,268.5l8.66,5v10l-8.66,5l-8.661-5v-10L326.698,268.5z"/>
<path fill="#00478C" d="M326.698,288.5l8.66,5v10l-8.66,5l-8.661-5v-10L326.698,288.5z"/>
<path fill="#94B1D1" d="M326.698,308.5l8.66,5v10l-8.66,5l-8.661-5v-10L326.698,308.5z"/>
<path fill="#4C85B6" d="M326.698,328.5l8.66,5v10l-8.66,5l-8.661-5v-10L326.698,328.5z"/>
<path fill="#001E6B" d="M326.698,348.5l8.66,5v10l-8.66,5l-8.661-5v-10L326.698,348.5z"/>
<path fill="#001967" d="M326.698,368.5l8.66,5v10l-8.66,5l-8.661-5v-10L326.698,368.5z"/>
<path fill="#00458A" d="M326.698,388.5l8.66,5v10l-8.66,5l-8.661-5v-10L326.698,388.5z"/>
<path fill="#002F7A" d="M326.698,408.5l8.66,5v10l-8.66,5l-8.661-5v-10L326.698,408.5z"/>
<path fill="#005B9A" d="M326.698,428.5l8.66,5v10l-8.66,5l-8.661-5v-10L326.698,428.5z"/>
<path fill="#005D9B" d="M326.698,448.5l8.66,5v10l-8.66,5l-8.661-5v-10L326.698,448.5z"/>
<path fill="#001A67" d="M326.698,468.5l8.66,5v10l-8.66,5l-8.661-5v-10L326.698,468.5z"/>
<path fill="#000D5F" d="M326.698,488.5l8.66,5v10l-8.66,5l-8.661-5v-10L326.698,488.5z"/>
<path fill="#00478C" d="M326.698,508.5l8.66,5v10l-8.66,5l-8.661-5v-10L326.698,508.5z"/>
<path fill="#598CBA" d="M326.698,528.5l8.66,5v10l-8.66,5l-8.661-5v-10L326.698,528.5z"/>
<path fill="#6C97C1" d="M326.698,548.5l8.66,5v10l-8.66,5l-8.661-5v-10L326.698,548.5z"/>
<path fill="#4883B5" d="M326.698,568.5l8.66,5v10l-8.66,5l-8.661-5v-10L326.698,568.5z"/>
<path fill="#004C90" d="M326.698,588.5l8.66,5v10l-8.66,5l-8.661-5v-10L326.698,588.5z"/>
<path fill="#00337D" d="M326.698,608.5l8.66,5v10l-8.66,5l-8.661-5v-10L326.698,608.5z"/>
<path fill="#00085D" d="M326.698,628.5l8.66,5v10l-8.66,5l-8.661-5v-10L326.698,628.5z"/>
<path fill="#7EA2C8" d="M326.698,648.5l8.66,5v10l-8.66,5l-8.661-5v-10L326.698,648.5z"/>
<path fill="#002471" d="M326.698,668.5l8.66,5v10l-8.66,5l-8.661-5v-10L326.698,668.5z"/>
<path fill="#005193" d="M326.698,688.5l8.66,5v10l-8.66,5l-8.661-5v-10L326.698,688.5z"/>
<path fill="#00468B" d="M326.698,708.5l8.66,5v10l-8.66,5l-8.661-5v-10L326.698,708.5z"/>
<path fill="#94B1D1" d="M344.019,78.5l8.66,5v10l-8.66,5l-8.66-5v-10L344.019,78.5z"/>
<path fill="#6995C0" d="M344.019,98.5l8.66,5v10l-8.66,5l-8.66-5v-10L344.019,98.5z"/>
<path fill="#00065D" d="M344.019,118.5l8.66,5v10l-8.66,5l-8.66-5v-10L344.019,118.5z"/>
<path fill="#7BA0C7" d="M344.019,138.5l8.66,5v10l-8.66,5l-8.66-5v-10L344.019,138.5z"/>
<path fill="#8DACCE" d="M344.019,158.5l8.66,5v10l-8.66,5l-8.66-5v-10L344.019,158.5z"/>
<path fill="#005A99" d="M344.019,178.5l8.66,5v10l-8.66,5l-8.66-5v-10L344.019,178.5z"/>
<path fill="#002F7A" d="M344.019,198.5l8.66,5v10l-8.66,5l-8.66-5v-10L344.019,198.5z"/>
<path fill="#002874" d="M344.019,218.5l8.66,5v10l-8.66,5l-8.66-5v-10L344.019,218.5z"/>
<path fill="#002874" d="M344.019,238.5l8.66,5v10l-8.66,5l-8.66-5v-10L344.019,238.5z"/>
<path fill="#004288" d="M344.019,258.5l8.66,5v10l-8.66,5l-8.66-5v-10L344.019,258.5z"/>
<path fill="#00307A" d="M344.019,278.5l8.66,5v10l-8.66,5l-8.66-5v-10L344.019,278.5z"/>
<path fill="#6D98C2" d="M344.019,298.5l8.66,5v10l-8.66,5l-8.66-5v-10L344.019,298.5z"/>
<path fill="#00619E" d="M344.019,318.5l8.66,5v10l-8.66,5l-8.66-5v-10L344.019,318.5z"/>
<path fill="#006BA5" d="M344.019,338.5l8.66,5v10l-8.66,5l-8.66-5v-10L344.019,338.5z"/>
<path fill="#00075D" d="M344.019,358.5l8.66,5v10l-8.66,5l-8.66-5v-10L344.019,358.5z"/>
<path fill="#001161" d="M344.019,378.5l8.66,5v10l-8.66,5l-8.66-5v-10L344.019,378.5z"/>
<path fill="#002B76" d="M344.019,398.5l8.66,5v10l-8.66,5l-8.66-5v-10L344.019,398.5z"/>
<path fill="#004389" d="M344.019,418.5l8.66,5v10l-8.66,5l-8.66-5v-10L344.019,418.5z"/>
<path fill="#002975" d="M344.019,438.5l8.66,5v10l-8.66,5l-8.66-5v-10L344.019,438.5z"/>
<path fill="#5B8DBB" d="M344.019,458.5l8.66,5v10l-8.66,5l-8.66-5v-10L344.019,458.5z"/>
<path fill="#002773" d="M344.019,478.5l8.66,5v10l-8.66,5l-8.66-5v-10L344.019,478.5z"/>
<path fill="#001161" d="M344.019,498.5l8.66,5v10l-8.66,5l-8.66-5v-10L344.019,498.5z"/>
<path fill="#000F60" d="M344.019,518.5l8.66,5v10l-8.66,5l-8.66-5v-10L344.019,518.5z"/>
<path fill="#003C83" d="M344.019,538.5l8.66,5v10l-8.66,5l-8.66-5v-10L344.019,538.5z"/>
<path fill="#87A8CC" d="M344.019,558.5l8.66,5v10l-8.66,5l-8.66-5v-10L344.019,558.5z"/>
<path fill="#00347E" d="M344.019,578.5l8.66,5v10l-8.66,5l-8.66-5v-10L344.019,578.5z"/>
<path fill="#004289" d="M344.019,598.5l8.66,5v10l-8.66,5l-8.66-5v-10L344.019,598.5z"/>
<path fill="#002F79" d="M344.019,618.5l8.66,5v10l-8.66,5l-8.66-5v-10L344.019,618.5z"/>
<path fill="#00206C" d="M344.019,638.5l8.66,5v10l-8.66,5l-8.66-5v-10L344.019,638.5z"/>
<path fill="#4682B4" d="M344.019,658.5l8.66,5v10l-8.66,5l-8.66-5v-10L344.019,658.5z"/>
<path fill="#9EB8D6" d="M344.019,678.5l8.66,5v10l-8.66,5l-8.66-5v-10L344.019,678.5z"/>
<path fill="#4D86B6" d="M344.019,698.5l8.66,5v10l-8.66,5l-8.66-5v-10L344.019,698.5z"/>
<path fill="#2174AB" d="M344.019,718.5l8.66,5v10l-8.66,5l-8.66-5v-10L344.019,718.5z"/>
<path fill="#001C68" d="M361.339,68.5l8.66,5v10l-8.66,5l-8.66-5v-10L361.339,68.5z"/>
<path fill="#0067A2" d="M361.339,88.5l8.66,5v10l-8.66,5l-8.66-5v-10L361.339,88.5z"/>
<path fill="#00307A" d="M361.339,108.5l8.66,5v10l-8.66,5l-8.66-5v-10L361.339,108.5z"/>
<path fill="#347AAF" d="M361.339,128.5l8.66,5v10l-8.66,5l-8.66-5v-10L361.339,128.5z"/>
<path fill="#7DA2C8" d="M361.339,148.5l8.66,5v10l-8.66,5l-8.66-5v-10L361.339,148.5z"/>
<path fill="#3C7DB1" d="M361.339,168.5l8.66,5v10l-8.66,5l-8.66-5v-10L361.339,168.5z"/>
<path fill="#1A72AA" d="M361.339,188.5l8.66,5v10l-8.66,5l-8.66-5v-10L361.339,188.5z"/>
<path fill="#4B84B6" d="M361.339,208.5l8.66,5v10l-8.66,5l-8.66-5v-10L361.339,208.5z"/>
<path fill="#9BB6D4" d="M361.339,228.5l8.66,5v10l-8.66,5l-8.66-5v-10L361.339,228.5z"/>
<path fill="#7CA1C8" d="M361.339,248.5l8.66,5v10l-8.66,5l-8.66-5v-10L361.339,248.5z"/>
<path fill="#00448A" d="M361.339,268.5l8.66,5v10l-8.66,5l-8.66-5v-10L361.339,268.5z"/>
<path fill="#407FB2" d="M361.339,288.5l8.66,5v10l-8.66,5l-8.66-5v-10L361.339,288.5z"/>
<path fill="#3C7DB1" d="M361.339,308.5l8.66,5v10l-8.66,5l-8.66-5v-10L361.339,308.5z"/>
<path fill="#002A76" d="M361.339,328.5l8.66,5v10l-8.66,5l-8.66-5v-10L361.339,328.5z"/>
<path fill="#004389" d="M361.339,348.5l8.66,5v10l-8.66,5l-8.66-5v-10L361.339,348.5z"/>
<path fill="#096FA8" d="M361.339,368.5l8.66,5v10l-8.66,5l-8.66-5v-10L361.339,368.5z"/>
<path fill="#005B9A" d="M361.339,388.5l8.66,5v10l-8.66,5l-8.66-5v-10L361.339,388.5z"/>
<path fill="#87A9CC" d="M361.339,408.5l8.66,5v10l-8.66,5l-8.66-5v-10L361.339,408.5z"/>
<path fill="#0067A2" d="M361.339,428.5l8.66,5v10l-8.66,5l-8.66-5v-10L361.339,428.5z"/>
<path fill="#0069A3" d="M361.339,448.5l8.66,5v10l-8.66,5l-8.66-5v-10L361.339,448.5z"/>
<path fill="#004B8F" d="M361.339,468.5l8.66,5v10l-8.66,5l-8.66-5v-10L361.339,468.5z"/>
<path fill="#003880" d="M361.339,488.5l8.66,5v10l-8.66,5l-8.66-5v-10L361.339,488.5z"/>
<path fill="#81A5CA" d="M361.339,508.5l8.66,5v10l-8.66,5l-8.66-5v-10L361.339,508.5z"/>
<path fill="#000F60" d="M361.339,528.5l8.66,5v10l-8.66,5l-8.66-5v-10L361.339,528.5z"/>
<path fill="#00226F" d="M361.339,548.5l8.66,5v10l-8.66,5l-8.66-5v-10L361.339,548.5z"/>
<path fill="#006AA5" d="M361.339,568.5l8.66,5v10l-8.66,5l-8.66-5v-10L361.339,568.5z"/>
<path fill="#002B76" d="M361.339,588.5l8.66,5v10l-8.66,5l-8.66-5v-10L361.339,588.5z"/>
<path fill="#96B3D2" d="M361.339,608.5l8.66,5v10l-8.66,5l-8.66-5v-10L361.339,608.5z"/>
<path fill="#00458B" d="M361.339,628.5l8.66,5v10l-8.66,5l-8.66-5v-10L361.339,628.5z"/>
<path fill="#003A83" d="M361.339,648.5l8.66,5v10l-8.66,5l-8.66-5v-10L361.339,648.5z"/>
<path fill="#95B2D2" d="M361.339,668.5l8.66,5v10l-8.66,5l-8.66-5v-10L361.339,668.5z"/>
<path fill="#00075D" d="M361.339,688.5l8.66,5v10l-8.66,5l-8.66-5v-10L361.339,688.5z"/>
<path fill="#5188B8" d="M361.339,708.5l8.66,5v10l-8.66,5l-8.66-5v-10L361.339,708.5z"/>
<path fill="#000C5F" d="M361.339,728.5l8.66,5v10l-8.66,5l-8.66-5v-10L361.339,728.5z"/>
<path fill="#0065A1" d="M378.659,58.5l8.661,5v10l-8.661,5l-8.66-5v-10L378.659,58.5z"/>
<path fill="#90AED0" d="M378.659,78.5l8.661,5v10l-8.661,5l-8.66-5v-10L378.659,78.5z"/>
<path fill="#8BABCE" d="M378.659,98.5l8.661,5v10l-8.661,5l-8.66-5v-10L378.659,98.5z"/>
<path fill="#001161" d="M378.659,118.5l8.661,5v10l-8.661,5l-8.66-5v-10L378.659,118.5z"/>
<path fill="#2B77AD" d="M378.659,138.5l8.661,5v10l-8.661,5l-8.66-5v-10L378.659,138.5z"/>
<path fill="#5489B9" d="M378.659,158.5l8.661,5v10l-8.661,5l-8.66-5v-10L378.659,158.5z"/>
<path fill="#00206C" d="M378.659,178.5l8.661,5v10l-8.661,5l-8.66-5v-10L378.659,178.5z"/>
<path fill="#5187B7" d="M378.659,198.5l8.661,5v10l-8.661,5l-8.66-5v-10L378.659,198.5z"/>
<path fill="#9EB8D6" d="M378.659,218.5l8.661,5v10l-8.661,5l-8.66-5v-10L378.659,218.5z"/>
<path fill="#003982" d="M378.659,238.5l8.661,5v10l-8.661,5l-8.66-5v-10L378.659,238.5z"/>
<path fill="#A6BED9" d="M378.659,258.5l8.661,5v10l-8.661,5l-8.66-5v-10L378.659,258.5z"/>
<path fill="#001B68" d="M378.659,278.5l8.661,5v10l-8.661,5l-8.66-5v-10L378.659,278.5z"/>
<path fill="#00226E" d="M378.659,298.5l8.661,5v10l-8.661,5l-8.66-5v-10L378.659,298.5z"/>
<path fill="#00468B" d="M378.659,318.5l8.661,5v10l-8.661,5l-8.66-5v-10L378.659,318.5z"/>
<path fill="#002E79" d="M378.659,338.5l8.661,5v10l-8.661,5l-8.66-5v-10L378.659,338.5z"/>
<path fill="#004087" d="M378.659,358.5l8.661,5v10l-8.661,5l-8.66-5v-10L378.659,358.5z"/>
<path fill="#005C9B" d="M378.659,378.5l8.661,5v10l-8.661,5l-8.66-5v-10L378.659,378.5z"/>
<path fill="#91AFD0" d="M378.659,398.5l8.661,5v10l-8.661,5l-8.66-5v-10L378.659,398.5z"/>
<path fill="#578BB9" d="M378.659,418.5l8.661,5v10l-8.661,5l-8.66-5v-10L378.659,418.5z"/>
<path fill="#004A8E" d="M378.659,438.5l8.661,5v10l-8.661,5l-8.66-5v-10L378.659,438.5z"/>
<path fill="#002571" d="M378.659,458.5l8.661,5v10l-8.661,5l-8.66-5v-10L378.659,458.5z"/>
<path fill="#00609E" d="M378.659,478.5l8.661,5v10l-8.661,5l-8.66-5v-10L378.659,478.5z"/>
<path fill="#A3BBD7" d="M378.659,498.5l8.661,5v10l-8.661,5l-8.66-5v-10L378.659,498.5z"/>
<path fill="#8FAECF" d="M378.659,518.5l8.661,5v10l-8.661,5l-8.66-5v-10L378.659,518.5z"/>
<path fill="#6090BD" d="M378.659,538.5l8.661,5v10l-8.661,5l-8.66-5v-10L378.659,538.5z"/>
<path fill="#0D70A8" d="M378.659,558.5l8.661,5v10l-8.661,5l-8.66-5v-10L378.659,558.5z"/>
<path fill="#7099C3" d="M378.659,578.5l8.661,5v10l-8.661,5l-8.66-5v-10L378.659,578.5z"/>
<path fill="#4E86B7" d="M378.659,598.5l8.661,5v10l-8.661,5l-8.66-5v-10L378.659,598.5z"/>
<path fill="#4682B4" d="M378.659,618.5l8.661,5v10l-8.661,5l-8.66-5v-10L378.659,618.5z"/>
<path fill="#002A75" d="M378.659,638.5l8.661,5v10l-8.661,5l-8.66-5v-10L378.659,638.5z"/>
<path fill="#0065A1" d="M378.659,658.5l8.661,5v10l-8.661,5l-8.66-5v-10L378.659,658.5z"/>
<path fill="#003F86" d="M378.659,678.5l8.661,5v10l-8.661,5l-8.66-5v-10L378.659,678.5z"/>
<path fill="#00458A" d="M378.659,698.5l8.661,5v10l-8.661,5l-8.66-5v-10L378.659,698.5z"/>
<path fill="#005F9D" d="M378.659,718.5l8.661,5v10l-8.661,5l-8.66-5v-10L378.659,718.5z"/>
<path fill="#4581B4" d="M378.659,738.5l8.661,5v10l-8.661,5l-8.66-5v-10L378.659,738.5z"/>
<path fill="#7EA2C8" d="M395.98,68.5l8.66,5v10l-8.66,5l-8.66-5v-10L395.98,68.5z"/>
<path fill="#84A7CB" d="M395.98,88.5l8.66,5v10l-8.66,5l-8.66-5v-10L395.98,88.5z"/>
<path fill="#89A9CD" d="M395.98,108.5l8.66,5v10l-8.66,5l-8.66-5v-10L395.98,108.5z"/>
<path fill="#9DB7D5" d="M395.98,128.5l8.66,5v10l-8.66,5l-8.66-5v-10L395.98,128.5z"/>
<path fill="#003780" d="M395.98,148.5l8.66,5v10l-8.66,5l-8.66-5v-10L395.98,148.5z"/>
<path fill="#006CA6" d="M395.98,168.5l8.66,5v10l-8.66,5l-8.66-5v-10L395.98,168.5z"/>
<path fill="#2475AB" d="M395.98,188.5l8.66,5v10l-8.66,5l-8.66-5v-10L395.98,188.5z"/>
<path fill="#6693BF" d="M395.98,208.5l8.66,5v10l-8.66,5l-8.66-5v-10L395.98,208.5z"/>
<path fill="#3A7CB0" d="M395.98,228.5l8.66,5v10l-8.66,5l-8.66-5v-10L395.98,228.5z"/>
<path fill="#003780" d="M395.98,248.5l8.66,5v10l-8.66,5l-8.66-5v-10L395.98,248.5z"/>
<path fill="#000B5F" d="M395.98,268.5l8.66,5v10l-8.66,5l-8.66-5v-10L395.98,268.5z"/>
<path fill="#005697" d="M395.98,288.5l8.66,5v10l-8.66,5l-8.66-5v-10L395.98,288.5z"/>
<path fill="#00448A" d="M395.98,308.5l8.66,5v10l-8.66,5l-8.66-5v-10L395.98,308.5z"/>
<path fill="#00065C" d="M395.98,328.5l8.66,5v10l-8.66,5l-8.66-5v-10L395.98,328.5z"/>
<path fill="#0068A3" d="M395.98,348.5l8.66,5v10l-8.66,5l-8.66-5v-10L395.98,348.5z"/>
<path fill="#002874" d="M395.98,368.5l8.66,5v10l-8.66,5l-8.66-5v-10L395.98,368.5z"/>
<path fill="#5B8DBB" d="M395.98,388.5l8.66,5v10l-8.66,5l-8.66-5v-10L395.98,388.5z"/>
<path fill="#87A8CC" d="M395.98,408.5l8.66,5v10l-8.66,5l-8.66-5v-10L395.98,408.5z"/>
<path fill="#001664" d="M395.98,428.5l8.66,5v10l-8.66,5l-8.66-5v-10L395.98,428.5z"/>
<path fill="#002B76" d="M395.98,448.5l8.66,5v10l-8.66,5l-8.66-5v-10L395.98,448.5z"/>
<path fill="#00317B" d="M395.98,468.5l8.66,5v10l-8.66,5l-8.66-5v-10L395.98,468.5z"/>
<path fill="#004389" d="M395.98,488.5l8.66,5v10l-8.66,5l-8.66-5v-10L395.98,488.5z"/>
<path fill="#004389" d="M395.98,508.5l8.66,5v10l-8.66,5l-8.66-5v-10L395.98,508.5z"/>
<path fill="#2976AC" d="M395.98,528.5l8.66,5v10l-8.66,5l-8.66-5v-10L395.98,528.5z"/>
<path fill="#00005A" d="M395.98,548.5l8.66,5v10l-8.66,5l-8.66-5v-10L395.98,548.5z"/>
<path fill="#729BC4" d="M395.98,568.5l8.66,5v10l-8.66,5l-8.66-5v-10L395.98,568.5z"/>
<path fill="#6190BD" d="M395.98,588.5l8.66,5v10l-8.66,5l-8.66-5v-10L395.98,588.5z"/>
<path fill="#588BBA" d="M395.98,608.5l8.66,5v10l-8.66,5l-8.66-5v-10L395.98,608.5z"/>
<path fill="#002672" d="M395.98,628.5l8.66,5v10l-8.66,5l-8.66-5v-10L395.98,628.5z"/>
<path fill="#588BBA" d="M395.98,648.5l8.66,5v10l-8.66,5l-8.66-5v-10L395.98,648.5z"/>
<path fill="#3E7EB2" d="M395.98,668.5l8.66,5v10l-8.66,5l-8.66-5v-10L395.98,668.5z"/>
<path fill="#387CB0" d="M395.98,688.5l8.66,5v10l-8.66,5l-8.66-5v-10L395.98,688.5z"/>
<path fill="#93B0D1" d="M395.98,708.5l8.66,5v10l-8.66,5l-8.66-5v-10L395.98,708.5z"/>
<path fill="#006AA4" d="M395.98,728.5l8.66,5v10l-8.66,5l-8.66-5v-10L395.98,728.5z"/>
<path fill="#A4BCD8" d="M413.301,78.5l8.66,5v10l-8.66,5l-8.66-5v-10L413.301,78.5z"/>
<path fill="#001664" d="M413.301,98.5l8.66,5v10l-8.66,5l-8.66-5v-10L413.301,98.5z"/>
<path fill="#001362" d="M413.301,118.5l8.66,5v10l-8.66,5l-8.66-5v-10L413.301,118.5z"/>
<path fill="#387CB0" d="M413.301,138.5l8.66,5v10l-8.66,5l-8.66-5v-10L413.301,138.5z"/>
<path fill="#6B96C1" d="M413.301,158.5l8.66,5v10l-8.66,5l-8.66-5v-10L413.301,158.5z"/>
<path fill="#001A67" d="M413.301,178.5l8.66,5v10l-8.66,5l-8.66-5v-10L413.301,178.5z"/>
<path fill="#000A5E" d="M413.301,198.5l8.66,5v10l-8.66,5l-8.66-5v-10L413.301,198.5z"/>
<path fill="#0066A2" d="M413.301,218.5l8.66,5v10l-8.66,5l-8.66-5v-10L413.301,218.5z"/>
<path fill="#00357E" d="M413.301,238.5l8.66,5v10l-8.66,5l-8.66-5v-10L413.301,238.5z"/>
<path fill="#00035B" d="M413.301,258.5l8.66,5v10l-8.66,5l-8.66-5v-10L413.301,258.5z"/>
<path fill="#00226F" d="M413.301,278.5l8.66,5v10l-8.66,5l-8.66-5v-10L413.301,278.5z"/>
<path fill="#002A75" d="M413.301,298.5l8.66,5v10l-8.66,5l-8.66-5v-10L413.301,298.5z"/>
<path fill="#001966" d="M413.301,318.5l8.66,5v10l-8.66,5l-8.66-5v-10L413.301,318.5z"/>
<path fill="#98B4D3" d="M413.301,338.5l8.66,5v10l-8.66,5l-8.66-5v-10L413.301,338.5z"/>
<path fill="#4F86B7" d="M413.301,358.5l8.66,5v10l-8.66,5l-8.66-5v-10L413.301,358.5z"/>
<path fill="#003C84" d="M413.301,378.5l8.66,5v10l-8.66,5l-8.66-5v-10L413.301,378.5z"/>
<path fill="#005697" d="M413.301,398.5l8.66,5v10l-8.66,5l-8.66-5v-10L413.301,398.5z"/>
<path fill="#00488C" d="M413.301,418.5l8.66,5v10l-8.66,5l-8.66-5v-10L413.301,418.5z"/>
<path fill="#7099C3" d="M413.301,438.5l8.66,5v10l-8.66,5l-8.66-5v-10L413.301,438.5z"/>
<path fill="#002C77" d="M413.301,458.5l8.66,5v10l-8.66,5l-8.66-5v-10L413.301,458.5z"/>
<path fill="#00357F" d="M413.301,478.5l8.66,5v10l-8.66,5l-8.66-5v-10L413.301,478.5z"/>
<path fill="#6995C0" d="M413.301,498.5l8.66,5v10l-8.66,5l-8.66-5v-10L413.301,498.5z"/>
<path fill="#002E79" d="M413.301,518.5l8.66,5v10l-8.66,5l-8.66-5v-10L413.301,518.5z"/>
<path fill="#0064A0" d="M413.301,538.5l8.66,5v10l-8.66,5l-8.66-5v-10L413.301,538.5z"/>
<path fill="#00206C" d="M413.301,558.5l8.66,5v10l-8.66,5l-8.66-5v-10L413.301,558.5z"/>
<path fill="#749CC4" d="M413.301,578.5l8.66,5v10l-8.66,5l-8.66-5v-10L413.301,578.5z"/>
<path fill="#9AB5D4" d="M413.301,598.5l8.66,5v10l-8.66,5l-8.66-5v-10L413.301,598.5z"/>
<path fill="#002F7A" d="M413.301,618.5l8.66,5v10l-8.66,5l-8.66-5v-10L413.301,618.5z"/>
<path fill="#00236F" d="M413.301,638.5l8.66,5v10l-8.66,5l-8.66-5v-10L413.301,638.5z"/>
<path fill="#001664" d="M413.301,658.5l8.66,5v10l-8.66,5l-8.66-5v-10L413.301,658.5z"/>
<path fill="#00085D" d="M413.301,678.5l8.66,5v10l-8.66,5l-8.66-5v-10L413.301,678.5z"/>
<path fill="#00226E" d="M413.301,698.5l8.66,5v10l-8.66,5l-8.66-5v-10L413.301,698.5z"/>
<path fill="#001F6C" d="M413.301,718.5l8.66,5v10l-8.66,5l-8.66-5v-10L413.301,718.5z"/>
<path fill="#002470" d="M430.621,88.5l8.66,5v10l-8.66,5l-8.66-5v-10L430.621,88.5z"/>
<path fill="#001061" d="M430.621,108.5l8.66,5v10l-8.66,5l-8.66-5v-10L430.621,108.5z"/>
<path fill="#2374AB" d="M430.621,128.5l8.66,5v10l-8.66,5l-8.66-5v-10L430.621,128.5z"/>
<path fill="#00347E" d="M430.621,148.5l8.66,5v10l-8.66,5l-8.66-5v-10L430.621,148.5z"/>
<path fill="#2D78AD" d="M430.621,168.5l8.66,5v10l-8.66,5l-8.66-5v-10L430.621,168.5z"/>
<path fill="#002E79" d="M430.621,188.5l8.66,5v10l-8.66,5l-8.66-5v-10L430.621,188.5z"/>
<path fill="#004489" d="M430.621,208.5l8.66,5v10l-8.66,5l-8.66-5v-10L430.621,208.5z"/>
<path fill="#002A75" d="M430.621,228.5l8.66,5v10l-8.66,5l-8.66-5v-10L430.621,228.5z"/>
<path fill="#719AC3" d="M430.621,248.5l8.66,5v10l-8.66,5l-8.66-5v-10L430.621,248.5z"/>
<path fill="#9DB7D5" d="M430.621,268.5l8.66,5v10l-8.66,5l-8.66-5v-10L430.621,268.5z"/>
<path fill="#8DACCE" d="M430.621,288.5l8.66,5v10l-8.66,5l-8.66-5v-10L430.621,288.5z"/>
<path fill="#005394" d="M430.621,308.5l8.66,5v10l-8.66,5l-8.66-5v-10L430.621,308.5z"/>
<path fill="#558AB9" d="M430.621,328.5l8.66,5v10l-8.66,5l-8.66-5v-10L430.621,328.5z"/>
<path fill="#00468B" d="M430.621,348.5l8.66,5v10l-8.66,5l-8.66-5v-10L430.621,348.5z"/>
<path fill="#006BA5" d="M430.621,368.5l8.66,5v10l-8.66,5l-8.66-5v-10L430.621,368.5z"/>
<path fill="#4481B3" d="M430.621,388.5l8.66,5v10l-8.66,5l-8.66-5v-10L430.621,388.5z"/>
<path fill="#001262" d="M430.621,408.5l8.66,5v10l-8.66,5l-8.66-5v-10L430.621,408.5z"/>
<path fill="#005092" d="M430.621,428.5l8.66,5v10l-8.66,5l-8.66-5v-10L430.621,428.5z"/>
<path fill="#7CA1C8" d="M430.621,448.5l8.66,5v10l-8.66,5l-8.66-5v-10L430.621,448.5z"/>
<path fill="#004C8F" d="M430.621,468.5l8.66,5v10l-8.66,5l-8.66-5v-10L430.621,468.5z"/>
<path fill="#005D9B" d="M430.621,488.5l8.66,5v10l-8.66,5l-8.66-5v-10L430.621,488.5z"/>
<path fill="#001967" d="M430.621,508.5l8.66,5v10l-8.66,5l-8.66-5v-10L430.621,508.5z"/>
<path fill="#004389" d="M430.621,528.5l8.66,5v10l-8.66,5l-8.66-5v-10L430.621,528.5z"/>
<path fill="#00478C" d="M430.621,548.5l8.66,5v10l-8.66,5l-8.66-5v-10L430.621,548.5z"/>
<path fill="#005F9D" d="M430.621,568.5l8.66,5v10l-8.66,5l-8.66-5v-10L430.621,568.5z"/>
<path fill="#00025B" d="M430.621,588.5l8.66,5v10l-8.66,5l-8.66-5v-10L430.621,588.5z"/>
<path fill="#A3BBD7" d="M430.621,608.5l8.66,5v10l-8.66,5l-8.66-5v-10L430.621,608.5z"/>
<path fill="#85A7CB" d="M430.621,628.5l8.66,5v10l-8.66,5l-8.66-5v-10L430.621,628.5z"/>
<path fill="#00005A" d="M430.621,648.5l8.66,5v10l-8.66,5l-8.66-5v-10L430.621,648.5z"/>
<path fill="#003F86" d="M430.621,668.5l8.66,5v10l-8.66,5l-8.66-5v-10L430.621,668.5z"/>
<path fill="#005B9A" d="M430.621,688.5l8.66,5v10l-8.66,5l-8.66-5v-10L430.621,688.5z"/>
<path fill="#001F6B" d="M430.621,708.5l8.66,5v10l-8.66,5l-8.66-5v-10L430.621,708.5z"/>
<path fill="#003C84" d="M447.941,98.5l8.66,5v10l-8.66,5l-8.66-5v-10L447.941,98.5z"/>
<path fill="#004D90" d="M447.941,118.5l8.66,5v10l-8.66,5l-8.66-5v-10L447.941,118.5z"/>
<path fill="#002975" d="M447.941,138.5l8.66,5v10l-8.66,5l-8.66-5v-10L447.941,138.5z"/>
<path fill="#82A5CA" d="M447.941,158.5l8.66,5v10l-8.66,5l-8.66-5v-10L447.941,158.5z"/>
<path fill="#367BAF" d="M447.941,178.5l8.66,5v10l-8.66,5l-8.66-5v-10L447.941,178.5z"/>
<path fill="#000059" d="M447.941,198.5l8.66,5v10l-8.66,5l-8.66-5v-10L447.941,198.5z"/>
<path fill="#006BA5" d="M447.941,218.5l8.66,5v10l-8.66,5l-8.66-5v-10L447.941,218.5z"/>
<path fill="#0067A2" d="M447.941,238.5l8.66,5v10l-8.66,5l-8.66-5v-10L447.941,238.5z"/>
<path fill="#046FA7" d="M447.941,258.5l8.66,5v10l-8.66,5l-8.66-5v-10L447.941,258.5z"/>
<path fill="#005A99" d="M447.941,278.5l8.66,5v10l-8.66,5l-8.66-5v-10L447.941,278.5z"/>
<path fill="#A6BED9" d="M447.941,298.5l8.66,5v10l-8.66,5l-8.66-5v-10L447.941,298.5z"/>
<path fill="#9FB9D6" d="M447.941,318.5l8.66,5v10l-8.66,5l-8.66-5v-10L447.941,318.5z"/>
<path fill="#A3BCD8" d="M447.941,338.5l8.66,5v10l-8.66,5l-8.66-5v-10L447.941,338.5z"/>
<path fill="#001765" d="M447.941,358.5l8.66,5v10l-8.66,5l-8.66-5v-10L447.941,358.5z"/>
<path fill="#4C85B6" d="M447.941,378.5l8.66,5v10l-8.66,5l-8.66-5v-10L447.941,378.5z"/>
<path fill="#00357E" d="M447.941,398.5l8.66,5v10l-8.66,5l-8.66-5v-10L447.941,398.5z"/>
<path fill="#00478C" d="M447.941,418.5l8.66,5v10l-8.66,5l-8.66-5v-10L447.941,418.5z"/>
<path fill="#00347D" d="M447.941,438.5l8.66,5v10l-8.66,5l-8.66-5v-10L447.941,438.5z"/>
<path fill="#1170A9" d="M447.941,458.5l8.66,5v10l-8.66,5l-8.66-5v-10L447.941,458.5z"/>
<path fill="#004288" d="M447.941,478.5l8.66,5v10l-8.66,5l-8.66-5v-10L447.941,478.5z"/>
<path fill="#005F9D" d="M447.941,498.5l8.66,5v10l-8.66,5l-8.66-5v-10L447.941,498.5z"/>
<path fill="#397CB0" d="M447.941,518.5l8.66,5v10l-8.66,5l-8.66-5v-10L447.941,518.5z"/>
<path fill="#347AAF" d="M447.941,538.5l8.66,5v10l-8.66,5l-8.66-5v-10L447.941,538.5z"/>
<path fill="#001563" d="M447.941,558.5l8.66,5v10l-8.66,5l-8.66-5v-10L447.941,558.5z"/>
<path fill="#5C8EBB" d="M447.941,578.5l8.66,5v10l-8.66,5l-8.66-5v-10L447.941,578.5z"/>
<path fill="#8DACCE" d="M447.941,598.5l8.66,5v10l-8.66,5l-8.66-5v-10L447.941,598.5z"/>
<path fill="#6693BF" d="M447.941,618.5l8.66,5v10l-8.66,5l-8.66-5v-10L447.941,618.5z"/>
<path fill="#002773" d="M447.941,638.5l8.66,5v10l-8.66,5l-8.66-5v-10L447.941,638.5z"/>
<path fill="#006EA7" d="M447.941,658.5l8.66,5v10l-8.66,5l-8.66-5v-10L447.941,658.5z"/>
<path fill="#88A9CC" d="M447.941,678.5l8.66,5v10l-8.66,5l-8.66-5v-10L447.941,678.5z"/>
<path fill="#006AA4" d="M447.941,698.5l8.66,5v10l-8.66,5l-8.66-5v-10L447.941,698.5z"/>
<path fill="#8CABCE" d="M465.262,108.5l8.66,5v10l-8.66,5l-8.66-5v-10L465.262,108.5z"/>
<path fill="#6B96C1" d="M465.262,128.5l8.66,5v10l-8.66,5l-8.66-5v-10L465.262,128.5z"/>
<path fill="#5E8FBC" d="M465.262,148.5l8.66,5v10l-8.66,5l-8.66-5v-10L465.262,148.5z"/>
<path fill="#00357F" d="M465.262,168.5l8.66,5v10l-8.66,5l-8.66-5v-10L465.262,168.5z"/>
<path fill="#3F7FB2" d="M465.262,188.5l8.66,5v10l-8.66,5l-8.66-5v-10L465.262,188.5z"/>
<path fill="#9DB7D5" d="M465.262,208.5l8.66,5v10l-8.66,5l-8.66-5v-10L465.262,208.5z"/>
<path fill="#00327C" d="M465.262,228.5l8.66,5v10l-8.66,5l-8.66-5v-10L465.262,228.5z"/>
<path fill="#598CBA" d="M465.262,248.5l8.66,5v10l-8.66,5l-8.66-5v-10L465.262,248.5z"/>
<path fill="#6A96C0" d="M465.262,268.5l8.66,5v10l-8.66,5l-8.66-5v-10L465.262,268.5z"/>
<path fill="#98B4D3" d="M465.262,288.5l8.66,5v10l-8.66,5l-8.66-5v-10L465.262,288.5z"/>
<path fill="#729BC4" d="M465.262,308.5l8.66,5v10l-8.66,5l-8.66-5v-10L465.262,308.5z"/>
<path fill="#00337D" d="M465.262,328.5l8.66,5v10l-8.66,5l-8.66-5v-10L465.262,328.5z"/>
<path fill="#005898" d="M465.262,348.5l8.66,5v10l-8.66,5l-8.66-5v-10L465.262,348.5z"/>
<path fill="#001865" d="M465.262,368.5l8.66,5v10l-8.66,5l-8.66-5v-10L465.262,368.5z"/>
<path fill="#1E73AA" d="M465.262,388.5l8.66,5v10l-8.66,5l-8.66-5v-10L465.262,388.5z"/>
<path fill="#001E6A" d="M465.262,408.5l8.66,5v10l-8.66,5l-8.66-5v-10L465.262,408.5z"/>
<path fill="#005193" d="M465.262,428.5l8.66,5v10l-8.66,5l-8.66-5v-10L465.262,428.5z"/>
<path fill="#9FB9D6" d="M465.262,448.5l8.66,5v10l-8.66,5l-8.66-5v-10L465.262,448.5z"/>
<path fill="#4B84B5" d="M465.262,468.5l8.66,5v10l-8.66,5l-8.66-5v-10L465.262,468.5z"/>
<path fill="#4983B5" d="M465.262,488.5l8.66,5v10l-8.66,5l-8.66-5v-10L465.262,488.5z"/>
<path fill="#000059" d="M465.262,508.5l8.66,5v10l-8.66,5l-8.66-5v-10L465.262,508.5z"/>
<path fill="#0065A1" d="M465.262,528.5l8.66,5v10l-8.66,5l-8.66-5v-10L465.262,528.5z"/>
<path fill="#8EADCF" d="M465.262,548.5l8.66,5v10l-8.66,5l-8.66-5v-10L465.262,548.5z"/>
<path fill="#6291BD" d="M465.262,568.5l8.66,5v10l-8.66,5l-8.66-5v-10L465.262,568.5z"/>
<path fill="#0063A0" d="M465.262,588.5l8.66,5v10l-8.66,5l-8.66-5v-10L465.262,588.5z"/>
<path fill="#0068A3" d="M465.262,608.5l8.66,5v10l-8.66,5l-8.66-5v-10L465.262,608.5z"/>
<path fill="#84A6CB" d="M465.262,628.5l8.66,5v10l-8.66,5l-8.66-5v-10L465.262,628.5z"/>
<path fill="#558AB9" d="M465.262,648.5l8.66,5v10l-8.66,5l-8.66-5v-10L465.262,648.5z"/>
<path fill="#6B96C1" d="M465.262,668.5l8.66,5v10l-8.66,5l-8.66-5v-10L465.262,668.5z"/>
<path fill="#005E9C" d="M465.262,688.5l8.66,5v10l-8.66,5l-8.66-5v-10L465.262,688.5z"/>
<path fill="#00619E" d="M482.583,118.5l8.66,5v10l-8.66,5l-8.661-5v-10L482.583,118.5z"/>
<path fill="#00498E" d="M482.583,138.5l8.66,5v10l-8.66,5l-8.661-5v-10L482.583,138.5z"/>
<path fill="#6E98C2" d="M482.583,158.5l8.66,5v10l-8.66,5l-8.661-5v-10L482.583,158.5z"/>
<path fill="#8AAACD" d="M482.583,178.5l8.66,5v10l-8.66,5l-8.661-5v-10L482.583,178.5z"/>
<path fill="#002974" d="M482.583,198.5l8.66,5v10l-8.66,5l-8.661-5v-10L482.583,198.5z"/>
<path fill="#789FC6" d="M482.583,218.5l8.66,5v10l-8.66,5l-8.661-5v-10L482.583,218.5z"/>
<path fill="#9EB8D5" d="M482.583,238.5l8.66,5v10l-8.66,5l-8.661-5v-10L482.583,238.5z"/>
<path fill="#076FA8" d="M482.583,258.5l8.66,5v10l-8.66,5l-8.661-5v-10L482.583,258.5z"/>
<path fill="#377CB0" d="M482.583,278.5l8.66,5v10l-8.66,5l-8.661-5v-10L482.583,278.5z"/>
<path fill="#A5BDD8" d="M482.583,298.5l8.66,5v10l-8.66,5l-8.661-5v-10L482.583,298.5z"/>
<path fill="#000B5E" d="M482.583,318.5l8.66,5v10l-8.66,5l-8.661-5v-10L482.583,318.5z"/>
<path fill="#001C69" d="M482.583,338.5l8.66,5v10l-8.66,5l-8.661-5v-10L482.583,338.5z"/>
<path fill="#749CC4" d="M482.583,358.5l8.66,5v10l-8.66,5l-8.661-5v-10L482.583,358.5z"/>
<path fill="#005294" d="M482.583,378.5l8.66,5v10l-8.66,5l-8.661-5v-10L482.583,378.5z"/>
<path fill="#004C8F" d="M482.583,398.5l8.66,5v10l-8.66,5l-8.661-5v-10L482.583,398.5z"/>
<path fill="#739BC4" d="M482.583,418.5l8.66,5v10l-8.66,5l-8.661-5v-10L482.583,418.5z"/>
<path fill="#719AC3" d="M482.583,438.5l8.66,5v10l-8.66,5l-8.661-5v-10L482.583,438.5z"/>
<path fill="#001262" d="M482.583,458.5l8.66,5v10l-8.66,5l-8.661-5v-10L482.583,458.5z"/>
<path fill="#90AFD0" d="M482.583,478.5l8.66,5v10l-8.66,5l-8.661-5v-10L482.583,478.5z"/>
<path fill="#001765" d="M482.583,498.5l8.66,5v10l-8.66,5l-8.661-5v-10L482.583,498.5z"/>
<path fill="#0067A2" d="M482.583,518.5l8.66,5v10l-8.66,5l-8.661-5v-10L482.583,518.5z"/>
<path fill="#005B9A" d="M482.583,538.5l8.66,5v10l-8.66,5l-8.661-5v-10L482.583,538.5z"/>
<path fill="#005D9C" d="M482.583,558.5l8.66,5v10l-8.66,5l-8.661-5v-10L482.583,558.5z"/>
<path fill="#001E6A" d="M482.583,578.5l8.66,5v10l-8.66,5l-8.661-5v-10L482.583,578.5z"/>
<path fill="#4F87B7" d="M482.583,598.5l8.66,5v10l-8.66,5l-8.661-5v-10L482.583,598.5z"/>
<path fill="#001A67" d="M482.583,618.5l8.66,5v10l-8.66,5l-8.661-5v-10L482.583,618.5z"/>
<path fill="#002470" d="M482.583,638.5l8.66,5v10l-8.66,5l-8.661-5v-10L482.583,638.5z"/>
<path fill="#5E8EBC" d="M482.583,658.5l8.66,5v10l-8.66,5l-8.661-5v-10L482.583,658.5z"/>
<path fill="#001664" d="M482.583,678.5l8.66,5v10l-8.66,5l-8.661-5v-10L482.583,678.5z"/>
<path fill="#005B9A" d="M499.903,128.5l8.66,5v10l-8.66,5l-8.66-5v-10L499.903,128.5z"/>
<path fill="#85A7CB" d="M499.903,148.5l8.66,5v10l-8.66,5l-8.66-5v-10L499.903,148.5z"/>
<path fill="#00206C" d="M499.903,168.5l8.66,5v10l-8.66,5l-8.66-5v-10L499.903,168.5z"/>
<path fill="#001967" d="M499.903,188.5l8.66,5v10l-8.66,5l-8.66-5v-10L499.903,188.5z"/>
<path fill="#003C84" d="M499.903,208.5l8.66,5v10l-8.66,5l-8.66-5v-10L499.903,208.5z"/>
<path fill="#006DA7" d="M499.903,228.5l8.66,5v10l-8.66,5l-8.66-5v-10L499.903,228.5z"/>
<path fill="#000059" d="M499.903,248.5l8.66,5v10l-8.66,5l-8.66-5v-10L499.903,248.5z"/>
<path fill="#6190BD" d="M499.903,268.5l8.66,5v10l-8.66,5l-8.66-5v-10L499.903,268.5z"/>
<path fill="#004389" d="M499.903,288.5l8.66,5v10l-8.66,5l-8.66-5v-10L499.903,288.5z"/>
<path fill="#367BAF" d="M499.903,308.5l8.66,5v10l-8.66,5l-8.66-5v-10L499.903,308.5z"/>
<path fill="#00478C" d="M499.903,328.5l8.66,5v10l-8.66,5l-8.66-5v-10L499.903,328.5z"/>
<path fill="#00005A" d="M499.903,348.5l8.66,5v10l-8.66,5l-8.66-5v-10L499.903,348.5z"/>
<path fill="#002A75" d="M499.903,368.5l8.66,5v10l-8.66,5l-8.66-5v-10L499.903,368.5z"/>
<path fill="#00367F" d="M499.903,388.5l8.66,5v10l-8.66,5l-8.66-5v-10L499.903,388.5z"/>
<path fill="#001362" d="M499.903,408.5l8.66,5v10l-8.66,5l-8.66-5v-10L499.903,408.5z"/>
<path fill="#8EADCF" d="M499.903,428.5l8.66,5v10l-8.66,5l-8.66-5v-10L499.903,428.5z"/>
<path fill="#002672" d="M499.903,448.5l8.66,5v10l-8.66,5l-8.66-5v-10L499.903,448.5z"/>
<path fill="#003981" d="M499.903,468.5l8.66,5v10l-8.66,5l-8.66-5v-10L499.903,468.5z"/>
<path fill="#6C97C1" d="M499.903,488.5l8.66,5v10l-8.66,5l-8.66-5v-10L499.903,488.5z"/>
<path fill="#006BA5" d="M499.903,508.5l8.66,5v10l-8.66,5l-8.66-5v-10L499.903,508.5z"/>
<path fill="#006AA4" d="M499.903,528.5l8.66,5v10l-8.66,5l-8.66-5v-10L499.903,528.5z"/>
<path fill="#005F9D" d="M499.903,548.5l8.66,5v10l-8.66,5l-8.66-5v-10L499.903,548.5z"/>
<path fill="#003A82" d="M499.903,568.5l8.66,5v10l-8.66,5l-8.66-5v-10L499.903,568.5z"/>
<path fill="#3D7EB1" d="M499.903,588.5l8.66,5v10l-8.66,5l-8.66-5v-10L499.903,588.5z"/>
<path fill="#001866" d="M499.903,608.5l8.66,5v10l-8.66,5l-8.66-5v-10L499.903,608.5z"/>
<path fill="#002A76" d="M499.903,628.5l8.66,5v10l-8.66,5l-8.66-5v-10L499.903,628.5z"/>
<path fill="#003982" d="M499.903,648.5l8.66,5v10l-8.66,5l-8.66-5v-10L499.903,648.5z"/>
<path fill="#005596" d="M499.903,668.5l8.66,5v10l-8.66,5l-8.66-5v-10L499.903,668.5z"/>
<path fill="#00025B" d="M517.224,138.5l8.66,5v10l-8.66,5l-8.66-5v-10L517.224,138.5z"/>
<path fill="#0068A3" d="M517.224,158.5l8.66,5v10l-8.66,5l-8.66-5v-10L517.224,158.5z"/>
<path fill="#85A7CB" d="M517.224,178.5l8.66,5v10l-8.66,5l-8.66-5v-10L517.224,178.5z"/>
<path fill="#056FA8" d="M517.224,198.5l8.66,5v10l-8.66,5l-8.66-5v-10L517.224,198.5z"/>
<path fill="#1972AA" d="M517.224,218.5l8.66,5v10l-8.66,5l-8.66-5v-10L517.224,218.5z"/>
<path fill="#00216E" d="M517.224,238.5l8.66,5v10l-8.66,5l-8.66-5v-10L517.224,238.5z"/>
<path fill="#00337C" d="M517.224,258.5l8.66,5v10l-8.66,5l-8.66-5v-10L517.224,258.5z"/>
<path fill="#003F86" d="M517.224,278.5l8.66,5v10l-8.66,5l-8.66-5v-10L517.224,278.5z"/>
<path fill="#00498D" d="M517.224,298.5l8.66,5v10l-8.66,5l-8.66-5v-10L517.224,298.5z"/>
<path fill="#00206C" d="M517.224,318.5l8.66,5v10l-8.66,5l-8.66-5v-10L517.224,318.5z"/>
<path fill="#003A82" d="M517.224,338.5l8.66,5v10l-8.66,5l-8.66-5v-10L517.224,338.5z"/>
<path fill="#8DACCE" d="M517.224,358.5l8.66,5v10l-8.66,5l-8.66-5v-10L517.224,358.5z"/>
<path fill="#00206C" d="M517.224,378.5l8.66,5v10l-8.66,5l-8.66-5v-10L517.224,378.5z"/>
<path fill="#00498E" d="M517.224,398.5l8.66,5v10l-8.66,5l-8.66-5v-10L517.224,398.5z"/>
<path fill="#80A4C9" d="M517.224,418.5l8.66,5v10l-8.66,5l-8.66-5v-10L517.224,418.5z"/>
<path fill="#6F99C3" d="M517.224,438.5l8.66,5v10l-8.66,5l-8.66-5v-10L517.224,438.5z"/>
<path fill="#006EA7" d="M517.224,458.5l8.66,5v10l-8.66,5l-8.66-5v-10L517.224,458.5z"/>
<path fill="#00206C" d="M517.224,478.5l8.66,5v10l-8.66,5l-8.66-5v-10L517.224,478.5z"/>
<path fill="#00075D" d="M517.224,498.5l8.66,5v10l-8.66,5l-8.66-5v-10L517.224,498.5z"/>
<path fill="#002A76" d="M517.224,518.5l8.66,5v10l-8.66,5l-8.66-5v-10L517.224,518.5z"/>
<path fill="#005D9C" d="M517.224,538.5l8.66,5v10l-8.66,5l-8.66-5v-10L517.224,538.5z"/>
<path fill="#005999" d="M517.224,558.5l8.66,5v10l-8.66,5l-8.66-5v-10L517.224,558.5z"/>
<path fill="#00065D" d="M517.224,578.5l8.66,5v10l-8.66,5l-8.66-5v-10L517.224,578.5z"/>
<path fill="#002E79" d="M517.224,598.5l8.66,5v10l-8.66,5l-8.66-5v-10L517.224,598.5z"/>
<path fill="#5E8FBC" d="M517.224,618.5l8.66,5v10l-8.66,5l-8.66-5v-10L517.224,618.5z"/>
<path fill="#005093" d="M517.224,638.5l8.66,5v10l-8.66,5l-8.66-5v-10L517.224,638.5z"/>
<path fill="#006CA6" d="M517.224,658.5l8.66,5v10l-8.66,5l-8.66-5v-10L517.224,658.5z"/>
<path fill="#005495" d="M534.544,148.5l8.66,5v10l-8.66,5l-8.66-5v-10L534.544,148.5z"/>
<path fill="#001F6B" d="M534.544,168.5l8.66,5v10l-8.66,5l-8.66-5v-10L534.544,168.5z"/>
<path fill="#749CC4" d="M534.544,188.5l8.66,5v10l-8.66,5l-8.66-5v-10L534.544,188.5z"/>
<path fill="#85A7CB" d="M534.544,208.5l8.66,5v10l-8.66,5l-8.66-5v-10L534.544,208.5z"/>
<path fill="#004D90" d="M534.544,228.5l8.66,5v10l-8.66,5l-8.66-5v-10L534.544,228.5z"/>
<path fill="#89AACD" d="M534.544,248.5l8.66,5v10l-8.66,5l-8.66-5v-10L534.544,248.5z"/>
<path fill="#001564" d="M534.544,268.5l8.66,5v10l-8.66,5l-8.66-5v-10L534.544,268.5z"/>
<path fill="#00075D" d="M534.544,288.5l8.66,5v10l-8.66,5l-8.66-5v-10L534.544,288.5z"/>
<path fill="#001C69" d="M534.544,308.5l8.66,5v10l-8.66,5l-8.66-5v-10L534.544,308.5z"/>
<path fill="#006BA5" d="M534.544,328.5l8.66,5v10l-8.66,5l-8.66-5v-10L534.544,328.5z"/>
<path fill="#00337D" d="M534.544,348.5l8.66,5v10l-8.66,5l-8.66-5v-10L534.544,348.5z"/>
<path fill="#95B2D2" d="M534.544,368.5l8.66,5v10l-8.66,5l-8.66-5v-10L534.544,368.5z"/>
<path fill="#00055C" d="M534.544,388.5l8.66,5v10l-8.66,5l-8.66-5v-10L534.544,388.5z"/>
<path fill="#001262" d="M534.544,408.5l8.66,5v10l-8.66,5l-8.66-5v-10L534.544,408.5z"/>
<path fill="#002C77" d="M534.544,428.5l8.66,5v10l-8.66,5l-8.66-5v-10L534.544,428.5z"/>
<path fill="#003881" d="M534.544,448.5l8.66,5v10l-8.66,5l-8.66-5v-10L534.544,448.5z"/>
<path fill="#003881" d="M534.544,468.5l8.66,5v10l-8.66,5l-8.66-5v-10L534.544,468.5z"/>
<path fill="#00206C" d="M534.544,488.5l8.66,5v10l-8.66,5l-8.66-5v-10L534.544,488.5z"/>
<path fill="#A1BAD7" d="M534.544,508.5l8.66,5v10l-8.66,5l-8.66-5v-10L534.544,508.5z"/>
<path fill="#005B9A" d="M534.544,528.5l8.66,5v10l-8.66,5l-8.66-5v-10L534.544,528.5z"/>
<path fill="#00327C" d="M534.544,548.5l8.66,5v10l-8.66,5l-8.66-5v-10L534.544,548.5z"/>
<path fill="#005092" d="M534.544,568.5l8.66,5v10l-8.66,5l-8.66-5v-10L534.544,568.5z"/>
<path fill="#A5BDD8" d="M534.544,588.5l8.66,5v10l-8.66,5l-8.66-5v-10L534.544,588.5z"/>
<path fill="#A3BBD7" d="M534.544,608.5l8.66,5v10l-8.66,5l-8.66-5v-10L534.544,608.5z"/>
<path fill="#92B0D1" d="M534.544,628.5l8.66,5v10l-8.66,5l-8.66-5v-10L534.544,628.5z"/>
<path fill="#004C8F" d="M534.544,648.5l8.66,5v10l-8.66,5l-8.66-5v-10L534.544,648.5z"/>
<path fill="#005D9B" d="M551.864,158.5l8.661,5v10l-8.661,5l-8.66-5v-10L551.864,158.5z"/>
<path fill="#00347E" d="M551.864,178.5l8.661,5v10l-8.661,5l-8.66-5v-10L551.864,178.5z"/>
<path fill="#002873" d="M551.864,198.5l8.661,5v10l-8.661,5l-8.66-5v-10L551.864,198.5z"/>
<path fill="#005092" d="M551.864,218.5l8.661,5v10l-8.661,5l-8.66-5v-10L551.864,218.5z"/>
<path fill="#00448A" d="M551.864,238.5l8.661,5v10l-8.661,5l-8.66-5v-10L551.864,238.5z"/>
<path fill="#5F90BD" d="M551.864,258.5l8.661,5v10l-8.661,5l-8.66-5v-10L551.864,258.5z"/>
<path fill="#A6BED9" d="M551.864,278.5l8.661,5v10l-8.661,5l-8.66-5v-10L551.864,278.5z"/>
<path fill="#005E9C" d="M551.864,298.5l8.661,5v10l-8.661,5l-8.66-5v-10L551.864,298.5z"/>
<path fill="#00065C" d="M551.864,318.5l8.661,5v10l-8.661,5l-8.66-5v-10L551.864,318.5z"/>
<path fill="#002C78" d="M551.864,338.5l8.661,5v10l-8.661,5l-8.66-5v-10L551.864,338.5z"/>
<path fill="#001966" d="M551.864,358.5l8.661,5v10l-8.661,5l-8.66-5v-10L551.864,358.5z"/>
<path fill="#002571" d="M551.864,378.5l8.661,5v10l-8.661,5l-8.66-5v-10L551.864,378.5z"/>
<path fill="#97B3D2" d="M551.864,398.5l8.661,5v10l-8.661,5l-8.66-5v-10L551.864,398.5z"/>
<path fill="#001B68" d="M551.864,418.5l8.661,5v10l-8.661,5l-8.66-5v-10L551.864,418.5z"/>
<path fill="#6593BF" d="M551.864,438.5l8.661,5v10l-8.661,5l-8.66-5v-10L551.864,438.5z"/>
<path fill="#81A5CA" d="M551.864,458.5l8.661,5v10l-8.661,5l-8.66-5v-10L551.864,458.5z"/>
<path fill="#558AB9" d="M551.864,478.5l8.661,5v10l-8.661,5l-8.66-5v-10L551.864,478.5z"/>
<path fill="#2976AC" d="M551.864,498.5l8.661,5v10l-8.661,5l-8.66-5v-10L551.864,498.5z"/>
<path fill="#00095E" d="M551.864,518.5l8.661,5v10l-8.661,5l-8.66-5v-10L551.864,518.5z"/>
<path fill="#002773" d="M551.864,538.5l8.661,5v10l-8.661,5l-8.66-5v-10L551.864,538.5z"/>
<path fill="#00005A" d="M551.864,558.5l8.661,5v10l-8.661,5l-8.66-5v-10L551.864,558.5z"/>
<path fill="#A0B9D6" d="M551.864,578.5l8.661,5v10l-8.661,5l-8.66-5v-10L551.864,578.5z"/>
<path fill="#004288" d="M551.864,598.5l8.661,5v10l-8.661,5l-8.66-5v-10L551.864,598.5z"/>
<path fill="#00005A" d="M551.864,618.5l8.661,5v10l-8.661,5l-8.66-5v-10L551.864,618.5z"/>
<path fill="#387CB0" d="M551.864,638.5l8.661,5v10l-8.661,5l-8.66-5v-10L551.864,638.5z"/>
<path fill="#004289" d="M569.186,168.5l8.66,5v10l-8.66,5l-8.66-5v-10L569.186,168.5z"/>
<path fill="#96B2D2" d="M569.186,188.5l8.66,5v10l-8.66,5l-8.66-5v-10L569.186,188.5z"/>
<path fill="#7BA0C7" d="M569.186,208.5l8.66,5v10l-8.66,5l-8.66-5v-10L569.186,208.5z"/>
<path fill="#006AA4" d="M569.186,228.5l8.66,5v10l-8.66,5l-8.66-5v-10L569.186,228.5z"/>
<path fill="#00045C" d="M569.186,248.5l8.66,5v10l-8.66,5l-8.66-5v-10L569.186,248.5z"/>
<path fill="#005E9C" d="M569.186,268.5l8.66,5v10l-8.66,5l-8.66-5v-10L569.186,268.5z"/>
<path fill="#005898" d="M569.186,288.5l8.66,5v10l-8.66,5l-8.66-5v-10L569.186,288.5z"/>
<path fill="#93B0D1" d="M569.186,308.5l8.66,5v10l-8.66,5l-8.66-5v-10L569.186,308.5z"/>
<path fill="#002470" d="M569.186,328.5l8.66,5v10l-8.66,5l-8.66-5v-10L569.186,328.5z"/>
<path fill="#006CA6" d="M569.186,348.5l8.66,5v10l-8.66,5l-8.66-5v-10L569.186,348.5z"/>
<path fill="#005F9D" d="M569.186,368.5l8.66,5v10l-8.66,5l-8.66-5v-10L569.186,368.5z"/>
<path fill="#A2BAD7" d="M569.186,388.5l8.66,5v10l-8.66,5l-8.66-5v-10L569.186,388.5z"/>
<path fill="#00357E" d="M569.186,408.5l8.66,5v10l-8.66,5l-8.66-5v-10L569.186,408.5z"/>
<path fill="#94B1D1" d="M569.186,428.5l8.66,5v10l-8.66,5l-8.66-5v-10L569.186,428.5z"/>
<path fill="#005F9D" d="M569.186,448.5l8.66,5v10l-8.66,5l-8.66-5v-10L569.186,448.5z"/>
<path fill="#5E8FBC" d="M569.186,468.5l8.66,5v10l-8.66,5l-8.66-5v-10L569.186,468.5z"/>
<path fill="#002A75" d="M569.186,488.5l8.66,5v10l-8.66,5l-8.66-5v-10L569.186,488.5z"/>
<path fill="#005193" d="M569.186,508.5l8.66,5v10l-8.66,5l-8.66-5v-10L569.186,508.5z"/>
<path fill="#00468B" d="M569.186,528.5l8.66,5v10l-8.66,5l-8.66-5v-10L569.186,528.5z"/>
<path fill="#001664" d="M569.186,548.5l8.66,5v10l-8.66,5l-8.66-5v-10L569.186,548.5z"/>
<path fill="#005294" d="M569.186,568.5l8.66,5v10l-8.66,5l-8.66-5v-10L569.186,568.5z"/>
<path fill="#89AACD" d="M569.186,588.5l8.66,5v10l-8.66,5l-8.66-5v-10L569.186,588.5z"/>
<path fill="#0063A0" d="M569.186,608.5l8.66,5v10l-8.66,5l-8.66-5v-10L569.186,608.5z"/>
<path fill="#002470" d="M569.186,628.5l8.66,5v10l-8.66,5l-8.66-5v-10L569.186,628.5z"/>
<path fill="#578BBA" d="M586.506,178.5l8.66,5v10l-8.66,5l-8.66-5v-10L586.506,178.5z"/>
<path fill="#004C90" d="M586.506,198.5l8.66,5v10l-8.66,5l-8.66-5v-10L586.506,198.5z"/>
<path fill="#00337D" d="M586.506,218.5l8.66,5v10l-8.66,5l-8.66-5v-10L586.506,218.5z"/>
<path fill="#6B97C1" d="M586.506,238.5l8.66,5v10l-8.66,5l-8.66-5v-10L586.506,238.5z"/>
<path fill="#000059" d="M586.506,258.5l8.66,5v10l-8.66,5l-8.66-5v-10L586.506,258.5z"/>
<path fill="#001463" d="M586.506,278.5l8.66,5v10l-8.66,5l-8.66-5v-10L586.506,278.5z"/>
<path fill="#357BAF" d="M586.506,298.5l8.66,5v10l-8.66,5l-8.66-5v-10L586.506,298.5z"/>
<path fill="#002571" d="M586.506,318.5l8.66,5v10l-8.66,5l-8.66-5v-10L586.506,318.5z"/>
<path fill="#003982" d="M586.506,338.5l8.66,5v10l-8.66,5l-8.66-5v-10L586.506,338.5z"/>
<path fill="#93B0D1" d="M586.506,358.5l8.66,5v10l-8.66,5l-8.66-5v-10L586.506,358.5z"/>
<path fill="#005C9B" d="M586.506,378.5l8.66,5v10l-8.66,5l-8.66-5v-10L586.506,378.5z"/>
<path fill="#7CA1C8" d="M586.506,398.5l8.66,5v10l-8.66,5l-8.66-5v-10L586.506,398.5z"/>
<path fill="#00206C" d="M586.506,418.5l8.66,5v10l-8.66,5l-8.66-5v-10L586.506,418.5z"/>
<path fill="#00619E" d="M586.506,438.5l8.66,5v10l-8.66,5l-8.66-5v-10L586.506,438.5z"/>
<path fill="#88A9CC" d="M586.506,458.5l8.66,5v10l-8.66,5l-8.66-5v-10L586.506,458.5z"/>
<path fill="#8CABCE" d="M586.506,478.5l8.66,5v10l-8.66,5l-8.66-5v-10L586.506,478.5z"/>
<path fill="#005D9B" d="M586.506,498.5l8.66,5v10l-8.66,5l-8.66-5v-10L586.506,498.5z"/>
<path fill="#00055C" d="M586.506,518.5l8.66,5v10l-8.66,5l-8.66-5v-10L586.506,518.5z"/>
<path fill="#4983B5" d="M586.506,538.5l8.66,5v10l-8.66,5l-8.66-5v-10L586.506,538.5z"/>
<path fill="#0067A2" d="M586.506,558.5l8.66,5v10l-8.66,5l-8.66-5v-10L586.506,558.5z"/>
<path fill="#001664" d="M586.506,578.5l8.66,5v10l-8.66,5l-8.66-5v-10L586.506,578.5z"/>
<path fill="#3A7DB0" d="M586.506,598.5l8.66,5v10l-8.66,5l-8.66-5v-10L586.506,598.5z"/>
<path fill="#005294" d="M586.506,618.5l8.66,5v10l-8.66,5l-8.66-5v-10L586.506,618.5z"/>
<path fill="#8DACCE" d="M603.826,188.5l8.66,5v10l-8.66,5l-8.66-5v-10L603.826,188.5z"/>
<path fill="#00055C" d="M603.826,208.5l8.66,5v10l-8.66,5l-8.66-5v-10L603.826,208.5z"/>
<path fill="#005F9D" d="M603.826,228.5l8.66,5v10l-8.66,5l-8.66-5v-10L603.826,228.5z"/>
<path fill="#2876AC" d="M603.826,248.5l8.66,5v10l-8.66,5l-8.66-5v-10L603.826,248.5z"/>
<path fill="#7DA2C8" d="M603.826,268.5l8.66,5v10l-8.66,5l-8.66-5v-10L603.826,268.5z"/>
<path fill="#4582B4" d="M603.826,288.5l8.66,5v10l-8.66,5l-8.66-5v-10L603.826,288.5z"/>
<path fill="#6995C0" d="M603.826,308.5l8.66,5v10l-8.66,5l-8.66-5v-10L603.826,308.5z"/>
<path fill="#002672" d="M603.826,328.5l8.66,5v10l-8.66,5l-8.66-5v-10L603.826,328.5z"/>
<path fill="#005B9A" d="M603.826,348.5l8.66,5v10l-8.66,5l-8.66-5v-10L603.826,348.5z"/>
<path fill="#8EADCF" d="M603.826,368.5l8.66,5v10l-8.66,5l-8.66-5v-10L603.826,368.5z"/>
<path fill="#5C8EBB" d="M603.826,388.5l8.66,5v10l-8.66,5l-8.66-5v-10L603.826,388.5z"/>
<path fill="#9CB7D5" d="M603.826,408.5l8.66,5v10l-8.66,5l-8.66-5v-10L603.826,408.5z"/>
<path fill="#8BABCD" d="M603.826,428.5l8.66,5v10l-8.66,5l-8.66-5v-10L603.826,428.5z"/>
<path fill="#005B9A" d="M603.826,448.5l8.66,5v10l-8.66,5l-8.66-5v-10L603.826,448.5z"/>
<path fill="#001061" d="M603.826,468.5l8.66,5v10l-8.66,5l-8.66-5v-10L603.826,468.5z"/>
<path fill="#003881" d="M603.826,488.5l8.66,5v10l-8.66,5l-8.66-5v-10L603.826,488.5z"/>
<path fill="#5A8DBB" d="M603.826,508.5l8.66,5v10l-8.66,5l-8.66-5v-10L603.826,508.5z"/>
<path fill="#002A75" d="M603.826,528.5l8.66,5v10l-8.66,5l-8.66-5v-10L603.826,528.5z"/>
<path fill="#00045C" d="M603.826,548.5l8.66,5v10l-8.66,5l-8.66-5v-10L603.826,548.5z"/>
<path fill="#001061" d="M603.826,568.5l8.66,5v10l-8.66,5l-8.66-5v-10L603.826,568.5z"/>
<path fill="#001B68" d="M603.826,588.5l8.66,5v10l-8.66,5l-8.66-5v-10L603.826,588.5z"/>
<path fill="#006BA5" d="M603.826,608.5l8.66,5v10l-8.66,5l-8.66-5v-10L603.826,608.5z"/>
<path fill="#00025B" d="M621.146,198.5l8.66,5v10l-8.66,5l-8.66-5v-10L621.146,198.5z"/>
<path fill="#7AA0C7" d="M621.146,218.5l8.66,5v10l-8.66,5l-8.66-5v-10L621.146,218.5z"/>
<path fill="#4180B2" d="M621.146,238.5l8.66,5v10l-8.66,5l-8.66-5v-10L621.146,238.5z"/>
<path fill="#005395" d="M621.146,258.5l8.66,5v10l-8.66,5l-8.66-5v-10L621.146,258.5z"/>
<path fill="#2C77AD" d="M621.146,278.5l8.66,5v10l-8.66,5l-8.66-5v-10L621.146,278.5z"/>
<path fill="#002873" d="M621.146,298.5l8.66,5v10l-8.66,5l-8.66-5v-10L621.146,298.5z"/>
<path fill="#002E79" d="M621.146,318.5l8.66,5v10l-8.66,5l-8.66-5v-10L621.146,318.5z"/>
<path fill="#000059" d="M621.146,338.5l8.66,5v10l-8.66,5l-8.66-5v-10L621.146,338.5z"/>
<path fill="#004389" d="M621.146,358.5l8.66,5v10l-8.66,5l-8.66-5v-10L621.146,358.5z"/>
<path fill="#005395" d="M621.146,378.5l8.66,5v10l-8.66,5l-8.66-5v-10L621.146,378.5z"/>
<path fill="#98B4D3" d="M621.146,398.5l8.66,5v10l-8.66,5l-8.66-5v-10L621.146,398.5z"/>
<path fill="#003F86" d="M621.146,418.5l8.66,5v10l-8.66,5l-8.66-5v-10L621.146,418.5z"/>
<path fill="#00035B" d="M621.146,438.5l8.66,5v10l-8.66,5l-8.66-5v-10L621.146,438.5z"/>
<path fill="#0F70A8" d="M621.146,458.5l8.66,5v10l-8.66,5l-8.66-5v-10L621.146,458.5z"/>
<path fill="#85A7CB" d="M621.146,478.5l8.66,5v10l-8.66,5l-8.66-5v-10L621.146,478.5z"/>
<path fill="#82A5CA" d="M621.146,498.5l8.66,5v10l-8.66,5l-8.66-5v-10L621.146,498.5z"/>
<path fill="#A7BED9" d="M621.146,518.5l8.66,5v10l-8.66,5l-8.66-5v-10L621.146,518.5z"/>
<path fill="#00226E" d="M621.146,538.5l8.66,5v10l-8.66,5l-8.66-5v-10L621.146,538.5z"/>
<path fill="#89AACD" d="M621.146,558.5l8.66,5v10l-8.66,5l-8.66-5v-10L621.146,558.5z"/>
<path fill="#006DA6" d="M621.146,578.5l8.66,5v10l-8.66,5l-8.66-5v-10L621.146,578.5z"/>
<path fill="#001D6A" d="M621.146,598.5l8.66,5v10l-8.66,5l-8.66-5v-10L621.146,598.5z"/>
<path fill="#00206C" d="M638.467,208.5l8.661,5v10l-8.661,5l-8.66-5v-10L638.467,208.5z"/>
<path fill="#6F99C3" d="M638.467,228.5l8.661,5v10l-8.661,5l-8.66-5v-10L638.467,228.5z"/>
<path fill="#003881" d="M638.467,248.5l8.661,5v10l-8.661,5l-8.66-5v-10L638.467,248.5z"/>
<path fill="#94B1D1" d="M638.467,268.5l8.661,5v10l-8.661,5l-8.66-5v-10L638.467,268.5z"/>
<path fill="#4F87B7" d="M638.467,288.5l8.661,5v10l-8.661,5l-8.66-5v-10L638.467,288.5z"/>
<path fill="#00448A" d="M638.467,308.5l8.661,5v10l-8.661,5l-8.66-5v-10L638.467,308.5z"/>
<path fill="#002773" d="M638.467,328.5l8.661,5v10l-8.661,5l-8.66-5v-10L638.467,328.5z"/>
<path fill="#00347E" d="M638.467,348.5l8.661,5v10l-8.661,5l-8.66-5v-10L638.467,348.5z"/>
<path fill="#002571" d="M638.467,368.5l8.661,5v10l-8.661,5l-8.66-5v-10L638.467,368.5z"/>
<path fill="#4581B4" d="M638.467,388.5l8.661,5v10l-8.661,5l-8.66-5v-10L638.467,388.5z"/>
<path fill="#00347E" d="M638.467,408.5l8.661,5v10l-8.661,5l-8.66-5v-10L638.467,408.5z"/>
<path fill="#00488D" d="M638.467,428.5l8.661,5v10l-8.661,5l-8.66-5v-10L638.467,428.5z"/>
<path fill="#001F6B" d="M638.467,448.5l8.661,5v10l-8.661,5l-8.66-5v-10L638.467,448.5z"/>
<path fill="#6995C0" d="M638.467,468.5l8.661,5v10l-8.661,5l-8.66-5v-10L638.467,468.5z"/>
<path fill="#00639F" d="M638.467,488.5l8.661,5v10l-8.661,5l-8.66-5v-10L638.467,488.5z"/>
<path fill="#000E60" d="M638.467,508.5l8.661,5v10l-8.661,5l-8.66-5v-10L638.467,508.5z"/>
<path fill="#001F6B" d="M638.467,528.5l8.661,5v10l-8.661,5l-8.66-5v-10L638.467,528.5z"/>
<path fill="#002C77" d="M638.467,548.5l8.661,5v10l-8.661,5l-8.66-5v-10L638.467,548.5z"/>
<path fill="#85A7CB" d="M638.467,568.5l8.661,5v10l-8.661,5l-8.66-5v-10L638.467,568.5z"/>
<path fill="#0069A4" d="M638.467,588.5l8.661,5v10l-8.661,5l-8.66-5v-10L638.467,588.5z"/>
<path fill="#6D98C2" d="M655.788,218.5l8.66,5v10l-8.66,5l-8.661-5v-10L655.788,218.5z"/>
<path fill="#96B3D2" d="M655.788,238.5l8.66,5v10l-8.66,5l-8.661-5v-10L655.788,238.5z"/>
<path fill="#4983B5" d="M655.788,258.5l8.66,5v10l-8.66,5l-8.661-5v-10L655.788,258.5z"/>
<path fill="#005697" d="M655.788,278.5l8.66,5v10l-8.66,5l-8.661-5v-10L655.788,278.5z"/>
<path fill="#5D8EBC" d="M655.788,298.5l8.66,5v10l-8.66,5l-8.661-5v-10L655.788,298.5z"/>
<path fill="#002A75" d="M655.788,318.5l8.66,5v10l-8.66,5l-8.661-5v-10L655.788,318.5z"/>
<path fill="#739BC4" d="M655.788,338.5l8.66,5v10l-8.66,5l-8.661-5v-10L655.788,338.5z"/>
<path fill="#1E73AA" d="M655.788,358.5l8.66,5v10l-8.66,5l-8.661-5v-10L655.788,358.5z"/>
<path fill="#006AA5" d="M655.788,378.5l8.66,5v10l-8.66,5l-8.661-5v-10L655.788,378.5z"/>
<path fill="#588BBA" d="M655.788,398.5l8.66,5v10l-8.66,5l-8.661-5v-10L655.788,398.5z"/>
<path fill="#82A5CA" d="M655.788,418.5l8.66,5v10l-8.66,5l-8.661-5v-10L655.788,418.5z"/>
<path fill="#A6BED9" d="M655.788,438.5l8.66,5v10l-8.66,5l-8.661-5v-10L655.788,438.5z"/>
<path fill="#387CB0" d="M655.788,458.5l8.66,5v10l-8.66,5l-8.661-5v-10L655.788,458.5z"/>
<path fill="#3D7EB1" d="M655.788,478.5l8.66,5v10l-8.66,5l-8.661-5v-10L655.788,478.5z"/>
<path fill="#8DACCE" d="M655.788,498.5l8.66,5v10l-8.66,5l-8.661-5v-10L655.788,498.5z"/>
<path fill="#000A5E" d="M655.788,518.5l8.66,5v10l-8.66,5l-8.661-5v-10L655.788,518.5z"/>
<path fill="#4B85B6" d="M655.788,538.5l8.66,5v10l-8.66,5l-8.661-5v-10L655.788,538.5z"/>
<path fill="#8EADCF" d="M655.788,558.5l8.66,5v10l-8.66,5l-8.661-5v-10L655.788,558.5z"/>
<path fill="#00478C" d="M655.788,578.5l8.66,5v10l-8.66,5l-8.661-5v-10L655.788,578.5z"/>
<path fill="#00629F" d="M673.108,228.5l8.66,5v10l-8.66,5l-8.66-5v-10L673.108,228.5z"/>
<path fill="#A5BDD8" d="M673.108,248.5l8.66,5v10l-8.66,5l-8.66-5v-10L673.108,248.5z"/>
<path fill="#001C68" d="M673.108,268.5l8.66,5v10l-8.66,5l-8.66-5v-10L673.108,268.5z"/>
<path fill="#005999" d="M673.108,288.5l8.66,5v10l-8.66,5l-8.66-5v-10L673.108,288.5z"/>
<path fill="#001362" d="M673.108,308.5l8.66,5v10l-8.66,5l-8.66-5v-10L673.108,308.5z"/>
<path fill="#001664" d="M673.108,328.5l8.66,5v10l-8.66,5l-8.66-5v-10L673.108,328.5z"/>
<path fill="#89AACD" d="M673.108,348.5l8.66,5v10l-8.66,5l-8.66-5v-10L673.108,348.5z"/>
<path fill="#2475AB" d="M673.108,368.5l8.66,5v10l-8.66,5l-8.66-5v-10L673.108,368.5z"/>
<path fill="#91AFD0" d="M673.108,388.5l8.66,5v10l-8.66,5l-8.66-5v-10L673.108,388.5z"/>
<path fill="#002470" d="M673.108,408.5l8.66,5v10l-8.66,5l-8.66-5v-10L673.108,408.5z"/>
<path fill="#8BABCE" d="M673.108,428.5l8.66,5v10l-8.66,5l-8.66-5v-10L673.108,428.5z"/>
<path fill="#001262" d="M673.108,448.5l8.66,5v10l-8.66,5l-8.66-5v-10L673.108,448.5z"/>
<path fill="#003780" d="M673.108,468.5l8.66,5v10l-8.66,5l-8.66-5v-10L673.108,468.5z"/>
<path fill="#002B76" d="M673.108,488.5l8.66,5v10l-8.66,5l-8.66-5v-10L673.108,488.5z"/>
<path fill="#81A4C9" d="M673.108,508.5l8.66,5v10l-8.66,5l-8.66-5v-10L673.108,508.5z"/>
<path fill="#6392BE" d="M673.108,528.5l8.66,5v10l-8.66,5l-8.66-5v-10L673.108,528.5z"/>
<path fill="#004288" d="M673.108,548.5l8.66,5v10l-8.66,5l-8.66-5v-10L673.108,548.5z"/>
<path fill="#759DC5" d="M673.108,568.5l8.66,5v10l-8.66,5l-8.66-5v-10L673.108,568.5z"/>
</svg>
