<svg height="2000" width="960">
	<g transform="translate(40,20)">
		<g>
			<path class="hexagon" d="m0,-30l25.98076211353316,15l7.105427357601002e-15,29.999999999999993l-25.980762113533157,15.000000000000009l-25.980762113533164,-14.999999999999984l-2.1316282072803006e-14,-29.999999999999996l25.98076211353314,-15.00000000000002z" style="fill: rgb(35, 116, 171);" transform="translate(149.9038105676658,20)"/>
			<path class="hexagon" d="m0,-30l25.98076211353316,15l7.105427357601002e-15,29.999999999999993l-25.980762113533157,15.000000000000009l-25.980762113533164,-14.999999999999984l-2.1316282072803006e-14,-29.999999999999996l25.98076211353314,-15.00000000000002z" style="fill: rgb(0, 78, 145);" transform="translate(206.1954618136543,20)"/>
			<path class="hexagon" d="m0,-30l25.98076211353316,15l7.105427357601002e-15,29.999999999999993l-25.980762113533157,15.000000000000009l-25.980762113533164,-14.999999999999984l-2.1316282072803006e-14,-29.999999999999996l25.98076211353314,-15.00000000000002z" style="fill: rgb(45, 120, 173);" transform="translate(262.4871130596428,20)"/>
			<path class="hexagon" d="m0,-30l25.98076211353316,15l7.105427357601002e-15,29.999999999999993l-25.980762113533157,15.000000000000009l-25.980762113533164,-14.999999999999984l-2.1316282072803006e-14,-29.999999999999996l25.98076211353314,-15.00000000000002z" style="fill: rgb(0, 99, 160);" transform="translate(318.77876430563134,20)"/>
			<path class="hexagon" d="m0,-30l25.98076211353316,15l7.105427357601002e-15,29.999999999999993l-25.980762113533157,15.000000000000009l-25.980762113533164,-14.999999999999984l-2.1316282072803006e-14,-29.999999999999996l25.98076211353314,-15.00000000000002z" style="fill: rgb(0, 58, 130);" transform="translate(375.0704155516199,20)"/>
			<path class="hexagon" d="m0,-30l25.98076211353316,15l7.105427357601002e-15,29.999999999999993l-25.980762113533157,15.000000000000009l-25.980762113533164,-14.999999999999984l-2.1316282072803006e-14,-29.999999999999996l25.98076211353314,-15.00000000000002z" style="fill: rgb(0, 0, 89);" transform="translate(431.36206679760835,20)"/>
			<path class="hexagon" d="m0,-30l25.98076211353316,15l7.105427357601002e-15,29.999999999999993l-25.980762113533157,15.000000000000009l-25.980762113533164,-14.999999999999984l-2.1316282072803006e-14,-29.999999999999996l25.98076211353314,-15.00000000000002z" style="fill: rgb(81, 135, 183);" transform="translate(123.92304845413264,69.49747468305833)"/>
			<path class="hexagon" d="m0,-30l25.98076211353316,15l7.105427357601002e-15,29.999999999999993l-25.980762113533157,15.000000000000009l-25.980762113533164,-14.999999999999984l-2.1316282072803006e-14,-29.999999999999996l25.98076211353314,-15.00000000000002z" style="fill: rgb(0, 19, 99);" transform="translate(180.21469970012114,69.49747468305833)"/>
			<path class="hexagon" d="m0,-30l25.98076211353316,15l7.105427357601002e-15,29.999999999999993l-25.980762113533157,15.000000000000009l-25.980762113533164,-14.999999999999984l-2.1316282072803006e-14,-29.999999999999996l25.98076211353314,-15.00000000000002z" style="fill: rgb(0, 68, 137);" transform="translate(236.50635094610968,69.49747468305833)"/>
			<path class="hexagon" d="m0,-30l25.98076211353316,15l7.105427357601002e-15,29.999999999999993l-25.980762113533157,15.000000000000009l-25.980762113533164,-14.999999999999984l-2.1316282072803006e-14,-29.999999999999996l25.98076211353314,-15.00000000000002z" style="fill: rgb(0, 31, 107);" transform="translate(292.7980021920982,69.49747468305833)"/>
			<path class="hexagon" d="m0,-30l25.98076211353316,15l7.105427357601002e-15,29.999999999999993l-25.980762113533157,15.000000000000009l-25.980762113533164,-14.999999999999984l-2.1316282072803006e-14,-29.999999999999996l25.98076211353314,-15.00000000000002z" style="fill: rgb(0, 0, 89);" transform="translate(349.0896534380867,69.49747468305833)"/>
			<path class="hexagon" d="m0,-30l25.98076211353316,15l7.105427357601002e-15,29.999999999999993l-25.980762113533157,15.000000000000009l-25.980762113533164,-14.999999999999984l-2.1316282072803006e-14,-29.999999999999996l25.98076211353314,-15.00000000000002z" style="fill: rgb(0, 33, 109);" transform="translate(405.3813046840752,69.49747468305833)"/>
			<path class="hexagon" d="m0,-30l25.98076211353316,15l7.105427357601002e-15,29.999999999999993l-25.980762113533157,15.000000000000009l-25.980762113533164,-14.999999999999984l-2.1316282072803006e-14,-29.999999999999996l25.98076211353314,-15.00000000000002z" style="fill: rgb(61, 126, 177);" transform="translate(461.6729559300637,69.49747468305833)"/>
			<path class="hexagon" d="m0,-30l25.98076211353316,15l7.105427357601002e-15,29.999999999999993l-25.980762113533157,15.000000000000009l-25.980762113533164,-14.999999999999984l-2.1316282072803006e-14,-29.999999999999996l25.98076211353314,-15.00000000000002z" style="fill: rgb(0, 80, 146);" transform="translate(97.94228634059948,118.99494936611664)"/>
			<path class="hexagon" d="m0,-30l25.98076211353316,15l7.105427357601002e-15,29.999999999999993l-25.980762113533157,15.000000000000009l-25.980762113533164,-14.999999999999984l-2.1316282072803006e-14,-29.999999999999996l25.98076211353314,-15.00000000000002z" style="fill: rgb(162, 187, 215);" transform="translate(154.23393758658798,118.99494936611664)"/>
			<path class="hexagon" d="m0,-30l25.98076211353316,15l7.105427357601002e-15,29.999999999999993l-25.980762113533157,15.000000000000009l-25.980762113533164,-14.999999999999984l-2.1316282072803006e-14,-29.999999999999996l25.98076211353314,-15.00000000000002z" style="fill: rgb(0, 22, 100);" transform="translate(210.52558883257652,118.99494936611664)"/>
			<path class="hexagon" d="m0,-30l25.98076211353316,15l7.105427357601002e-15,29.999999999999993l-25.980762113533157,15.000000000000009l-25.980762113533164,-14.999999999999984l-2.1316282072803006e-14,-29.999999999999996l25.98076211353314,-15.00000000000002z" style="fill: rgb(0, 96, 158);" transform="translate(266.817240078565,118.99494936611664)"/>
			<path class="hexagon" d="m0,-30l25.98076211353316,15l7.105427357601002e-15,29.999999999999993l-25.980762113533157,15.000000000000009l-25.980762113533164,-14.999999999999984l-2.1316282072803006e-14,-29.999999999999996l25.98076211353314,-15.00000000000002z" style="fill: rgb(0, 71, 140);" transform="translate(323.10889132455355,118.99494936611664)"/>
			<path class="hexagon" d="m0,-30l25.98076211353316,15l7.105427357601002e-15,29.999999999999993l-25.980762113533157,15.000000000000009l-25.980762113533164,-14.999999999999984l-2.1316282072803006e-14,-29.999999999999996l25.98076211353314,-15.00000000000002z" style="fill: rgb(0, 31, 108);" transform="translate(379.40054257054203,118.99494936611664)"/>
			<path class="hexagon" d="m0,-30l25.98076211353316,15l7.105427357601002e-15,29.999999999999993l-25.980762113533157,15.000000000000009l-25.980762113533164,-14.999999999999984l-2.1316282072803006e-14,-29.999999999999996l25.98076211353314,-15.00000000000002z" style="fill: rgb(0, 4, 92);" transform="translate(435.69219381653056,118.99494936611664)"/>
			<path class="hexagon" d="m0,-30l25.98076211353316,15l7.105427357601002e-15,29.999999999999993l-25.980762113533157,15.000000000000009l-25.980762113533164,-14.999999999999984l-2.1316282072803006e-14,-29.999999999999996l25.98076211353314,-15.00000000000002z" style="fill: rgb(0, 20, 99);" transform="translate(491.9838450625191,118.99494936611664)"/>
			<path class="hexagon" d="m0,-30l25.98076211353316,15l7.105427357601002e-15,29.999999999999993l-25.980762113533157,15.000000000000009l-25.980762113533164,-14.999999999999984l-2.1316282072803006e-14,-29.999999999999996l25.98076211353314,-15.00000000000002z" style="fill: rgb(0, 85, 150);" transform="translate(71.96152422706632,168.49242404917496)"/>
			<path class="hexagon" d="m0,-30l25.98076211353316,15l7.105427357601002e-15,29.999999999999993l-25.980762113533157,15.000000000000009l-25.980762113533164,-14.999999999999984l-2.1316282072803006e-14,-29.999999999999996l25.98076211353314,-15.00000000000002z" style="fill: rgb(0, 23, 101);" transform="translate(128.25317547305482,168.49242404917496)"/>
			<path class="hexagon" d="m0,-30l25.98076211353316,15l7.105427357601002e-15,29.999999999999993l-25.980762113533157,15.000000000000009l-25.980762113533164,-14.999999999999984l-2.1316282072803006e-14,-29.999999999999996l25.98076211353314,-15.00000000000002z" style="fill: rgb(0, 29, 105);" transform="translate(184.54482671904336,168.49242404917496)"/>
			<path class="hexagon" d="m0,-30l25.98076211353316,15l7.105427357601002e-15,29.999999999999993l-25.980762113533157,15.000000000000009l-25.980762113533164,-14.999999999999984l-2.1316282072803006e-14,-29.999999999999996l25.98076211353314,-15.00000000000002z" style="fill: rgb(0, 71, 140);" transform="translate(240.83647796503186,168.49242404917496)"/>
			<path class="hexagon" d="m0,-30l25.98076211353316,15l7.105427357601002e-15,29.999999999999993l-25.980762113533157,15.000000000000009l-25.980762113533164,-14.999999999999984l-2.1316282072803006e-14,-29.999999999999996l25.98076211353314,-15.00000000000002z" style="fill: rgb(0, 45, 120);" transform="translate(297.1281292110204,168.49242404917496)"/>
			<path class="hexagon" d="m0,-30l25.98076211353316,15l7.105427357601002e-15,29.999999999999993l-25.980762113533157,15.000000000000009l-25.980762113533164,-14.999999999999984l-2.1316282072803006e-14,-29.999999999999996l25.98076211353314,-15.00000000000002z" style="fill: rgb(90, 141, 187);" transform="translate(353.41978045700887,168.49242404917496)"/>
			<path class="hexagon" d="m0,-30l25.98076211353316,15l7.105427357601002e-15,29.999999999999993l-25.980762113533157,15.000000000000009l-25.980762113533164,-14.999999999999984l-2.1316282072803006e-14,-29.999999999999996l25.98076211353314,-15.00000000000002z" style="fill: rgb(118, 157, 197);" transform="translate(409.7114317029974,168.49242404917496)"/>
			<path class="hexagon" d="m0,-30l25.98076211353316,15l7.105427357601002e-15,29.999999999999993l-25.980762113533157,15.000000000000009l-25.980762113533164,-14.999999999999984l-2.1316282072803006e-14,-29.999999999999996l25.98076211353314,-15.00000000000002z" style="fill: rgb(0, 37, 114);" transform="translate(466.00308294898593,168.49242404917496)"/>
			<path class="hexagon" d="m0,-30l25.98076211353316,15l7.105427357601002e-15,29.999999999999993l-25.980762113533157,15.000000000000009l-25.980762113533164,-14.999999999999984l-2.1316282072803006e-14,-29.999999999999996l25.98076211353314,-15.00000000000002z" style="fill: rgb(0, 21, 99);" transform="translate(522.2947341949745,168.49242404917496)"/>
			<path class="hexagon" d="m0,-30l25.98076211353316,15l7.105427357601002e-15,29.999999999999993l-25.980762113533157,15.000000000000009l-25.980762113533164,-14.999999999999984l-2.1316282072803006e-14,-29.999999999999996l25.98076211353314,-15.00000000000002z" style="fill: rgb(0, 75, 143);" transform="translate(45.98076211353316,217.98989873223329)"/>
			<path class="hexagon" d="m0,-30l25.98076211353316,15l7.105427357601002e-15,29.999999999999993l-25.980762113533157,15.000000000000009l-25.980762113533164,-14.999999999999984l-2.1316282072803006e-14,-29.999999999999996l25.98076211353314,-15.00000000000002z" style="fill: rgb(0, 91, 154);" transform="translate(102.27241335952168,217.98989873223329)"/>
			<path class="hexagon" d="m0,-30l25.98076211353316,15l7.105427357601002e-15,29.999999999999993l-25.980762113533157,15.000000000000009l-25.980762113533164,-14.999999999999984l-2.1316282072803006e-14,-29.999999999999996l25.98076211353314,-15.00000000000002z" style="fill: rgb(164, 188, 216);" transform="translate(158.5640646055102,217.98989873223329)"/>
			<path class="hexagon" d="m0,-30l25.98076211353316,15l7.105427357601002e-15,29.999999999999993l-25.980762113533157,15.000000000000009l-25.980762113533164,-14.999999999999984l-2.1316282072803006e-14,-29.999999999999996l25.98076211353314,-15.00000000000002z" style="fill: rgb(53, 123, 175);" transform="translate(214.8557158514987,217.98989873223329)"/>
			<path class="hexagon" d="m0,-30l25.98076211353316,15l7.105427357601002e-15,29.999999999999993l-25.980762113533157,15.000000000000009l-25.980762113533164,-14.999999999999984l-2.1316282072803006e-14,-29.999999999999996l25.98076211353314,-15.00000000000002z" style="fill: rgb(101, 147, 191);" transform="translate(271.14736709748723,217.98989873223329)"/>
			<path class="hexagon" d="m0,-30l25.98076211353316,15l7.105427357601002e-15,29.999999999999993l-25.980762113533157,15.000000000000009l-25.980762113533164,-14.999999999999984l-2.1316282072803006e-14,-29.999999999999996l25.98076211353314,-15.00000000000002z" style="fill: rgb(0, 104, 163);" transform="translate(327.4390183434757,217.98989873223329)"/>
			<path class="hexagon" d="m0,-30l25.98076211353316,15l7.105427357601002e-15,29.999999999999993l-25.980762113533157,15.000000000000009l-25.980762113533164,-14.999999999999984l-2.1316282072803006e-14,-29.999999999999996l25.98076211353314,-15.00000000000002z" style="fill: rgb(0, 19, 98);" transform="translate(383.73066958946424,217.98989873223329)"/>
			<path class="hexagon" d="m0,-30l25.98076211353316,15l7.105427357601002e-15,29.999999999999993l-25.980762113533157,15.000000000000009l-25.980762113533164,-14.999999999999984l-2.1316282072803006e-14,-29.999999999999996l25.98076211353314,-15.00000000000002z" style="fill: rgb(0, 79, 146);" transform="translate(440.0223208354528,217.98989873223329)"/>
			<path class="hexagon" d="m0,-30l25.98076211353316,15l7.105427357601002e-15,29.999999999999993l-25.980762113533157,15.000000000000009l-25.980762113533164,-14.999999999999984l-2.1316282072803006e-14,-29.999999999999996l25.98076211353314,-15.00000000000002z" style="fill: rgb(0, 108, 165);" transform="translate(496.31397208144125,217.98989873223329)"/>
			<path class="hexagon" d="m0,-30l25.98076211353316,15l7.105427357601002e-15,29.999999999999993l-25.980762113533157,15.000000000000009l-25.980762113533164,-14.999999999999984l-2.1316282072803006e-14,-29.999999999999996l25.98076211353314,-15.00000000000002z" style="fill: rgb(0, 91, 154);" transform="translate(552.6056233274298,217.98989873223329)"/>
			<path class="hexagon" d="m0,-30l25.98076211353316,15l7.105427357601002e-15,29.999999999999993l-25.980762113533157,15.000000000000009l-25.980762113533164,-14.999999999999984l-2.1316282072803006e-14,-29.999999999999996l25.98076211353314,-15.00000000000002z" style="fill: rgb(109, 152, 194);" transform="translate(20,267.4873734152916)"/>
			<path class="hexagon" d="m0,-30l25.98076211353316,15l7.105427357601002e-15,29.999999999999993l-25.980762113533157,15.000000000000009l-25.980762113533164,-14.999999999999984l-2.1316282072803006e-14,-29.999999999999996l25.98076211353314,-15.00000000000002z" style="fill: rgb(113, 154, 195);" transform="translate(76.29165124598852,267.4873734152916)"/>
			<path class="hexagon" d="m0,-30l25.98076211353316,15l7.105427357601002e-15,29.999999999999993l-25.980762113533157,15.000000000000009l-25.980762113533164,-14.999999999999984l-2.1316282072803006e-14,-29.999999999999996l25.98076211353314,-15.00000000000002z" style="fill: rgb(0, 52, 125);" transform="translate(132.58330249197704,267.4873734152916)"/>
			<path class="hexagon" d="m0,-30l25.98076211353316,15l7.105427357601002e-15,29.999999999999993l-25.980762113533157,15.000000000000009l-25.980762113533164,-14.999999999999984l-2.1316282072803006e-14,-29.999999999999996l25.98076211353314,-15.00000000000002z" style="fill: rgb(136, 169, 204);" transform="translate(188.87495373796554,267.4873734152916)"/>
			<path class="hexagon" d="m0,-30l25.98076211353316,15l7.105427357601002e-15,29.999999999999993l-25.980762113533157,15.000000000000009l-25.980762113533164,-14.999999999999984l-2.1316282072803006e-14,-29.999999999999996l25.98076211353314,-15.00000000000002z" style="fill: rgb(0, 68, 138);" transform="translate(245.16660498395404,267.4873734152916)"/>
			<path class="hexagon" d="m0,-30l25.98076211353316,15l7.105427357601002e-15,29.999999999999993l-25.980762113533157,15.000000000000009l-25.980762113533164,-14.999999999999984l-2.1316282072803006e-14,-29.999999999999996l25.98076211353314,-15.00000000000002z" style="fill: rgb(0, 79, 146);" transform="translate(301.45825622994255,267.4873734152916)"/>
			<path class="hexagon" d="m0,-30l25.98076211353316,15l7.105427357601002e-15,29.999999999999993l-25.980762113533157,15.000000000000009l-25.980762113533164,-14.999999999999984l-2.1316282072803006e-14,-29.999999999999996l25.98076211353314,-15.00000000000002z" style="fill: rgb(0, 82, 148);" transform="translate(357.7499074759311,267.4873734152916)"/>
			<path class="hexagon" d="m0,-30l25.98076211353316,15l7.105427357601002e-15,29.999999999999993l-25.980762113533157,15.000000000000009l-25.980762113533164,-14.999999999999984l-2.1316282072803006e-14,-29.999999999999996l25.98076211353314,-15.00000000000002z" style="fill: rgb(85, 138, 185);" transform="translate(414.0415587219196,267.4873734152916)"/>
			<path class="hexagon" d="m0,-30l25.98076211353316,15l7.105427357601002e-15,29.999999999999993l-25.980762113533157,15.000000000000009l-25.980762113533164,-14.999999999999984l-2.1316282072803006e-14,-29.999999999999996l25.98076211353314,-15.00000000000002z" style="fill: rgb(131, 166, 202);" transform="translate(470.3332099679081,267.4873734152916)"/>
			<path class="hexagon" d="m0,-30l25.98076211353316,15l7.105427357601002e-15,29.999999999999993l-25.980762113533157,15.000000000000009l-25.980762113533164,-14.999999999999984l-2.1316282072803006e-14,-29.999999999999996l25.98076211353314,-15.00000000000002z" style="fill: rgb(0, 78, 145);" transform="translate(526.6248612138966,267.4873734152916)"/>
			<path class="hexagon" d="m0,-30l25.98076211353316,15l7.105427357601002e-15,29.999999999999993l-25.980762113533157,15.000000000000009l-25.980762113533164,-14.999999999999984l-2.1316282072803006e-14,-29.999999999999996l25.98076211353314,-15.00000000000002z" style="fill: rgb(153, 180, 211);" transform="translate(582.9165124598851,267.4873734152916)"/>
			<path class="hexagon" d="m0,-30l25.98076211353316,15l7.105427357601002e-15,29.999999999999993l-25.980762113533157,15.000000000000009l-25.980762113533164,-14.999999999999984l-2.1316282072803006e-14,-29.999999999999996l25.98076211353314,-15.00000000000002z" style="fill: rgb(0, 104, 163);" transform="translate(45.98076211353316,316.9848480983499)"/>
			<path class="hexagon" d="m0,-30l25.98076211353316,15l7.105427357601002e-15,29.999999999999993l-25.980762113533157,15.000000000000009l-25.980762113533164,-14.999999999999984l-2.1316282072803006e-14,-29.999999999999996l25.98076211353314,-15.00000000000002z" style="fill: rgb(0, 57, 130);" transform="translate(102.27241335952168,316.9848480983499)"/>
			<path class="hexagon" d="m0,-30l25.98076211353316,15l7.105427357601002e-15,29.999999999999993l-25.980762113533157,15.000000000000009l-25.980762113533164,-14.999999999999984l-2.1316282072803006e-14,-29.999999999999996l25.98076211353314,-15.00000000000002z" style="fill: rgb(76, 133, 182);" transform="translate(158.5640646055102,316.9848480983499)"/>
			<path class="hexagon" d="m0,-30l25.98076211353316,15l7.105427357601002e-15,29.999999999999993l-25.980762113533157,15.000000000000009l-25.980762113533164,-14.999999999999984l-2.1316282072803006e-14,-29.999999999999996l25.98076211353314,-15.00000000000002z" style="fill: rgb(32, 116, 171);" transform="translate(214.8557158514987,316.9848480983499)"/>
			<path class="hexagon" d="m0,-30l25.98076211353316,15l7.105427357601002e-15,29.999999999999993l-25.980762113533157,15.000000000000009l-25.980762113533164,-14.999999999999984l-2.1316282072803006e-14,-29.999999999999996l25.98076211353314,-15.00000000000002z" style="fill: rgb(79, 134, 183);" transform="translate(271.14736709748723,316.9848480983499)"/>
			<path class="hexagon" d="m0,-30l25.98076211353316,15l7.105427357601002e-15,29.999999999999993l-25.980762113533157,15.000000000000009l-25.980762113533164,-14.999999999999984l-2.1316282072803006e-14,-29.999999999999996l25.98076211353314,-15.00000000000002z" style="fill: rgb(0, 74, 142);" transform="translate(327.4390183434757,316.9848480983499)"/>
			<path class="hexagon" d="m0,-30l25.98076211353316,15l7.105427357601002e-15,29.999999999999993l-25.980762113533157,15.000000000000009l-25.980762113533164,-14.999999999999984l-2.1316282072803006e-14,-29.999999999999996l25.98076211353314,-15.00000000000002z" style="fill: rgb(0, 14, 96);" transform="translate(383.73066958946424,316.9848480983499)"/>
			<path class="hexagon" d="m0,-30l25.98076211353316,15l7.105427357601002e-15,29.999999999999993l-25.980762113533157,15.000000000000009l-25.980762113533164,-14.999999999999984l-2.1316282072803006e-14,-29.999999999999996l25.98076211353314,-15.00000000000002z" style="fill: rgb(0, 68, 137);" transform="translate(440.0223208354528,316.9848480983499)"/>
			<path class="hexagon" d="m0,-30l25.98076211353316,15l7.105427357601002e-15,29.999999999999993l-25.980762113533157,15.000000000000009l-25.980762113533164,-14.999999999999984l-2.1316282072803006e-14,-29.999999999999996l25.98076211353314,-15.00000000000002z" style="fill: rgb(85, 137, 185);" transform="translate(496.31397208144125,316.9848480983499)"/>
			<path class="hexagon" d="m0,-30l25.98076211353316,15l7.105427357601002e-15,29.999999999999993l-25.980762113533157,15.000000000000009l-25.980762113533164,-14.999999999999984l-2.1316282072803006e-14,-29.999999999999996l25.98076211353314,-15.00000000000002z" style="fill: rgb(0, 44, 119);" transform="translate(552.6056233274298,316.9848480983499)"/>
			<path class="hexagon" d="m0,-30l25.98076211353316,15l7.105427357601002e-15,29.999999999999993l-25.980762113533157,15.000000000000009l-25.980762113533164,-14.999999999999984l-2.1316282072803006e-14,-29.999999999999996l25.98076211353314,-15.00000000000002z" style="fill: rgb(0, 81, 147);" transform="translate(71.96152422706632,366.48232278140824)"/>
			<path class="hexagon" d="m0,-30l25.98076211353316,15l7.105427357601002e-15,29.999999999999993l-25.980762113533157,15.000000000000009l-25.980762113533164,-14.999999999999984l-2.1316282072803006e-14,-29.999999999999996l25.98076211353314,-15.00000000000002z" style="fill: rgb(0, 51, 125);" transform="translate(128.25317547305482,366.48232278140824)"/>
			<path class="hexagon" d="m0,-30l25.98076211353316,15l7.105427357601002e-15,29.999999999999993l-25.980762113533157,15.000000000000009l-25.980762113533164,-14.999999999999984l-2.1316282072803006e-14,-29.999999999999996l25.98076211353314,-15.00000000000002z" style="fill: rgb(81, 135, 183);" transform="translate(184.54482671904336,366.48232278140824)"/>
			<path class="hexagon" d="m0,-30l25.98076211353316,15l7.105427357601002e-15,29.999999999999993l-25.980762113533157,15.000000000000009l-25.980762113533164,-14.999999999999984l-2.1316282072803006e-14,-29.999999999999996l25.98076211353314,-15.00000000000002z" style="fill: rgb(145, 175, 208);" transform="translate(240.83647796503186,366.48232278140824)"/>
			<path class="hexagon" d="m0,-30l25.98076211353316,15l7.105427357601002e-15,29.999999999999993l-25.980762113533157,15.000000000000009l-25.980762113533164,-14.999999999999984l-2.1316282072803006e-14,-29.999999999999996l25.98076211353314,-15.00000000000002z" style="fill: rgb(159, 185, 214);" transform="translate(297.1281292110204,366.48232278140824)"/>
			<path class="hexagon" d="m0,-30l25.98076211353316,15l7.105427357601002e-15,29.999999999999993l-25.980762113533157,15.000000000000009l-25.980762113533164,-14.999999999999984l-2.1316282072803006e-14,-29.999999999999996l25.98076211353314,-15.00000000000002z" style="fill: rgb(0, 107, 165);" transform="translate(353.41978045700887,366.48232278140824)"/>
			<path class="hexagon" d="m0,-30l25.98076211353316,15l7.105427357601002e-15,29.999999999999993l-25.980762113533157,15.000000000000009l-25.980762113533164,-14.999999999999984l-2.1316282072803006e-14,-29.999999999999996l25.98076211353314,-15.00000000000002z" style="fill: rgb(0, 84, 149);" transform="translate(409.7114317029974,366.48232278140824)"/>
			<path class="hexagon" d="m0,-30l25.98076211353316,15l7.105427357601002e-15,29.999999999999993l-25.980762113533157,15.000000000000009l-25.980762113533164,-14.999999999999984l-2.1316282072803006e-14,-29.999999999999996l25.98076211353314,-15.00000000000002z" style="fill: rgb(0, 64, 135);" transform="translate(466.00308294898593,366.48232278140824)"/>
			<path class="hexagon" d="m0,-30l25.98076211353316,15l7.105427357601002e-15,29.999999999999993l-25.980762113533157,15.000000000000009l-25.980762113533164,-14.999999999999984l-2.1316282072803006e-14,-29.999999999999996l25.98076211353314,-15.00000000000002z" style="fill: rgb(0, 57, 129);" transform="translate(522.2947341949745,366.48232278140824)"/>
			<path class="hexagon" d="m0,-30l25.98076211353316,15l7.105427357601002e-15,29.999999999999993l-25.980762113533157,15.000000000000009l-25.980762113533164,-14.999999999999984l-2.1316282072803006e-14,-29.999999999999996l25.98076211353314,-15.00000000000002z" style="fill: rgb(103, 148, 191);" transform="translate(97.94228634059948,415.97979746446657)"/>
			<path class="hexagon" d="m0,-30l25.98076211353316,15l7.105427357601002e-15,29.999999999999993l-25.980762113533157,15.000000000000009l-25.980762113533164,-14.999999999999984l-2.1316282072803006e-14,-29.999999999999996l25.98076211353314,-15.00000000000002z" style="fill: rgb(0, 21, 100);" transform="translate(154.23393758658798,415.97979746446657)"/>
			<path class="hexagon" d="m0,-30l25.98076211353316,15l7.105427357601002e-15,29.999999999999993l-25.980762113533157,15.000000000000009l-25.980762113533164,-14.999999999999984l-2.1316282072803006e-14,-29.999999999999996l25.98076211353314,-15.00000000000002z" style="fill: rgb(0, 57, 129);" transform="translate(210.52558883257652,415.97979746446657)"/>
			<path class="hexagon" d="m0,-30l25.98076211353316,15l7.105427357601002e-15,29.999999999999993l-25.980762113533157,15.000000000000009l-25.980762113533164,-14.999999999999984l-2.1316282072803006e-14,-29.999999999999996l25.98076211353314,-15.00000000000002z" style="fill: rgb(0, 77, 144);" transform="translate(266.817240078565,415.97979746446657)"/>
			<path class="hexagon" d="m0,-30l25.98076211353316,15l7.105427357601002e-15,29.999999999999993l-25.980762113533157,15.000000000000009l-25.980762113533164,-14.999999999999984l-2.1316282072803006e-14,-29.999999999999996l25.98076211353314,-15.00000000000002z" style="fill: rgb(0, 63, 134);" transform="translate(323.10889132455355,415.97979746446657)"/>
			<path class="hexagon" d="m0,-30l25.98076211353316,15l7.105427357601002e-15,29.999999999999993l-25.980762113533157,15.000000000000009l-25.980762113533164,-14.999999999999984l-2.1316282072803006e-14,-29.999999999999996l25.98076211353314,-15.00000000000002z" style="fill: rgb(136, 169, 204);" transform="translate(379.40054257054203,415.97979746446657)"/>
			<path class="hexagon" d="m0,-30l25.98076211353316,15l7.105427357601002e-15,29.999999999999993l-25.980762113533157,15.000000000000009l-25.980762113533164,-14.999999999999984l-2.1316282072803006e-14,-29.999999999999996l25.98076211353314,-15.00000000000002z" style="fill: rgb(66, 128, 179);" transform="translate(435.69219381653056,415.97979746446657)"/>
			<path class="hexagon" d="m0,-30l25.98076211353316,15l7.105427357601002e-15,29.999999999999993l-25.980762113533157,15.000000000000009l-25.980762113533164,-14.999999999999984l-2.1316282072803006e-14,-29.999999999999996l25.98076211353314,-15.00000000000002z" style="fill: rgb(0, 72, 141);" transform="translate(491.9838450625191,415.97979746446657)"/>
			<path class="hexagon" d="m0,-30l25.98076211353316,15l7.105427357601002e-15,29.999999999999993l-25.980762113533157,15.000000000000009l-25.980762113533164,-14.999999999999984l-2.1316282072803006e-14,-29.999999999999996l25.98076211353314,-15.00000000000002z" style="fill: rgb(80, 135, 183);" transform="translate(123.92304845413264,465.4772721475249)"/>
			<path class="hexagon" d="m0,-30l25.98076211353316,15l7.105427357601002e-15,29.999999999999993l-25.980762113533157,15.000000000000009l-25.980762113533164,-14.999999999999984l-2.1316282072803006e-14,-29.999999999999996l25.98076211353314,-15.00000000000002z" style="fill: rgb(101, 147, 191);" transform="translate(180.21469970012114,465.4772721475249)"/>
			<path class="hexagon" d="m0,-30l25.98076211353316,15l7.105427357601002e-15,29.999999999999993l-25.980762113533157,15.000000000000009l-25.980762113533164,-14.999999999999984l-2.1316282072803006e-14,-29.999999999999996l25.98076211353314,-15.00000000000002z" style="fill: rgb(0, 89, 153);" transform="translate(236.50635094610968,465.4772721475249)"/>
			<path class="hexagon" d="m0,-30l25.98076211353316,15l7.105427357601002e-15,29.999999999999993l-25.980762113533157,15.000000000000009l-25.980762113533164,-14.999999999999984l-2.1316282072803006e-14,-29.999999999999996l25.98076211353314,-15.00000000000002z" style="fill: rgb(0, 101, 161);" transform="translate(292.7980021920982,465.4772721475249)"/>
			<path class="hexagon" d="m0,-30l25.98076211353316,15l7.105427357601002e-15,29.999999999999993l-25.980762113533157,15.000000000000009l-25.980762113533164,-14.999999999999984l-2.1316282072803006e-14,-29.999999999999996l25.98076211353314,-15.00000000000002z" style="fill: rgb(0, 50, 124);" transform="translate(349.0896534380867,465.4772721475249)"/>
			<path class="hexagon" d="m0,-30l25.98076211353316,15l7.105427357601002e-15,29.999999999999993l-25.980762113533157,15.000000000000009l-25.980762113533164,-14.999999999999984l-2.1316282072803006e-14,-29.999999999999996l25.98076211353314,-15.00000000000002z" style="fill: rgb(0, 48, 123);" transform="translate(405.3813046840752,465.4772721475249)"/>
			<path class="hexagon" d="m0,-30l25.98076211353316,15l7.105427357601002e-15,29.999999999999993l-25.980762113533157,15.000000000000009l-25.980762113533164,-14.999999999999984l-2.1316282072803006e-14,-29.999999999999996l25.98076211353314,-15.00000000000002z" style="fill: rgb(0, 45, 120);" transform="translate(461.6729559300637,465.4772721475249)"/>
			<path class="hexagon" d="m0,-30l25.98076211353316,15l7.105427357601002e-15,29.999999999999993l-25.980762113533157,15.000000000000009l-25.980762113533164,-14.999999999999984l-2.1316282072803006e-14,-29.999999999999996l25.98076211353314,-15.00000000000002z" style="fill: rgb(0, 59, 131);" transform="translate(149.9038105676658,514.9747468305832)"/>
			<path class="hexagon" d="m0,-30l25.98076211353316,15l7.105427357601002e-15,29.999999999999993l-25.980762113533157,15.000000000000009l-25.980762113533164,-14.999999999999984l-2.1316282072803006e-14,-29.999999999999996l25.98076211353314,-15.00000000000002z" style="fill: rgb(131, 166, 202);" transform="translate(206.1954618136543,514.9747468305832)"/>
			<path class="hexagon" d="m0,-30l25.98076211353316,15l7.105427357601002e-15,29.999999999999993l-25.980762113533157,15.000000000000009l-25.980762113533164,-14.999999999999984l-2.1316282072803006e-14,-29.999999999999996l25.98076211353314,-15.00000000000002z" style="fill: rgb(115, 155, 196);" transform="translate(262.4871130596428,514.9747468305832)"/>
			<path class="hexagon" d="m0,-30l25.98076211353316,15l7.105427357601002e-15,29.999999999999993l-25.980762113533157,15.000000000000009l-25.980762113533164,-14.999999999999984l-2.1316282072803006e-14,-29.999999999999996l25.98076211353314,-15.00000000000002z" style="fill: rgb(29, 115, 170);" transform="translate(318.77876430563134,514.9747468305832)"/>
			<path class="hexagon" d="m0,-30l25.98076211353316,15l7.105427357601002e-15,29.999999999999993l-25.980762113533157,15.000000000000009l-25.980762113533164,-14.999999999999984l-2.1316282072803006e-14,-29.999999999999996l25.98076211353314,-15.00000000000002z" style="fill: rgb(0, 105, 164);" transform="translate(375.0704155516199,514.9747468305832)"/>
			<path class="hexagon" d="m0,-30l25.98076211353316,15l7.105427357601002e-15,29.999999999999993l-25.980762113533157,15.000000000000009l-25.980762113533164,-14.999999999999984l-2.1316282072803006e-14,-29.999999999999996l25.98076211353314,-15.00000000000002z" style="fill: rgb(131, 166, 202);" transform="translate(431.36206679760835,514.9747468305832)"/>
		</g>
	</g>
</svg>