<?xml version="1.0" encoding="utf-8"?>
<!-- Generator: Adobe Illustrator 16.0.0, SVG Export Plug-In . SVG Version: 6.00 Build 0)  -->
<!DOCTYPE svg
  PUBLIC '-//W3C//DTD SVG 1.1//EN'
  'http://www.w3.org/Graphics/SVG/1.1/DTD/svg11.dtd'>
<svg enable-background="new 0 38.5 756.5 762" height="762px" id="Layer_1" version="1.1" viewBox="0 38.5 756.5 762" width="756.5px" x="0px" xml:space="preserve" xmlns="http://www.w3.org/2000/svg" xmlns:xlink="http://www.w3.org/1999/xlink" y="0px">
  <path d="M84.211,228.5l8.66,5v10l-8.66,5l-8.66-5v-10L84.211,228.5z" fill="#3C7DB1"/>
  <path d="M84.211,248.5l8.66,5v10l-8.66,5l-8.66-5v-10L84.211,248.5z" fill="#005798"/>
  <path d="M84.211,268.5l8.66,5v10l-8.66,5l-8.66-5v-10L84.211,268.5z" fill="#7CA1C7"/>
  <path d="M84.211,288.5l8.66,5v10l-8.66,5l-8.66-5v-10L84.211,288.5z" fill="#002672"/>
  <path d="M84.211,308.5l8.66,5v10l-8.66,5l-8.66-5v-10L84.211,308.5z" fill="#9CB6D4"/>
  <path d="M84.211,328.5l8.66,5v10l-8.66,5l-8.66-5v-10L84.211,328.5z" fill="#002874"/>
  <path d="M84.211,348.5l8.66,5v10l-8.66,5l-8.66-5v-10L84.211,348.5z" fill="#001664"/>
  <path d="M84.211,368.5l8.66,5v10l-8.66,5l-8.66-5v-10L84.211,368.5z" fill="#004C8F"/>
  <path d="M84.211,388.5l8.66,5v10l-8.66,5l-8.66-5v-10L84.211,388.5z" fill="#6090BD"/>
  <path d="M84.211,408.5l8.66,5v10l-8.66,5l-8.66-5v-10L84.211,408.5z" fill="#00075D"/>
  <path d="M84.211,428.5l8.66,5v10l-8.66,5l-8.66-5v-10L84.211,428.5z" fill="#005596"/>
  <path d="M84.211,448.5l8.66,5v10l-8.66,5l-8.66-5v-10L84.211,448.5z" fill="#7EA2C8"/>
  <path d="M84.211,468.5l8.66,5v10l-8.66,5l-8.66-5v-10L84.211,468.5z" fill="#2C77AD"/>
  <path d="M84.211,488.5l8.66,5v10l-8.66,5l-8.66-5v-10L84.211,488.5z" fill="#002A75"/>
  <path d="M84.211,508.5l8.66,5v10l-8.66,5l-8.66-5v-10L84.211,508.5z" fill="#003881"/>
  <path d="M84.211,528.5l8.66,5v10l-8.66,5l-8.66-5v-10L84.211,528.5z" fill="#002571"/>
  <path d="M84.211,548.5l8.66,5v10l-8.66,5l-8.66-5v-10L84.211,548.5z" fill="#4883B5"/>
  <path d="M84.211,568.5l8.66,5v10l-8.66,5l-8.66-5v-10L84.211,568.5z" fill="#001765"/>
  <path d="M101.531,218.5l8.661,5v10l-8.661,5l-8.66-5v-10L101.531,218.5z" fill="#6D97C2"/>
  <path d="M101.531,238.5l8.661,5v10l-8.661,5l-8.66-5v-10L101.531,238.5z" fill="#0064A0"/>
  <path d="M101.531,258.5l8.661,5v10l-8.661,5l-8.66-5v-10L101.531,258.5z" fill="#00609E"/>
  <path d="M101.531,278.5l8.661,5v10l-8.661,5l-8.66-5v-10L101.531,278.5z" fill="#005596"/>
  <path d="M101.531,298.5l8.661,5v10l-8.661,5l-8.66-5v-10L101.531,298.5z" fill="#5388B8"/>
  <path d="M101.531,318.5l8.661,5v10l-8.661,5l-8.66-5v-10L101.531,318.5z" fill="#91AFD0"/>
  <path d="M101.531,338.5l8.661,5v10l-8.661,5l-8.66-5v-10L101.531,338.5z" fill="#004289"/>
  <path d="M101.531,358.5l8.661,5v10l-8.661,5l-8.66-5v-10L101.531,358.5z" fill="#004288"/>
  <path d="M101.531,378.5l8.661,5v10l-8.661,5l-8.66-5v-10L101.531,378.5z" fill="#006CA5"/>
  <path d="M101.531,398.5l8.661,5v10l-8.661,5l-8.66-5v-10L101.531,398.5z" fill="#00609E"/>
  <path d="M101.531,418.5l8.661,5v10l-8.661,5l-8.66-5v-10L101.531,418.5z" fill="#004288"/>
  <path d="M101.531,438.5l8.661,5v10l-8.661,5l-8.66-5v-10L101.531,438.5z" fill="#729BC4"/>
  <path d="M101.531,458.5l8.661,5v10l-8.661,5l-8.66-5v-10L101.531,458.5z" fill="#6C97C1"/>
  <path d="M101.531,478.5l8.661,5v10l-8.661,5l-8.66-5v-10L101.531,478.5z" fill="#7099C3"/>
  <path d="M101.531,498.5l8.661,5v10l-8.661,5l-8.66-5v-10L101.531,498.5z" fill="#00216D"/>
  <path d="M101.531,518.5l8.661,5v10l-8.661,5l-8.66-5v-10L101.531,518.5z" fill="#002773"/>
  <path d="M101.531,538.5l8.661,5v10l-8.661,5l-8.66-5v-10L101.531,538.5z" fill="#94B1D1"/>
  <path d="M101.531,558.5l8.661,5v10l-8.661,5l-8.66-5v-10L101.531,558.5z" fill="#00468B"/>
  <path d="M101.531,578.5l8.661,5v10l-8.661,5l-8.66-5v-10L101.531,578.5z" fill="#004D90"/>
  <path d="M118.852,208.5l8.66,5v10l-8.66,5l-8.66-5v-10L118.852,208.5z" fill="#00216D"/>
  <path d="M118.852,228.5l8.66,5v10l-8.66,5l-8.66-5v-10L118.852,228.5z" fill="#4D85B6"/>
  <path d="M118.852,248.5l8.66,5v10l-8.66,5l-8.66-5v-10L118.852,248.5z" fill="#002A75"/>
  <path d="M118.852,268.5l8.66,5v10l-8.66,5l-8.66-5v-10L118.852,268.5z" fill="#A6BDD9"/>
  <path d="M118.852,288.5l8.66,5v10l-8.66,5l-8.66-5v-10L118.852,288.5z" fill="#004187"/>
  <path d="M118.852,308.5l8.66,5v10l-8.66,5l-8.66-5v-10L118.852,308.5z" fill="#005193"/>
  <path d="M118.852,328.5l8.66,5v10l-8.66,5l-8.66-5v-10L118.852,328.5z" fill="#6593BE"/>
  <path d="M118.852,348.5l8.66,5v10l-8.66,5l-8.66-5v-10L118.852,348.5z" fill="#3179AE"/>
  <path d="M118.852,368.5l8.66,5v10l-8.66,5l-8.66-5v-10L118.852,368.5z" fill="#001161"/>
  <path d="M118.852,388.5l8.66,5v10l-8.66,5l-8.66-5v-10L118.852,388.5z" fill="#00448A"/>
  <path d="M118.852,408.5l8.66,5v10l-8.66,5l-8.66-5v-10L118.852,408.5z" fill="#006EA7"/>
  <path d="M118.852,428.5l8.66,5v10l-8.66,5l-8.66-5v-10L118.852,428.5z" fill="#00458B"/>
  <path d="M118.852,448.5l8.66,5v10l-8.66,5l-8.66-5v-10L118.852,448.5z" fill="#6B96C1"/>
  <path d="M118.852,468.5l8.66,5v10l-8.66,5l-8.66-5v-10L118.852,468.5z" fill="#005F9D"/>
  <path d="M118.852,488.5l8.66,5v10l-8.66,5l-8.66-5v-10L118.852,488.5z" fill="#001F6C"/>
  <path d="M118.852,508.5l8.66,5v10l-8.66,5l-8.66-5v-10L118.852,508.5z" fill="#000059"/>
  <path d="M118.852,528.5l8.66,5v10l-8.66,5l-8.66-5v-10L118.852,528.5z" fill="#6D97C2"/>
  <path d="M118.852,548.5l8.66,5v10l-8.66,5l-8.66-5v-10L118.852,548.5z" fill="#3F7FB2"/>
  <path d="M118.852,568.5l8.66,5v10l-8.66,5l-8.66-5v-10L118.852,568.5z" fill="#93B1D1"/>
  <path d="M118.852,588.5l8.66,5v10l-8.66,5l-8.66-5v-10L118.852,588.5z" fill="#005697"/>
  <path d="M136.172,198.5l8.66,5v10l-8.66,5l-8.66-5v-10L136.172,198.5z" fill="#5E8FBC"/>
  <path d="M136.172,218.5l8.66,5v10l-8.66,5l-8.66-5v-10L136.172,218.5z" fill="#003982"/>
  <path d="M136.172,238.5l8.66,5v10l-8.66,5l-8.66-5v-10L136.172,238.5z" fill="#005193"/>
  <path d="M136.172,258.5l8.66,5v10l-8.66,5l-8.66-5v-10L136.172,258.5z" fill="#7BA0C7"/>
  <path d="M136.172,278.5l8.66,5v10l-8.66,5l-8.66-5v-10L136.172,278.5z" fill="#001564"/>
  <path d="M136.172,298.5l8.66,5v10l-8.66,5l-8.66-5v-10L136.172,298.5z" fill="#003A82"/>
  <path d="M136.172,318.5l8.66,5v10l-8.66,5l-8.66-5v-10L136.172,318.5z" fill="#729BC4"/>
  <path d="M136.172,338.5l8.66,5v10l-8.66,5l-8.66-5v-10L136.172,338.5z" fill="#001F6B"/>
  <path d="M136.172,358.5l8.66,5v10l-8.66,5l-8.66-5v-10L136.172,358.5z" fill="#6A96C1"/>
  <path d="M136.172,378.5l8.66,5v10l-8.66,5l-8.66-5v-10L136.172,378.5z" fill="#004C90"/>
  <path d="M136.172,398.5l8.66,5v10l-8.66,5l-8.66-5v-10L136.172,398.5z" fill="#578BBA"/>
  <path d="M136.172,418.5l8.66,5v10l-8.66,5l-8.66-5v-10L136.172,418.5z" fill="#002773"/>
  <path d="M136.172,438.5l8.66,5v10l-8.66,5l-8.66-5v-10L136.172,438.5z" fill="#4280B3"/>
  <path d="M136.172,458.5l8.66,5v10l-8.66,5l-8.66-5v-10L136.172,458.5z" fill="#00337D"/>
  <path d="M136.172,478.5l8.66,5v10l-8.66,5l-8.66-5v-10L136.172,478.5z" fill="#86A8CC"/>
  <path d="M136.172,498.5l8.66,5v10l-8.66,5l-8.66-5v-10L136.172,498.5z" fill="#6794BF"/>
  <path d="M136.172,518.5l8.66,5v10l-8.66,5l-8.66-5v-10L136.172,518.5z" fill="#A5BDD8"/>
  <path d="M136.172,538.5l8.66,5v10l-8.66,5l-8.66-5v-10L136.172,538.5z" fill="#001D6A"/>
  <path d="M136.172,558.5l8.66,5v10l-8.66,5l-8.66-5v-10L136.172,558.5z" fill="#000A5E"/>
  <path d="M136.172,578.5l8.66,5v10l-8.66,5l-8.66-5v-10L136.172,578.5z" fill="#002773"/>
  <path d="M136.172,598.5l8.66,5v10l-8.66,5l-8.66-5v-10L136.172,598.5z" fill="#002471"/>
  <path d="M153.493,188.5l8.66,5v10l-8.66,5l-8.661-5v-10L153.493,188.5z" fill="#001E6A"/>
  <path d="M153.493,208.5l8.66,5v10l-8.66,5l-8.661-5v-10L153.493,208.5z" fill="#000B5E"/>
  <path d="M153.493,228.5l8.66,5v10l-8.66,5l-8.661-5v-10L153.493,228.5z" fill="#2274AB"/>
  <path d="M153.493,248.5l8.66,5v10l-8.66,5l-8.661-5v-10L153.493,248.5z" fill="#83A6CA"/>
  <path d="M153.493,268.5l8.66,5v10l-8.66,5l-8.661-5v-10L153.493,268.5z" fill="#0065A1"/>
  <path d="M153.493,288.5l8.66,5v10l-8.66,5l-8.661-5v-10L153.493,288.5z" fill="#003C84"/>
  <path d="M153.493,308.5l8.66,5v10l-8.66,5l-8.661-5v-10L153.493,308.5z" fill="#001162"/>
  <path d="M153.493,328.5l8.66,5v10l-8.66,5l-8.661-5v-10L153.493,328.5z" fill="#739BC4"/>
  <path d="M153.493,348.5l8.66,5v10l-8.66,5l-8.661-5v-10L153.493,348.5z" fill="#3D7EB1"/>
  <path d="M153.493,368.5l8.66,5v10l-8.66,5l-8.661-5v-10L153.493,368.5z" fill="#004087"/>
  <path d="M153.493,388.5l8.66,5v10l-8.66,5l-8.661-5v-10L153.493,388.5z" fill="#5B8DBB"/>
  <path d="M153.493,408.5l8.66,5v10l-8.66,5l-8.661-5v-10L153.493,408.5z" fill="#98B4D3"/>
  <path d="M153.493,428.5l8.66,5v10l-8.66,5l-8.661-5v-10L153.493,428.5z" fill="#6894C0"/>
  <path d="M153.493,448.5l8.66,5v10l-8.66,5l-8.661-5v-10L153.493,448.5z" fill="#003C84"/>
  <path d="M153.493,468.5l8.66,5v10l-8.66,5l-8.661-5v-10L153.493,468.5z" fill="#0064A0"/>
  <path d="M153.493,488.5l8.66,5v10l-8.66,5l-8.661-5v-10L153.493,488.5z" fill="#001966"/>
  <path d="M153.493,508.5l8.66,5v10l-8.66,5l-8.661-5v-10L153.493,508.5z" fill="#005B9A"/>
  <path d="M153.493,528.5l8.66,5v10l-8.66,5l-8.661-5v-10L153.493,528.5z" fill="#005A99"/>
  <path d="M153.493,548.5l8.66,5v10l-8.66,5l-8.661-5v-10L153.493,548.5z" fill="#004D90"/>
  <path d="M153.493,568.5l8.66,5v10l-8.66,5l-8.661-5v-10L153.493,568.5z" fill="#00005A"/>
  <path d="M153.493,588.5l8.66,5v10l-8.66,5l-8.661-5v-10L153.493,588.5z" fill="#88A9CC"/>
  <path d="M153.493,608.5l8.66,5v10l-8.66,5l-8.661-5v-10L153.493,608.5z" fill="#005093"/>
  <path d="M170.813,178.5l8.66,5v10l-8.66,5l-8.66-5v-10L170.813,178.5z" fill="#005798"/>
  <path d="M170.813,198.5l8.66,5v10l-8.66,5l-8.66-5v-10L170.813,198.5z" fill="#00085D"/>
  <path d="M170.813,218.5l8.66,5v10l-8.66,5l-8.66-5v-10L170.813,218.5z" fill="#000F60"/>
  <path d="M170.813,238.5l8.66,5v10l-8.66,5l-8.66-5v-10L170.813,238.5z" fill="#407FB2"/>
  <path d="M170.813,258.5l8.66,5v10l-8.66,5l-8.66-5v-10L170.813,258.5z" fill="#00609E"/>
  <path d="M170.813,278.5l8.66,5v10l-8.66,5l-8.66-5v-10L170.813,278.5z" fill="#8CACCE"/>
  <path d="M170.813,298.5l8.66,5v10l-8.66,5l-8.66-5v-10L170.813,298.5z" fill="#1872A9"/>
  <path d="M170.813,318.5l8.66,5v10l-8.66,5l-8.66-5v-10L170.813,318.5z" fill="#00005A"/>
  <path d="M170.813,338.5l8.66,5v10l-8.66,5l-8.66-5v-10L170.813,338.5z" fill="#6090BD"/>
  <path d="M170.813,358.5l8.66,5v10l-8.66,5l-8.66-5v-10L170.813,358.5z" fill="#005596"/>
  <path d="M170.813,378.5l8.66,5v10l-8.66,5l-8.66-5v-10L170.813,378.5z" fill="#001B68"/>
  <path d="M170.813,398.5l8.66,5v10l-8.66,5l-8.66-5v-10L170.813,398.5z" fill="#7DA2C8"/>
  <path d="M170.813,418.5l8.66,5v10l-8.66,5l-8.66-5v-10L170.813,418.5z" fill="#6693BF"/>
  <path d="M170.813,438.5l8.66,5v10l-8.66,5l-8.66-5v-10L170.813,438.5z" fill="#2D77AD"/>
  <path d="M170.813,458.5l8.66,5v10l-8.66,5l-8.66-5v-10L170.813,458.5z" fill="#000A5E"/>
  <path d="M170.813,478.5l8.66,5v10l-8.66,5l-8.66-5v-10L170.813,478.5z" fill="#3179AE"/>
  <path d="M170.813,498.5l8.66,5v10l-8.66,5l-8.66-5v-10L170.813,498.5z" fill="#5A8CBB"/>
  <path d="M170.813,518.5l8.66,5v10l-8.66,5l-8.66-5v-10L170.813,518.5z" fill="#002D78"/>
  <path d="M170.813,538.5l8.66,5v10l-8.66,5l-8.66-5v-10L170.813,538.5z" fill="#00055C"/>
  <path d="M170.813,558.5l8.66,5v10l-8.66,5l-8.66-5v-10L170.813,558.5z" fill="#00347E"/>
  <path d="M170.813,578.5l8.66,5v10l-8.66,5l-8.66-5v-10L170.813,578.5z" fill="#00639F"/>
  <path d="M170.813,598.5l8.66,5v10l-8.66,5l-8.66-5v-10L170.813,598.5z" fill="#026FA7"/>
  <path d="M170.813,618.5l8.66,5v10l-8.66,5l-8.66-5v-10L170.813,618.5z" fill="#005797"/>
  <path d="M188.134,168.5l8.661,5v10l-8.661,5l-8.66-5v-10L188.134,168.5z" fill="#00367F"/>
  <path d="M188.134,188.5l8.661,5v10l-8.661,5l-8.66-5v-10L188.134,188.5z" fill="#729BC4"/>
  <path d="M188.134,208.5l8.661,5v10l-8.661,5l-8.66-5v-10L188.134,208.5z" fill="#417FB2"/>
  <path d="M188.134,228.5l8.661,5v10l-8.661,5l-8.66-5v-10L188.134,228.5z" fill="#00236F"/>
  <path d="M188.134,248.5l8.661,5v10l-8.661,5l-8.66-5v-10L188.134,248.5z" fill="#00357E"/>
  <path d="M188.134,268.5l8.661,5v10l-8.661,5l-8.66-5v-10L188.134,268.5z" fill="#004D90"/>
  <path d="M188.134,288.5l8.661,5v10l-8.661,5l-8.66-5v-10L188.134,288.5z" fill="#005999"/>
  <path d="M188.134,308.5l8.661,5v10l-8.661,5l-8.66-5v-10L188.134,308.5z" fill="#001161"/>
  <path d="M188.134,328.5l8.661,5v10l-8.661,5l-8.66-5v-10L188.134,328.5z" fill="#4C85B6"/>
  <path d="M188.134,348.5l8.661,5v10l-8.661,5l-8.66-5v-10L188.134,348.5z" fill="#00216D"/>
  <path d="M188.134,368.5l8.661,5v10l-8.661,5l-8.66-5v-10L188.134,368.5z" fill="#6A96C0"/>
  <path d="M188.134,388.5l8.661,5v10l-8.661,5l-8.66-5v-10L188.134,388.5z" fill="#7CA1C7"/>
  <path d="M188.134,408.5l8.661,5v10l-8.661,5l-8.66-5v-10L188.134,408.5z" fill="#00448A"/>
  <path d="M188.134,428.5l8.661,5v10l-8.661,5l-8.66-5v-10L188.134,428.5z" fill="#001D69"/>
  <path d="M188.134,448.5l8.661,5v10l-8.661,5l-8.66-5v-10L188.134,448.5z" fill="#00075D"/>
  <path d="M188.134,468.5l8.661,5v10l-8.661,5l-8.66-5v-10L188.134,468.5z" fill="#003C84"/>
  <path d="M188.134,488.5l8.661,5v10l-8.661,5l-8.66-5v-10L188.134,488.5z" fill="#00619E"/>
  <path d="M188.134,508.5l8.661,5v10l-8.661,5l-8.66-5v-10L188.134,508.5z" fill="#00307A"/>
  <path d="M188.134,528.5l8.661,5v10l-8.661,5l-8.66-5v-10L188.134,528.5z" fill="#5F8FBC"/>
  <path d="M188.134,548.5l8.661,5v10l-8.661,5l-8.66-5v-10L188.134,548.5z" fill="#93B0D1"/>
  <path d="M188.134,568.5l8.661,5v10l-8.661,5l-8.66-5v-10L188.134,568.5z" fill="#2F78AE"/>
  <path d="M188.134,588.5l8.661,5v10l-8.661,5l-8.66-5v-10L188.134,588.5z" fill="#4C85B6"/>
  <path d="M188.134,608.5l8.661,5v10l-8.661,5l-8.66-5v-10L188.134,608.5z" fill="#00236F"/>
  <path d="M188.134,628.5l8.661,5v10l-8.661,5l-8.66-5v-10L188.134,628.5z" fill="#96B2D2"/>
  <path d="M205.455,158.5l8.66,5v10l-8.66,5l-8.66-5v-10L205.455,158.5z" fill="#367BB0"/>
  <path d="M205.455,178.5l8.66,5v10l-8.66,5l-8.66-5v-10L205.455,178.5z" fill="#A7BED9"/>
  <path d="M205.455,198.5l8.66,5v10l-8.66,5l-8.66-5v-10L205.455,198.5z" fill="#001B68"/>
  <path d="M205.455,218.5l8.66,5v10l-8.66,5l-8.66-5v-10L205.455,218.5z" fill="#6492BE"/>
  <path d="M205.455,238.5l8.66,5v10l-8.66,5l-8.66-5v-10L205.455,238.5z" fill="#00629F"/>
  <path d="M205.455,258.5l8.66,5v10l-8.66,5l-8.66-5v-10L205.455,258.5z" fill="#9CB7D5"/>
  <path d="M205.455,278.5l8.66,5v10l-8.66,5l-8.66-5v-10L205.455,278.5z" fill="#6090BD"/>
  <path d="M205.455,298.5l8.66,5v10l-8.66,5l-8.66-5v-10L205.455,298.5z" fill="#00478C"/>
  <path d="M205.455,318.5l8.66,5v10l-8.66,5l-8.66-5v-10L205.455,318.5z" fill="#000D5F"/>
  <path d="M205.455,338.5l8.66,5v10l-8.66,5l-8.66-5v-10L205.455,338.5z" fill="#004288"/>
  <path d="M205.455,358.5l8.66,5v10l-8.66,5l-8.66-5v-10L205.455,358.5z" fill="#001866"/>
  <path d="M205.455,378.5l8.66,5v10l-8.66,5l-8.66-5v-10L205.455,378.5z" fill="#006EA7"/>
  <path d="M205.455,398.5l8.66,5v10l-8.66,5l-8.66-5v-10L205.455,398.5z" fill="#1070A8"/>
  <path d="M205.455,418.5l8.66,5v10l-8.66,5l-8.66-5v-10L205.455,418.5z" fill="#7CA1C7"/>
  <path d="M205.455,438.5l8.66,5v10l-8.66,5l-8.66-5v-10L205.455,438.5z" fill="#00307A"/>
  <path d="M205.455,458.5l8.66,5v10l-8.66,5l-8.66-5v-10L205.455,458.5z" fill="#005193"/>
  <path d="M205.455,478.5l8.66,5v10l-8.66,5l-8.66-5v-10L205.455,478.5z" fill="#3A7DB0"/>
  <path d="M205.455,498.5l8.66,5v10l-8.66,5l-8.66-5v-10L205.455,498.5z" fill="#387CB0"/>
  <path d="M205.455,518.5l8.66,5v10l-8.66,5l-8.66-5v-10L205.455,518.5z" fill="#005395"/>
  <path d="M205.455,538.5l8.66,5v10l-8.66,5l-8.66-5v-10L205.455,538.5z" fill="#001B68"/>
  <path d="M205.455,558.5l8.66,5v10l-8.66,5l-8.66-5v-10L205.455,558.5z" fill="#005A99"/>
  <path d="M205.455,578.5l8.66,5v10l-8.66,5l-8.66-5v-10L205.455,578.5z" fill="#1371A9"/>
  <path d="M205.455,598.5l8.66,5v10l-8.66,5l-8.66-5v-10L205.455,598.5z" fill="#000059"/>
  <path d="M205.455,618.5l8.66,5v10l-8.66,5l-8.66-5v-10L205.455,618.5z" fill="#002B76"/>
  <path d="M205.455,638.5l8.66,5v10l-8.66,5l-8.66-5v-10L205.455,638.5z" fill="#005898"/>
  <path d="M222.775,148.5l8.66,5v10l-8.66,5l-8.66-5v-10L222.775,148.5z" fill="#9BB6D4"/>
  <path d="M222.775,168.5l8.66,5v10l-8.66,5l-8.66-5v-10L222.775,168.5z" fill="#8EADCF"/>
  <path d="M222.775,188.5l8.66,5v10l-8.66,5l-8.66-5v-10L222.775,188.5z" fill="#005293"/>
  <path d="M222.775,208.5l8.66,5v10l-8.66,5l-8.66-5v-10L222.775,208.5z" fill="#80A4C9"/>
  <path d="M222.775,228.5l8.66,5v10l-8.66,5l-8.66-5v-10L222.775,228.5z" fill="#83A6CA"/>
  <path d="M222.775,248.5l8.66,5v10l-8.66,5l-8.66-5v-10L222.775,248.5z" fill="#001E6A"/>
  <path d="M222.775,268.5l8.66,5v10l-8.66,5l-8.66-5v-10L222.775,268.5z" fill="#002B76"/>
  <path d="M222.775,288.5l8.66,5v10l-8.66,5l-8.66-5v-10L222.775,288.5z" fill="#000F60"/>
  <path d="M222.775,308.5l8.66,5v10l-8.66,5l-8.66-5v-10L222.775,308.5z" fill="#83A6CA"/>
  <path d="M222.775,328.5l8.66,5v10l-8.66,5l-8.66-5v-10L222.775,328.5z" fill="#001B68"/>
  <path d="M222.775,348.5l8.66,5v10l-8.66,5l-8.66-5v-10L222.775,348.5z" fill="#00075D"/>
  <path d="M222.775,368.5l8.66,5v10l-8.66,5l-8.66-5v-10L222.775,368.5z" fill="#00347D"/>
  <path d="M222.775,388.5l8.66,5v10l-8.66,5l-8.66-5v-10L222.775,388.5z" fill="#006CA5"/>
  <path d="M222.775,408.5l8.66,5v10l-8.66,5l-8.66-5v-10L222.775,408.5z" fill="#95B2D2"/>
  <path d="M222.775,428.5l8.66,5v10l-8.66,5l-8.66-5v-10L222.775,428.5z" fill="#4A84B5"/>
  <path d="M222.775,448.5l8.66,5v10l-8.66,5l-8.66-5v-10L222.775,448.5z" fill="#5D8EBC"/>
  <path d="M222.775,468.5l8.66,5v10l-8.66,5l-8.66-5v-10L222.775,468.5z" fill="#001966"/>
  <path d="M222.775,488.5l8.66,5v10l-8.66,5l-8.66-5v-10L222.775,488.5z" fill="#002B76"/>
  <path d="M222.775,508.5l8.66,5v10l-8.66,5l-8.66-5v-10L222.775,508.5z" fill="#00337D"/>
  <path d="M222.775,528.5l8.66,5v10l-8.66,5l-8.66-5v-10L222.775,528.5z" fill="#00236F"/>
  <path d="M222.775,548.5l8.66,5v10l-8.66,5l-8.66-5v-10L222.775,548.5z" fill="#789EC6"/>
  <path d="M222.775,568.5l8.66,5v10l-8.66,5l-8.66-5v-10L222.775,568.5z" fill="#0068A3"/>
  <path d="M222.775,588.5l8.66,5v10l-8.66,5l-8.66-5v-10L222.775,588.5z" fill="#00619E"/>
  <path d="M222.775,608.5l8.66,5v10l-8.66,5l-8.66-5v-10L222.775,608.5z" fill="#003680"/>
  <path d="M222.775,628.5l8.66,5v10l-8.66,5l-8.66-5v-10L222.775,628.5z" fill="#95B2D2"/>
  <path d="M222.775,648.5l8.66,5v10l-8.66,5l-8.66-5v-10L222.775,648.5z" fill="#2174AB"/>
  <path d="M240.096,138.5l8.66,5v10l-8.66,5l-8.661-5v-10L240.096,138.5z" fill="#004E91"/>
  <path d="M240.096,158.5l8.66,5v10l-8.66,5l-8.661-5v-10L240.096,158.5z" fill="#9BB6D4"/>
  <path d="M240.096,178.5l8.66,5v10l-8.66,5l-8.661-5v-10L240.096,178.5z" fill="#00478C"/>
  <path d="M240.096,198.5l8.66,5v10l-8.66,5l-8.661-5v-10L240.096,198.5z" fill="#005294"/>
  <path d="M240.096,218.5l8.66,5v10l-8.66,5l-8.661-5v-10L240.096,218.5z" fill="#000059"/>
  <path d="M240.096,238.5l8.66,5v10l-8.66,5l-8.661-5v-10L240.096,238.5z" fill="#00005A"/>
  <path d="M240.096,258.5l8.66,5v10l-8.66,5l-8.661-5v-10L240.096,258.5z" fill="#2374AB"/>
  <path d="M240.096,278.5l8.66,5v10l-8.66,5l-8.661-5v-10L240.096,278.5z" fill="#006DA6"/>
  <path d="M240.096,298.5l8.66,5v10l-8.66,5l-8.661-5v-10L240.096,298.5z" fill="#8EADCF"/>
  <path d="M240.096,318.5l8.66,5v10l-8.66,5l-8.661-5v-10L240.096,318.5z" fill="#86A7CB"/>
  <path d="M240.096,338.5l8.66,5v10l-8.66,5l-8.661-5v-10L240.096,338.5z" fill="#003982"/>
  <path d="M240.096,358.5l8.66,5v10l-8.66,5l-8.661-5v-10L240.096,358.5z" fill="#00357F"/>
  <path d="M240.096,378.5l8.66,5v10l-8.66,5l-8.661-5v-10L240.096,378.5z" fill="#005999"/>
  <path d="M240.096,398.5l8.66,5v10l-8.66,5l-8.661-5v-10L240.096,398.5z" fill="#001B68"/>
  <path d="M240.096,418.5l8.66,5v10l-8.66,5l-8.661-5v-10L240.096,418.5z" fill="#82A5CA"/>
  <path d="M240.096,438.5l8.66,5v10l-8.66,5l-8.661-5v-10L240.096,438.5z" fill="#7BA0C7"/>
  <path d="M240.096,458.5l8.66,5v10l-8.66,5l-8.661-5v-10L240.096,458.5z" fill="#00005A"/>
  <path d="M240.096,478.5l8.66,5v10l-8.66,5l-8.661-5v-10L240.096,478.5z" fill="#00206D"/>
  <path d="M240.096,498.5l8.66,5v10l-8.66,5l-8.661-5v-10L240.096,498.5z" fill="#003B83"/>
  <path d="M240.096,518.5l8.66,5v10l-8.66,5l-8.661-5v-10L240.096,518.5z" fill="#7FA3C9"/>
  <path d="M240.096,538.5l8.66,5v10l-8.66,5l-8.661-5v-10L240.096,538.5z" fill="#005F9D"/>
  <path d="M240.096,558.5l8.66,5v10l-8.66,5l-8.661-5v-10L240.096,558.5z" fill="#6291BD"/>
  <path d="M240.096,578.5l8.66,5v10l-8.66,5l-8.661-5v-10L240.096,578.5z" fill="#004288"/>
  <path d="M240.096,598.5l8.66,5v10l-8.66,5l-8.661-5v-10L240.096,598.5z" fill="#A7BED9"/>
  <path d="M240.096,618.5l8.66,5v10l-8.66,5l-8.661-5v-10L240.096,618.5z" fill="#2876AC"/>
  <path d="M240.096,638.5l8.66,5v10l-8.66,5l-8.661-5v-10L240.096,638.5z" fill="#5A8CBB"/>
  <path d="M240.096,658.5l8.66,5v10l-8.66,5l-8.661-5v-10L240.096,658.5z" fill="#004B8F"/>
  <path d="M257.416,128.5l8.66,5v10l-8.66,5l-8.66-5v-10L257.416,128.5z" fill="#5087B7"/>
  <path d="M257.416,148.5l8.66,5v10l-8.66,5l-8.66-5v-10L257.416,148.5z" fill="#005394"/>
  <path d="M257.416,168.5l8.66,5v10l-8.66,5l-8.66-5v-10L257.416,168.5z" fill="#00488D"/>
  <path d="M257.416,188.5l8.66,5v10l-8.66,5l-8.66-5v-10L257.416,188.5z" fill="#001F6C"/>
  <path d="M257.416,208.5l8.66,5v10l-8.66,5l-8.66-5v-10L257.416,208.5z" fill="#91AFD0"/>
  <path d="M257.416,228.5l8.66,5v10l-8.66,5l-8.66-5v-10L257.416,228.5z" fill="#5489B9"/>
  <path d="M257.416,248.5l8.66,5v10l-8.66,5l-8.66-5v-10L257.416,248.5z" fill="#000B5E"/>
  <path d="M257.416,268.5l8.66,5v10l-8.66,5l-8.66-5v-10L257.416,268.5z" fill="#4381B3"/>
  <path d="M257.416,288.5l8.66,5v10l-8.66,5l-8.66-5v-10L257.416,288.5z" fill="#5B8DBB"/>
  <path d="M257.416,308.5l8.66,5v10l-8.66,5l-8.66-5v-10L257.416,308.5z" fill="#83A5CA"/>
  <path d="M257.416,328.5l8.66,5v10l-8.66,5l-8.66-5v-10L257.416,328.5z" fill="#002874"/>
  <path d="M257.416,348.5l8.66,5v10l-8.66,5l-8.66-5v-10L257.416,348.5z" fill="#001362"/>
  <path d="M257.416,368.5l8.66,5v10l-8.66,5l-8.66-5v-10L257.416,368.5z" fill="#003C83"/>
  <path d="M257.416,388.5l8.66,5v10l-8.66,5l-8.66-5v-10L257.416,388.5z" fill="#0B70A8"/>
  <path d="M257.416,408.5l8.66,5v10l-8.66,5l-8.66-5v-10L257.416,408.5z" fill="#6A96C0"/>
  <path d="M257.416,428.5l8.66,5v10l-8.66,5l-8.66-5v-10L257.416,428.5z" fill="#000B5E"/>
  <path d="M257.416,448.5l8.66,5v10l-8.66,5l-8.66-5v-10L257.416,448.5z" fill="#002B76"/>
  <path d="M257.416,468.5l8.66,5v10l-8.66,5l-8.66-5v-10L257.416,468.5z" fill="#95B1D2"/>
  <path d="M257.416,488.5l8.66,5v10l-8.66,5l-8.66-5v-10L257.416,488.5z" fill="#6C97C1"/>
  <path d="M257.416,508.5l8.66,5v10l-8.66,5l-8.66-5v-10L257.416,508.5z" fill="#8AAACD"/>
  <path d="M257.416,528.5l8.66,5v10l-8.66,5l-8.66-5v-10L257.416,528.5z" fill="#004C8F"/>
  <path d="M257.416,548.5l8.66,5v10l-8.66,5l-8.66-5v-10L257.416,548.5z" fill="#000A5E"/>
  <path d="M257.416,568.5l8.66,5v10l-8.66,5l-8.66-5v-10L257.416,568.5z" fill="#00236F"/>
  <path d="M257.416,588.5l8.66,5v10l-8.66,5l-8.66-5v-10L257.416,588.5z" fill="#2E78AE"/>
  <path d="M257.416,608.5l8.66,5v10l-8.66,5l-8.66-5v-10L257.416,608.5z" fill="#86A8CC"/>
  <path d="M257.416,628.5l8.66,5v10l-8.66,5l-8.66-5v-10L257.416,628.5z" fill="#004A8E"/>
  <path d="M257.416,648.5l8.66,5v10l-8.66,5l-8.66-5v-10L257.416,648.5z" fill="#002975"/>
  <path d="M257.416,668.5l8.66,5v10l-8.66,5l-8.66-5v-10L257.416,668.5z" fill="#80A3C9"/>
  <path d="M274.736,118.5l8.661,5v10l-8.661,5l-8.66-5v-10L274.736,118.5z" fill="#001F6B"/>
  <path d="M274.736,138.5l8.661,5v10l-8.661,5l-8.66-5v-10L274.736,138.5z" fill="#6190BD"/>
  <path d="M274.736,158.5l8.661,5v10l-8.661,5l-8.66-5v-10L274.736,158.5z" fill="#337AAF"/>
  <path d="M274.736,178.5l8.661,5v10l-8.661,5l-8.66-5v-10L274.736,178.5z" fill="#4E86B7"/>
  <path d="M274.736,198.5l8.661,5v10l-8.661,5l-8.66-5v-10L274.736,198.5z" fill="#8CABCE"/>
  <path d="M274.736,218.5l8.661,5v10l-8.661,5l-8.66-5v-10L274.736,218.5z" fill="#004F91"/>
  <path d="M274.736,238.5l8.661,5v10l-8.661,5l-8.66-5v-10L274.736,238.5z" fill="#4782B4"/>
  <path d="M274.736,258.5l8.661,5v10l-8.661,5l-8.66-5v-10L274.736,258.5z" fill="#8DACCE"/>
  <path d="M274.736,278.5l8.661,5v10l-8.661,5l-8.66-5v-10L274.736,278.5z" fill="#003B83"/>
  <path d="M274.736,298.5l8.661,5v10l-8.661,5l-8.66-5v-10L274.736,298.5z" fill="#001E6A"/>
  <path d="M274.736,318.5l8.661,5v10l-8.661,5l-8.66-5v-10L274.736,318.5z" fill="#578BBA"/>
  <path d="M274.736,338.5l8.661,5v10l-8.661,5l-8.66-5v-10L274.736,338.5z" fill="#1972AA"/>
  <path d="M274.736,358.5l8.661,5v10l-8.661,5l-8.66-5v-10L274.736,358.5z" fill="#005697"/>
  <path d="M274.736,378.5l8.661,5v10l-8.661,5l-8.66-5v-10L274.736,378.5z" fill="#005294"/>
  <path d="M274.736,398.5l8.661,5v10l-8.661,5l-8.66-5v-10L274.736,398.5z" fill="#006BA5"/>
  <path d="M274.736,418.5l8.661,5v10l-8.661,5l-8.66-5v-10L274.736,418.5z" fill="#006DA6"/>
  <path d="M274.736,438.5l8.661,5v10l-8.661,5l-8.66-5v-10L274.736,438.5z" fill="#005998"/>
  <path d="M274.736,458.5l8.661,5v10l-8.661,5l-8.66-5v-10L274.736,458.5z" fill="#3078AE"/>
  <path d="M274.736,478.5l8.661,5v10l-8.661,5l-8.66-5v-10L274.736,478.5z" fill="#3D7EB1"/>
  <path d="M274.736,498.5l8.661,5v10l-8.661,5l-8.66-5v-10L274.736,498.5z" fill="#001664"/>
  <path d="M274.736,518.5l8.661,5v10l-8.661,5l-8.66-5v-10L274.736,518.5z" fill="#3B7DB1"/>
  <path d="M274.736,538.5l8.661,5v10l-8.661,5l-8.66-5v-10L274.736,538.5z" fill="#005394"/>
  <path d="M274.736,558.5l8.661,5v10l-8.661,5l-8.66-5v-10L274.736,558.5z" fill="#003A82"/>
  <path d="M274.736,578.5l8.661,5v10l-8.661,5l-8.66-5v-10L274.736,578.5z" fill="#004087"/>
  <path d="M274.736,598.5l8.661,5v10l-8.661,5l-8.66-5v-10L274.736,598.5z" fill="#002B76"/>
  <path d="M274.736,618.5l8.661,5v10l-8.661,5l-8.66-5v-10L274.736,618.5z" fill="#002C77"/>
  <path d="M274.736,638.5l8.661,5v10l-8.661,5l-8.66-5v-10L274.736,638.5z" fill="#002773"/>
  <path d="M274.736,658.5l8.661,5v10l-8.661,5l-8.66-5v-10L274.736,658.5z" fill="#4782B4"/>
  <path d="M274.736,678.5l8.661,5v10l-8.661,5l-8.66-5v-10L274.736,678.5z" fill="#83A6CA"/>
  <path d="M292.057,108.5l8.66,5v10l-8.66,5l-8.661-5v-10L292.057,108.5z" fill="#5F8FBD"/>
  <path d="M292.057,128.5l8.66,5v10l-8.66,5l-8.661-5v-10L292.057,128.5z" fill="#558AB9"/>
  <path d="M292.057,148.5l8.66,5v10l-8.66,5l-8.661-5v-10L292.057,148.5z" fill="#7EA2C8"/>
  <path d="M292.057,168.5l8.66,5v10l-8.66,5l-8.661-5v-10L292.057,168.5z" fill="#A1BAD7"/>
  <path d="M292.057,188.5l8.66,5v10l-8.66,5l-8.661-5v-10L292.057,188.5z" fill="#000C5F"/>
  <path d="M292.057,208.5l8.66,5v10l-8.66,5l-8.661-5v-10L292.057,208.5z" fill="#001363"/>
  <path d="M292.057,228.5l8.66,5v10l-8.66,5l-8.661-5v-10L292.057,228.5z" fill="#0065A1"/>
  <path d="M292.057,248.5l8.66,5v10l-8.66,5l-8.661-5v-10L292.057,248.5z" fill="#6F99C2"/>
  <path d="M292.057,268.5l8.66,5v10l-8.66,5l-8.661-5v-10L292.057,268.5z" fill="#005A9A"/>
  <path d="M292.057,288.5l8.66,5v10l-8.66,5l-8.661-5v-10L292.057,288.5z" fill="#93B1D1"/>
  <path d="M292.057,308.5l8.66,5v10l-8.66,5l-8.661-5v-10L292.057,308.5z" fill="#001765"/>
  <path d="M292.057,328.5l8.66,5v10l-8.66,5l-8.661-5v-10L292.057,328.5z" fill="#00468C"/>
  <path d="M292.057,348.5l8.66,5v10l-8.66,5l-8.661-5v-10L292.057,348.5z" fill="#2074AB"/>
  <path d="M292.057,368.5l8.66,5v10l-8.66,5l-8.661-5v-10L292.057,368.5z" fill="#001866"/>
  <path d="M292.057,388.5l8.66,5v10l-8.66,5l-8.661-5v-10L292.057,388.5z" fill="#003780"/>
  <path d="M292.057,408.5l8.66,5v10l-8.66,5l-8.661-5v-10L292.057,408.5z" fill="#003A82"/>
  <path d="M292.057,428.5l8.66,5v10l-8.66,5l-8.661-5v-10L292.057,428.5z" fill="#0068A3"/>
  <path d="M292.057,448.5l8.66,5v10l-8.66,5l-8.661-5v-10L292.057,448.5z" fill="#5E8FBC"/>
  <path d="M292.057,468.5l8.66,5v10l-8.66,5l-8.661-5v-10L292.057,468.5z" fill="#A0BAD6"/>
  <path d="M292.057,488.5l8.66,5v10l-8.66,5l-8.661-5v-10L292.057,488.5z" fill="#A4BCD8"/>
  <path d="M292.057,508.5l8.66,5v10l-8.66,5l-8.661-5v-10L292.057,508.5z" fill="#6C97C1"/>
  <path d="M292.057,528.5l8.66,5v10l-8.66,5l-8.661-5v-10L292.057,528.5z" fill="#00488C"/>
  <path d="M292.057,548.5l8.66,5v10l-8.66,5l-8.661-5v-10L292.057,548.5z" fill="#005999"/>
  <path d="M292.057,568.5l8.66,5v10l-8.66,5l-8.661-5v-10L292.057,568.5z" fill="#005C9B"/>
  <path d="M292.057,588.5l8.66,5v10l-8.66,5l-8.661-5v-10L292.057,588.5z" fill="#005495"/>
  <path d="M292.057,608.5l8.66,5v10l-8.66,5l-8.661-5v-10L292.057,608.5z" fill="#2976AC"/>
  <path d="M292.057,628.5l8.66,5v10l-8.66,5l-8.661-5v-10L292.057,628.5z" fill="#002773"/>
  <path d="M292.057,648.5l8.66,5v10l-8.66,5l-8.661-5v-10L292.057,648.5z" fill="#3F7FB2"/>
  <path d="M292.057,668.5l8.66,5v10l-8.66,5l-8.661-5v-10L292.057,668.5z" fill="#0067A2"/>
  <path d="M292.057,688.5l8.66,5v10l-8.66,5l-8.661-5v-10L292.057,688.5z" fill="#001D6A"/>
  <path d="M309.377,98.5l8.661,5v10l-8.661,5l-8.66-5v-10L309.377,98.5z" fill="#A6BED9"/>
  <path d="M309.377,118.5l8.661,5v10l-8.661,5l-8.66-5v-10L309.377,118.5z" fill="#719AC3"/>
  <path d="M309.377,138.5l8.661,5v10l-8.661,5l-8.66-5v-10L309.377,138.5z" fill="#005999"/>
  <path d="M309.377,158.5l8.661,5v10l-8.661,5l-8.66-5v-10L309.377,158.5z" fill="#8AAACD"/>
  <path d="M309.377,178.5l8.661,5v10l-8.661,5l-8.66-5v-10L309.377,178.5z" fill="#00226E"/>
  <path d="M309.377,198.5l8.661,5v10l-8.661,5l-8.66-5v-10L309.377,198.5z" fill="#005999"/>
  <path d="M309.377,218.5l8.661,5v10l-8.661,5l-8.66-5v-10L309.377,218.5z" fill="#8AAACD"/>
  <path d="M309.377,238.5l8.661,5v10l-8.661,5l-8.66-5v-10L309.377,238.5z" fill="#004A8E"/>
  <path d="M309.377,258.5l8.661,5v10l-8.661,5l-8.66-5v-10L309.377,258.5z" fill="#002470"/>
  <path d="M309.377,278.5l8.661,5v10l-8.661,5l-8.66-5v-10L309.377,278.5z" fill="#004D90"/>
  <path d="M309.377,298.5l8.661,5v10l-8.661,5l-8.66-5v-10L309.377,298.5z" fill="#001B68"/>
  <path d="M309.377,318.5l8.661,5v10l-8.661,5l-8.66-5v-10L309.377,318.5z" fill="#2876AC"/>
  <path d="M309.377,338.5l8.661,5v10l-8.661,5l-8.66-5v-10L309.377,338.5z" fill="#00327C"/>
  <path d="M309.377,358.5l8.661,5v10l-8.661,5l-8.66-5v-10L309.377,358.5z" fill="#001564"/>
  <path d="M309.377,378.5l8.661,5v10l-8.661,5l-8.66-5v-10L309.377,378.5z" fill="#397CB0"/>
  <path d="M309.377,398.5l8.661,5v10l-8.661,5l-8.66-5v-10L309.377,398.5z" fill="#003881"/>
  <path d="M309.377,418.5l8.661,5v10l-8.661,5l-8.66-5v-10L309.377,418.5z" fill="#005E9C"/>
  <path d="M309.377,438.5l8.661,5v10l-8.661,5l-8.66-5v-10L309.377,438.5z" fill="#799FC6"/>
  <path d="M309.377,458.5l8.661,5v10l-8.661,5l-8.66-5v-10L309.377,458.5z" fill="#97B3D3"/>
  <path d="M309.377,478.5l8.661,5v10l-8.661,5l-8.66-5v-10L309.377,478.5z" fill="#005B9A"/>
  <path d="M309.377,498.5l8.661,5v10l-8.661,5l-8.66-5v-10L309.377,498.5z" fill="#002A76"/>
  <path d="M309.377,518.5l8.661,5v10l-8.661,5l-8.66-5v-10L309.377,518.5z" fill="#8EADCF"/>
  <path d="M309.377,538.5l8.661,5v10l-8.661,5l-8.66-5v-10L309.377,538.5z" fill="#729BC4"/>
  <path d="M309.377,558.5l8.661,5v10l-8.661,5l-8.66-5v-10L309.377,558.5z" fill="#005495"/>
  <path d="M309.377,578.5l8.661,5v10l-8.661,5l-8.66-5v-10L309.377,578.5z" fill="#003D85"/>
  <path d="M309.377,598.5l8.661,5v10l-8.661,5l-8.66-5v-10L309.377,598.5z" fill="#00468B"/>
  <path d="M309.377,618.5l8.661,5v10l-8.661,5l-8.66-5v-10L309.377,618.5z" fill="#00065C"/>
  <path d="M309.377,638.5l8.661,5v10l-8.661,5l-8.66-5v-10L309.377,638.5z" fill="#002974"/>
  <path d="M309.377,658.5l8.661,5v10l-8.661,5l-8.66-5v-10L309.377,658.5z" fill="#1D73AA"/>
  <path d="M309.377,678.5l8.661,5v10l-8.661,5l-8.66-5v-10L309.377,678.5z" fill="#00478C"/>
  <path d="M309.377,698.5l8.661,5v10l-8.661,5l-8.66-5v-10L309.377,698.5z" fill="#001564"/>
  <path d="M326.698,88.5l8.66,5v10l-8.66,5l-8.661-5v-10L326.698,88.5z" fill="#8FAECF"/>
  <path d="M326.698,108.5l8.66,5v10l-8.66,5l-8.661-5v-10L326.698,108.5z" fill="#003C84"/>
  <path d="M326.698,128.5l8.66,5v10l-8.66,5l-8.661-5v-10L326.698,128.5z" fill="#5489B9"/>
  <path d="M326.698,148.5l8.66,5v10l-8.66,5l-8.661-5v-10L326.698,148.5z" fill="#005F9D"/>
  <path d="M326.698,168.5l8.66,5v10l-8.66,5l-8.661-5v-10L326.698,168.5z" fill="#00216D"/>
  <path d="M326.698,188.5l8.66,5v10l-8.66,5l-8.661-5v-10L326.698,188.5z" fill="#004187"/>
  <path d="M326.698,208.5l8.66,5v10l-8.66,5l-8.661-5v-10L326.698,208.5z" fill="#4783B4"/>
  <path d="M326.698,228.5l8.66,5v10l-8.66,5l-8.661-5v-10L326.698,228.5z" fill="#759DC5"/>
  <path d="M326.698,248.5l8.66,5v10l-8.66,5l-8.661-5v-10L326.698,248.5z" fill="#00307A"/>
  <path d="M326.698,268.5l8.66,5v10l-8.66,5l-8.661-5v-10L326.698,268.5z" fill="#8FAECF"/>
  <path d="M326.698,288.5l8.66,5v10l-8.66,5l-8.661-5v-10L326.698,288.5z" fill="#00478C"/>
  <path d="M326.698,308.5l8.66,5v10l-8.66,5l-8.661-5v-10L326.698,308.5z" fill="#94B1D1"/>
  <path d="M326.698,328.5l8.66,5v10l-8.66,5l-8.661-5v-10L326.698,328.5z" fill="#4C85B6"/>
  <path d="M326.698,348.5l8.66,5v10l-8.66,5l-8.661-5v-10L326.698,348.5z" fill="#001E6B"/>
  <path d="M326.698,368.5l8.66,5v10l-8.66,5l-8.661-5v-10L326.698,368.5z" fill="#001967"/>
  <path d="M326.698,388.5l8.66,5v10l-8.66,5l-8.661-5v-10L326.698,388.5z" fill="#00458A"/>
  <path d="M326.698,408.5l8.66,5v10l-8.66,5l-8.661-5v-10L326.698,408.5z" fill="#002F7A"/>
  <path d="M326.698,428.5l8.66,5v10l-8.66,5l-8.661-5v-10L326.698,428.5z" fill="#005B9A"/>
  <path d="M326.698,448.5l8.66,5v10l-8.66,5l-8.661-5v-10L326.698,448.5z" fill="#005D9B"/>
  <path d="M326.698,468.5l8.66,5v10l-8.66,5l-8.661-5v-10L326.698,468.5z" fill="#001A67"/>
  <path d="M326.698,488.5l8.66,5v10l-8.66,5l-8.661-5v-10L326.698,488.5z" fill="#000D5F"/>
  <path d="M326.698,508.5l8.66,5v10l-8.66,5l-8.661-5v-10L326.698,508.5z" fill="#00478C"/>
  <path d="M326.698,528.5l8.66,5v10l-8.66,5l-8.661-5v-10L326.698,528.5z" fill="#598CBA"/>
  <path d="M326.698,548.5l8.66,5v10l-8.66,5l-8.661-5v-10L326.698,548.5z" fill="#6C97C1"/>
  <path d="M326.698,568.5l8.66,5v10l-8.66,5l-8.661-5v-10L326.698,568.5z" fill="#4883B5"/>
  <path d="M326.698,588.5l8.66,5v10l-8.66,5l-8.661-5v-10L326.698,588.5z" fill="#004C90"/>
  <path d="M326.698,608.5l8.66,5v10l-8.66,5l-8.661-5v-10L326.698,608.5z" fill="#00337D"/>
  <path d="M326.698,628.5l8.66,5v10l-8.66,5l-8.661-5v-10L326.698,628.5z" fill="#00085D"/>
  <path d="M326.698,648.5l8.66,5v10l-8.66,5l-8.661-5v-10L326.698,648.5z" fill="#7EA2C8"/>
  <path d="M326.698,668.5l8.66,5v10l-8.66,5l-8.661-5v-10L326.698,668.5z" fill="#002471"/>
  <path d="M326.698,688.5l8.66,5v10l-8.66,5l-8.661-5v-10L326.698,688.5z" fill="#005193"/>
  <path d="M326.698,708.5l8.66,5v10l-8.66,5l-8.661-5v-10L326.698,708.5z" fill="#00468B"/>
  <path d="M344.019,78.5l8.66,5v10l-8.66,5l-8.66-5v-10L344.019,78.5z" fill="#94B1D1"/>
  <path d="M344.019,98.5l8.66,5v10l-8.66,5l-8.66-5v-10L344.019,98.5z" fill="#6995C0"/>
  <path d="M344.019,118.5l8.66,5v10l-8.66,5l-8.66-5v-10L344.019,118.5z" fill="#00065D"/>
  <path d="M344.019,138.5l8.66,5v10l-8.66,5l-8.66-5v-10L344.019,138.5z" fill="#7BA0C7"/>
  <path d="M344.019,158.5l8.66,5v10l-8.66,5l-8.66-5v-10L344.019,158.5z" fill="#8DACCE"/>
  <path d="M344.019,178.5l8.66,5v10l-8.66,5l-8.66-5v-10L344.019,178.5z" fill="#005A99"/>
  <path d="M344.019,198.5l8.66,5v10l-8.66,5l-8.66-5v-10L344.019,198.5z" fill="#002F7A"/>
  <path d="M344.019,218.5l8.66,5v10l-8.66,5l-8.66-5v-10L344.019,218.5z" fill="#002874"/>
  <path d="M344.019,238.5l8.66,5v10l-8.66,5l-8.66-5v-10L344.019,238.5z" fill="#002874"/>
  <path d="M344.019,258.5l8.66,5v10l-8.66,5l-8.66-5v-10L344.019,258.5z" fill="#004288"/>
  <path d="M344.019,278.5l8.66,5v10l-8.66,5l-8.66-5v-10L344.019,278.5z" fill="#00307A"/>
  <path d="M344.019,298.5l8.66,5v10l-8.66,5l-8.66-5v-10L344.019,298.5z" fill="#6D98C2"/>
  <path d="M344.019,318.5l8.66,5v10l-8.66,5l-8.66-5v-10L344.019,318.5z" fill="#00619E"/>
  <path d="M344.019,338.5l8.66,5v10l-8.66,5l-8.66-5v-10L344.019,338.5z" fill="#006BA5"/>
  <path d="M344.019,358.5l8.66,5v10l-8.66,5l-8.66-5v-10L344.019,358.5z" fill="#00075D"/>
  <path d="M344.019,378.5l8.66,5v10l-8.66,5l-8.66-5v-10L344.019,378.5z" fill="#001161"/>
  <path d="M344.019,398.5l8.66,5v10l-8.66,5l-8.66-5v-10L344.019,398.5z" fill="#002B76"/>
  <path d="M344.019,418.5l8.66,5v10l-8.66,5l-8.66-5v-10L344.019,418.5z" fill="#004389"/>
  <path d="M344.019,438.5l8.66,5v10l-8.66,5l-8.66-5v-10L344.019,438.5z" fill="#002975"/>
  <path d="M344.019,458.5l8.66,5v10l-8.66,5l-8.66-5v-10L344.019,458.5z" fill="#5B8DBB"/>
  <path d="M344.019,478.5l8.66,5v10l-8.66,5l-8.66-5v-10L344.019,478.5z" fill="#002773"/>
  <path d="M344.019,498.5l8.66,5v10l-8.66,5l-8.66-5v-10L344.019,498.5z" fill="#001161"/>
  <path d="M344.019,518.5l8.66,5v10l-8.66,5l-8.66-5v-10L344.019,518.5z" fill="#000F60"/>
  <path d="M344.019,538.5l8.66,5v10l-8.66,5l-8.66-5v-10L344.019,538.5z" fill="#003C83"/>
  <path d="M344.019,558.5l8.66,5v10l-8.66,5l-8.66-5v-10L344.019,558.5z" fill="#87A8CC"/>
  <path d="M344.019,578.5l8.66,5v10l-8.66,5l-8.66-5v-10L344.019,578.5z" fill="#00347E"/>
  <path d="M344.019,598.5l8.66,5v10l-8.66,5l-8.66-5v-10L344.019,598.5z" fill="#004289"/>
  <path d="M344.019,618.5l8.66,5v10l-8.66,5l-8.66-5v-10L344.019,618.5z" fill="#002F79"/>
  <path d="M344.019,638.5l8.66,5v10l-8.66,5l-8.66-5v-10L344.019,638.5z" fill="#00206C"/>
  <path d="M344.019,658.5l8.66,5v10l-8.66,5l-8.66-5v-10L344.019,658.5z" fill="#4682B4"/>
  <path d="M344.019,678.5l8.66,5v10l-8.66,5l-8.66-5v-10L344.019,678.5z" fill="#9EB8D6"/>
  <path d="M344.019,698.5l8.66,5v10l-8.66,5l-8.66-5v-10L344.019,698.5z" fill="#4D86B6"/>
  <path d="M344.019,718.5l8.66,5v10l-8.66,5l-8.66-5v-10L344.019,718.5z" fill="#2174AB"/>
  <path d="M361.339,68.5l8.66,5v10l-8.66,5l-8.66-5v-10L361.339,68.5z" fill="#001C68"/>
  <path d="M361.339,88.5l8.66,5v10l-8.66,5l-8.66-5v-10L361.339,88.5z" fill="#0067A2"/>
  <path d="M361.339,108.5l8.66,5v10l-8.66,5l-8.66-5v-10L361.339,108.5z" fill="#00307A"/>
  <path d="M361.339,128.5l8.66,5v10l-8.66,5l-8.66-5v-10L361.339,128.5z" fill="#347AAF"/>
  <path d="M361.339,148.5l8.66,5v10l-8.66,5l-8.66-5v-10L361.339,148.5z" fill="#7DA2C8"/>
  <path d="M361.339,168.5l8.66,5v10l-8.66,5l-8.66-5v-10L361.339,168.5z" fill="#3C7DB1"/>
  <path d="M361.339,188.5l8.66,5v10l-8.66,5l-8.66-5v-10L361.339,188.5z" fill="#1A72AA"/>
  <path d="M361.339,208.5l8.66,5v10l-8.66,5l-8.66-5v-10L361.339,208.5z" fill="#4B84B6"/>
  <path d="M361.339,228.5l8.66,5v10l-8.66,5l-8.66-5v-10L361.339,228.5z" fill="#9BB6D4"/>
  <path d="M361.339,248.5l8.66,5v10l-8.66,5l-8.66-5v-10L361.339,248.5z" fill="#7CA1C8"/>
  <path d="M361.339,268.5l8.66,5v10l-8.66,5l-8.66-5v-10L361.339,268.5z" fill="#00448A"/>
  <path d="M361.339,288.5l8.66,5v10l-8.66,5l-8.66-5v-10L361.339,288.5z" fill="#407FB2"/>
  <path d="M361.339,308.5l8.66,5v10l-8.66,5l-8.66-5v-10L361.339,308.5z" fill="#3C7DB1"/>
  <path d="M361.339,328.5l8.66,5v10l-8.66,5l-8.66-5v-10L361.339,328.5z" fill="#002A76"/>
  <path d="M361.339,348.5l8.66,5v10l-8.66,5l-8.66-5v-10L361.339,348.5z" fill="#004389"/>
  <path d="M361.339,368.5l8.66,5v10l-8.66,5l-8.66-5v-10L361.339,368.5z" fill="#096FA8"/>
  <path d="M361.339,388.5l8.66,5v10l-8.66,5l-8.66-5v-10L361.339,388.5z" fill="#005B9A"/>
  <path d="M361.339,408.5l8.66,5v10l-8.66,5l-8.66-5v-10L361.339,408.5z" fill="#87A9CC"/>
  <path d="M361.339,428.5l8.66,5v10l-8.66,5l-8.66-5v-10L361.339,428.5z" fill="#0067A2"/>
  <path d="M361.339,448.5l8.66,5v10l-8.66,5l-8.66-5v-10L361.339,448.5z" fill="#0069A3"/>
  <path d="M361.339,468.5l8.66,5v10l-8.66,5l-8.66-5v-10L361.339,468.5z" fill="#004B8F"/>
  <path d="M361.339,488.5l8.66,5v10l-8.66,5l-8.66-5v-10L361.339,488.5z" fill="#003880"/>
  <path d="M361.339,508.5l8.66,5v10l-8.66,5l-8.66-5v-10L361.339,508.5z" fill="#81A5CA"/>
  <path d="M361.339,528.5l8.66,5v10l-8.66,5l-8.66-5v-10L361.339,528.5z" fill="#000F60"/>
  <path d="M361.339,548.5l8.66,5v10l-8.66,5l-8.66-5v-10L361.339,548.5z" fill="#00226F"/>
  <path d="M361.339,568.5l8.66,5v10l-8.66,5l-8.66-5v-10L361.339,568.5z" fill="#006AA5"/>
  <path d="M361.339,588.5l8.66,5v10l-8.66,5l-8.66-5v-10L361.339,588.5z" fill="#002B76"/>
  <path d="M361.339,608.5l8.66,5v10l-8.66,5l-8.66-5v-10L361.339,608.5z" fill="#96B3D2"/>
  <path d="M361.339,628.5l8.66,5v10l-8.66,5l-8.66-5v-10L361.339,628.5z" fill="#00458B"/>
  <path d="M361.339,648.5l8.66,5v10l-8.66,5l-8.66-5v-10L361.339,648.5z" fill="#003A83"/>
  <path d="M361.339,668.5l8.66,5v10l-8.66,5l-8.66-5v-10L361.339,668.5z" fill="#95B2D2"/>
  <path d="M361.339,688.5l8.66,5v10l-8.66,5l-8.66-5v-10L361.339,688.5z" fill="#00075D"/>
  <path d="M361.339,708.5l8.66,5v10l-8.66,5l-8.66-5v-10L361.339,708.5z" fill="#5188B8"/>
  <path d="M361.339,728.5l8.66,5v10l-8.66,5l-8.66-5v-10L361.339,728.5z" fill="#000C5F"/>
  <path d="M378.659,58.5l8.661,5v10l-8.661,5l-8.66-5v-10L378.659,58.5z" fill="#0065A1"/>
  <path d="M378.659,78.5l8.661,5v10l-8.661,5l-8.66-5v-10L378.659,78.5z" fill="#90AED0"/>
  <path d="M378.659,98.5l8.661,5v10l-8.661,5l-8.66-5v-10L378.659,98.5z" fill="#8BABCE"/>
  <path d="M378.659,118.5l8.661,5v10l-8.661,5l-8.66-5v-10L378.659,118.5z" fill="#001161"/>
  <path d="M378.659,138.5l8.661,5v10l-8.661,5l-8.66-5v-10L378.659,138.5z" fill="#2B77AD"/>
  <path d="M378.659,158.5l8.661,5v10l-8.661,5l-8.66-5v-10L378.659,158.5z" fill="#5489B9"/>
  <path d="M378.659,178.5l8.661,5v10l-8.661,5l-8.66-5v-10L378.659,178.5z" fill="#00206C"/>
  <path d="M378.659,198.5l8.661,5v10l-8.661,5l-8.66-5v-10L378.659,198.5z" fill="#5187B7"/>
  <path d="M378.659,218.5l8.661,5v10l-8.661,5l-8.66-5v-10L378.659,218.5z" fill="#9EB8D6"/>
  <path d="M378.659,238.5l8.661,5v10l-8.661,5l-8.66-5v-10L378.659,238.5z" fill="#003982"/>
  <path d="M378.659,258.5l8.661,5v10l-8.661,5l-8.66-5v-10L378.659,258.5z" fill="#A6BED9"/>
  <path d="M378.659,278.5l8.661,5v10l-8.661,5l-8.66-5v-10L378.659,278.5z" fill="#001B68"/>
  <path d="M378.659,298.5l8.661,5v10l-8.661,5l-8.66-5v-10L378.659,298.5z" fill="#00226E"/>
  <path d="M378.659,318.5l8.661,5v10l-8.661,5l-8.66-5v-10L378.659,318.5z" fill="#00468B"/>
  <path d="M378.659,338.5l8.661,5v10l-8.661,5l-8.66-5v-10L378.659,338.5z" fill="#002E79"/>
  <path d="M378.659,358.5l8.661,5v10l-8.661,5l-8.66-5v-10L378.659,358.5z" fill="#004087"/>
  <path d="M378.659,378.5l8.661,5v10l-8.661,5l-8.66-5v-10L378.659,378.5z" fill="#005C9B"/>
  <path d="M378.659,398.5l8.661,5v10l-8.661,5l-8.66-5v-10L378.659,398.5z" fill="#91AFD0"/>
  <path d="M378.659,418.5l8.661,5v10l-8.661,5l-8.66-5v-10L378.659,418.5z" fill="#578BB9"/>
  <path d="M378.659,438.5l8.661,5v10l-8.661,5l-8.66-5v-10L378.659,438.5z" fill="#004A8E"/>
  <path d="M378.659,458.5l8.661,5v10l-8.661,5l-8.66-5v-10L378.659,458.5z" fill="#002571"/>
  <path d="M378.659,478.5l8.661,5v10l-8.661,5l-8.66-5v-10L378.659,478.5z" fill="#00609E"/>
  <path d="M378.659,498.5l8.661,5v10l-8.661,5l-8.66-5v-10L378.659,498.5z" fill="#A3BBD7"/>
  <path d="M378.659,518.5l8.661,5v10l-8.661,5l-8.66-5v-10L378.659,518.5z" fill="#8FAECF"/>
  <path d="M378.659,538.5l8.661,5v10l-8.661,5l-8.66-5v-10L378.659,538.5z" fill="#6090BD"/>
  <path d="M378.659,558.5l8.661,5v10l-8.661,5l-8.66-5v-10L378.659,558.5z" fill="#0D70A8"/>
  <path d="M378.659,578.5l8.661,5v10l-8.661,5l-8.66-5v-10L378.659,578.5z" fill="#7099C3"/>
  <path d="M378.659,598.5l8.661,5v10l-8.661,5l-8.66-5v-10L378.659,598.5z" fill="#4E86B7"/>
  <path d="M378.659,618.5l8.661,5v10l-8.661,5l-8.66-5v-10L378.659,618.5z" fill="#4682B4"/>
  <path d="M378.659,638.5l8.661,5v10l-8.661,5l-8.66-5v-10L378.659,638.5z" fill="#002A75"/>
  <path d="M378.659,658.5l8.661,5v10l-8.661,5l-8.66-5v-10L378.659,658.5z" fill="#0065A1"/>
  <path d="M378.659,678.5l8.661,5v10l-8.661,5l-8.66-5v-10L378.659,678.5z" fill="#003F86"/>
  <path d="M378.659,698.5l8.661,5v10l-8.661,5l-8.66-5v-10L378.659,698.5z" fill="#00458A"/>
  <path d="M378.659,718.5l8.661,5v10l-8.661,5l-8.66-5v-10L378.659,718.5z" fill="#005F9D"/>
  <path d="M378.659,738.5l8.661,5v10l-8.661,5l-8.66-5v-10L378.659,738.5z" fill="#4581B4"/>
  <path d="M395.98,68.5l8.66,5v10l-8.66,5l-8.66-5v-10L395.98,68.5z" fill="#7EA2C8"/>
  <path d="M395.98,88.5l8.66,5v10l-8.66,5l-8.66-5v-10L395.98,88.5z" fill="#84A7CB"/>
  <path d="M395.98,108.5l8.66,5v10l-8.66,5l-8.66-5v-10L395.98,108.5z" fill="#89A9CD"/>
  <path d="M395.98,128.5l8.66,5v10l-8.66,5l-8.66-5v-10L395.98,128.5z" fill="#9DB7D5"/>
  <path d="M395.98,148.5l8.66,5v10l-8.66,5l-8.66-5v-10L395.98,148.5z" fill="#003780"/>
  <path d="M395.98,168.5l8.66,5v10l-8.66,5l-8.66-5v-10L395.98,168.5z" fill="#006CA6"/>
  <path d="M395.98,188.5l8.66,5v10l-8.66,5l-8.66-5v-10L395.98,188.5z" fill="#2475AB"/>
  <path d="M395.98,208.5l8.66,5v10l-8.66,5l-8.66-5v-10L395.98,208.5z" fill="#6693BF"/>
  <path d="M395.98,228.5l8.66,5v10l-8.66,5l-8.66-5v-10L395.98,228.5z" fill="#3A7CB0"/>
  <path d="M395.98,248.5l8.66,5v10l-8.66,5l-8.66-5v-10L395.98,248.5z" fill="#003780"/>
  <path d="M395.98,268.5l8.66,5v10l-8.66,5l-8.66-5v-10L395.98,268.5z" fill="#000B5F"/>
  <path d="M395.98,288.5l8.66,5v10l-8.66,5l-8.66-5v-10L395.98,288.5z" fill="#005697"/>
  <path d="M395.98,308.5l8.66,5v10l-8.66,5l-8.66-5v-10L395.98,308.5z" fill="#00448A"/>
  <path d="M395.98,328.5l8.66,5v10l-8.66,5l-8.66-5v-10L395.98,328.5z" fill="#00065C"/>
  <path d="M395.98,348.5l8.66,5v10l-8.66,5l-8.66-5v-10L395.98,348.5z" fill="#0068A3"/>
  <path d="M395.98,368.5l8.66,5v10l-8.66,5l-8.66-5v-10L395.98,368.5z" fill="#002874"/>
  <path d="M395.98,388.5l8.66,5v10l-8.66,5l-8.66-5v-10L395.98,388.5z" fill="#5B8DBB"/>
  <path d="M395.98,408.5l8.66,5v10l-8.66,5l-8.66-5v-10L395.98,408.5z" fill="#87A8CC"/>
  <path d="M395.98,428.5l8.66,5v10l-8.66,5l-8.66-5v-10L395.98,428.5z" fill="#001664"/>
  <path d="M395.98,448.5l8.66,5v10l-8.66,5l-8.66-5v-10L395.98,448.5z" fill="#002B76"/>
  <path d="M395.98,468.5l8.66,5v10l-8.66,5l-8.66-5v-10L395.98,468.5z" fill="#00317B"/>
  <path d="M395.98,488.5l8.66,5v10l-8.66,5l-8.66-5v-10L395.98,488.5z" fill="#004389"/>
  <path d="M395.98,508.5l8.66,5v10l-8.66,5l-8.66-5v-10L395.98,508.5z" fill="#004389"/>
  <path d="M395.98,528.5l8.66,5v10l-8.66,5l-8.66-5v-10L395.98,528.5z" fill="#2976AC"/>
  <path d="M395.98,548.5l8.66,5v10l-8.66,5l-8.66-5v-10L395.98,548.5z" fill="#00005A"/>
  <path d="M395.98,568.5l8.66,5v10l-8.66,5l-8.66-5v-10L395.98,568.5z" fill="#729BC4"/>
  <path d="M395.98,588.5l8.66,5v10l-8.66,5l-8.66-5v-10L395.98,588.5z" fill="#6190BD"/>
  <path d="M395.98,608.5l8.66,5v10l-8.66,5l-8.66-5v-10L395.98,608.5z" fill="#588BBA"/>
  <path d="M395.98,628.5l8.66,5v10l-8.66,5l-8.66-5v-10L395.98,628.5z" fill="#002672"/>
  <path d="M395.98,648.5l8.66,5v10l-8.66,5l-8.66-5v-10L395.98,648.5z" fill="#588BBA"/>
  <path d="M395.98,668.5l8.66,5v10l-8.66,5l-8.66-5v-10L395.98,668.5z" fill="#3E7EB2"/>
  <path d="M395.98,688.5l8.66,5v10l-8.66,5l-8.66-5v-10L395.98,688.5z" fill="#387CB0"/>
  <path d="M395.98,708.5l8.66,5v10l-8.66,5l-8.66-5v-10L395.98,708.5z" fill="#93B0D1"/>
  <path d="M395.98,728.5l8.66,5v10l-8.66,5l-8.66-5v-10L395.98,728.5z" fill="#006AA4"/>
  <path d="M413.301,78.5l8.66,5v10l-8.66,5l-8.66-5v-10L413.301,78.5z" fill="#A4BCD8"/>
  <path d="M413.301,98.5l8.66,5v10l-8.66,5l-8.66-5v-10L413.301,98.5z" fill="#001664"/>
  <path d="M413.301,118.5l8.66,5v10l-8.66,5l-8.66-5v-10L413.301,118.5z" fill="#001362"/>
  <path d="M413.301,138.5l8.66,5v10l-8.66,5l-8.66-5v-10L413.301,138.5z" fill="#387CB0"/>
  <path d="M413.301,158.5l8.66,5v10l-8.66,5l-8.66-5v-10L413.301,158.5z" fill="#6B96C1"/>
  <path d="M413.301,178.5l8.66,5v10l-8.66,5l-8.66-5v-10L413.301,178.5z" fill="#001A67"/>
  <path d="M413.301,198.5l8.66,5v10l-8.66,5l-8.66-5v-10L413.301,198.5z" fill="#000A5E"/>
  <path d="M413.301,218.5l8.66,5v10l-8.66,5l-8.66-5v-10L413.301,218.5z" fill="#0066A2"/>
  <path d="M413.301,238.5l8.66,5v10l-8.66,5l-8.66-5v-10L413.301,238.5z" fill="#00357E"/>
  <path d="M413.301,258.5l8.66,5v10l-8.66,5l-8.66-5v-10L413.301,258.5z" fill="#00035B"/>
  <path d="M413.301,278.5l8.66,5v10l-8.66,5l-8.66-5v-10L413.301,278.5z" fill="#00226F"/>
  <path d="M413.301,298.5l8.66,5v10l-8.66,5l-8.66-5v-10L413.301,298.5z" fill="#002A75"/>
  <path d="M413.301,318.5l8.66,5v10l-8.66,5l-8.66-5v-10L413.301,318.5z" fill="#001966"/>
  <path d="M413.301,338.5l8.66,5v10l-8.66,5l-8.66-5v-10L413.301,338.5z" fill="#98B4D3"/>
  <path d="M413.301,358.5l8.66,5v10l-8.66,5l-8.66-5v-10L413.301,358.5z" fill="#4F86B7"/>
  <path d="M413.301,378.5l8.66,5v10l-8.66,5l-8.66-5v-10L413.301,378.5z" fill="#003C84"/>
  <path d="M413.301,398.5l8.66,5v10l-8.66,5l-8.66-5v-10L413.301,398.5z" fill="#005697"/>
  <path d="M413.301,418.5l8.66,5v10l-8.66,5l-8.66-5v-10L413.301,418.5z" fill="#00488C"/>
  <path d="M413.301,438.5l8.66,5v10l-8.66,5l-8.66-5v-10L413.301,438.5z" fill="#7099C3"/>
  <path d="M413.301,458.5l8.66,5v10l-8.66,5l-8.66-5v-10L413.301,458.5z" fill="#002C77"/>
  <path d="M413.301,478.5l8.66,5v10l-8.66,5l-8.66-5v-10L413.301,478.5z" fill="#00357F"/>
  <path d="M413.301,498.5l8.66,5v10l-8.66,5l-8.66-5v-10L413.301,498.5z" fill="#6995C0"/>
  <path d="M413.301,518.5l8.66,5v10l-8.66,5l-8.66-5v-10L413.301,518.5z" fill="#002E79"/>
  <path d="M413.301,538.5l8.66,5v10l-8.66,5l-8.66-5v-10L413.301,538.5z" fill="#0064A0"/>
  <path d="M413.301,558.5l8.66,5v10l-8.66,5l-8.66-5v-10L413.301,558.5z" fill="#00206C"/>
  <path d="M413.301,578.5l8.66,5v10l-8.66,5l-8.66-5v-10L413.301,578.5z" fill="#749CC4"/>
  <path d="M413.301,598.5l8.66,5v10l-8.66,5l-8.66-5v-10L413.301,598.5z" fill="#9AB5D4"/>
  <path d="M413.301,618.5l8.66,5v10l-8.66,5l-8.66-5v-10L413.301,618.5z" fill="#002F7A"/>
  <path d="M413.301,638.5l8.66,5v10l-8.66,5l-8.66-5v-10L413.301,638.5z" fill="#00236F"/>
  <path d="M413.301,658.5l8.66,5v10l-8.66,5l-8.66-5v-10L413.301,658.5z" fill="#001664"/>
  <path d="M413.301,678.5l8.66,5v10l-8.66,5l-8.66-5v-10L413.301,678.5z" fill="#00085D"/>
  <path d="M413.301,698.5l8.66,5v10l-8.66,5l-8.66-5v-10L413.301,698.5z" fill="#00226E"/>
  <path d="M413.301,718.5l8.66,5v10l-8.66,5l-8.66-5v-10L413.301,718.5z" fill="#001F6C"/>
  <path d="M430.621,88.5l8.66,5v10l-8.66,5l-8.66-5v-10L430.621,88.5z" fill="#002470"/>
  <path d="M430.621,108.5l8.66,5v10l-8.66,5l-8.66-5v-10L430.621,108.5z" fill="#001061"/>
  <path d="M430.621,128.5l8.66,5v10l-8.66,5l-8.66-5v-10L430.621,128.5z" fill="#2374AB"/>
  <path d="M430.621,148.5l8.66,5v10l-8.66,5l-8.66-5v-10L430.621,148.5z" fill="#00347E"/>
  <path d="M430.621,168.5l8.66,5v10l-8.66,5l-8.66-5v-10L430.621,168.5z" fill="#2D78AD"/>
  <path d="M430.621,188.5l8.66,5v10l-8.66,5l-8.66-5v-10L430.621,188.5z" fill="#002E79"/>
  <path d="M430.621,208.5l8.66,5v10l-8.66,5l-8.66-5v-10L430.621,208.5z" fill="#004489"/>
  <path d="M430.621,228.5l8.66,5v10l-8.66,5l-8.66-5v-10L430.621,228.5z" fill="#002A75"/>
  <path d="M430.621,248.5l8.66,5v10l-8.66,5l-8.66-5v-10L430.621,248.5z" fill="#719AC3"/>
  <path d="M430.621,268.5l8.66,5v10l-8.66,5l-8.66-5v-10L430.621,268.5z" fill="#9DB7D5"/>
  <path d="M430.621,288.5l8.66,5v10l-8.66,5l-8.66-5v-10L430.621,288.5z" fill="#8DACCE"/>
  <path d="M430.621,308.5l8.66,5v10l-8.66,5l-8.66-5v-10L430.621,308.5z" fill="#005394"/>
  <path d="M430.621,328.5l8.66,5v10l-8.66,5l-8.66-5v-10L430.621,328.5z" fill="#558AB9"/>
  <path d="M430.621,348.5l8.66,5v10l-8.66,5l-8.66-5v-10L430.621,348.5z" fill="#00468B"/>
  <path d="M430.621,368.5l8.66,5v10l-8.66,5l-8.66-5v-10L430.621,368.5z" fill="#006BA5"/>
  <path d="M430.621,388.5l8.66,5v10l-8.66,5l-8.66-5v-10L430.621,388.5z" fill="#4481B3"/>
  <path d="M430.621,408.5l8.66,5v10l-8.66,5l-8.66-5v-10L430.621,408.5z" fill="#001262"/>
  <path d="M430.621,428.5l8.66,5v10l-8.66,5l-8.66-5v-10L430.621,428.5z" fill="#005092"/>
  <path d="M430.621,448.5l8.66,5v10l-8.66,5l-8.66-5v-10L430.621,448.5z" fill="#7CA1C8"/>
  <path d="M430.621,468.5l8.66,5v10l-8.66,5l-8.66-5v-10L430.621,468.5z" fill="#004C8F"/>
  <path d="M430.621,488.5l8.66,5v10l-8.66,5l-8.66-5v-10L430.621,488.5z" fill="#005D9B"/>
  <path d="M430.621,508.5l8.66,5v10l-8.66,5l-8.66-5v-10L430.621,508.5z" fill="#001967"/>
  <path d="M430.621,528.5l8.66,5v10l-8.66,5l-8.66-5v-10L430.621,528.5z" fill="#004389"/>
  <path d="M430.621,548.5l8.66,5v10l-8.66,5l-8.66-5v-10L430.621,548.5z" fill="#00478C"/>
  <path d="M430.621,568.5l8.66,5v10l-8.66,5l-8.66-5v-10L430.621,568.5z" fill="#005F9D"/>
  <path d="M430.621,588.5l8.66,5v10l-8.66,5l-8.66-5v-10L430.621,588.5z" fill="#00025B"/>
  <path d="M430.621,608.5l8.66,5v10l-8.66,5l-8.66-5v-10L430.621,608.5z" fill="#A3BBD7"/>
  <path d="M430.621,628.5l8.66,5v10l-8.66,5l-8.66-5v-10L430.621,628.5z" fill="#85A7CB"/>
  <path d="M430.621,648.5l8.66,5v10l-8.66,5l-8.66-5v-10L430.621,648.5z" fill="#00005A"/>
  <path d="M430.621,668.5l8.66,5v10l-8.66,5l-8.66-5v-10L430.621,668.5z" fill="#003F86"/>
  <path d="M430.621,688.5l8.66,5v10l-8.66,5l-8.66-5v-10L430.621,688.5z" fill="#005B9A"/>
  <path d="M430.621,708.5l8.66,5v10l-8.66,5l-8.66-5v-10L430.621,708.5z" fill="#001F6B"/>
  <path d="M447.941,98.5l8.66,5v10l-8.66,5l-8.66-5v-10L447.941,98.5z" fill="#003C84"/>
  <path d="M447.941,118.5l8.66,5v10l-8.66,5l-8.66-5v-10L447.941,118.5z" fill="#004D90"/>
  <path d="M447.941,138.5l8.66,5v10l-8.66,5l-8.66-5v-10L447.941,138.5z" fill="#002975"/>
  <path d="M447.941,158.5l8.66,5v10l-8.66,5l-8.66-5v-10L447.941,158.5z" fill="#82A5CA"/>
  <path d="M447.941,178.5l8.66,5v10l-8.66,5l-8.66-5v-10L447.941,178.5z" fill="#367BAF"/>
  <path d="M447.941,198.5l8.66,5v10l-8.66,5l-8.66-5v-10L447.941,198.5z" fill="#000059"/>
  <path d="M447.941,218.5l8.66,5v10l-8.66,5l-8.66-5v-10L447.941,218.5z" fill="#006BA5"/>
  <path d="M447.941,238.5l8.66,5v10l-8.66,5l-8.66-5v-10L447.941,238.5z" fill="#0067A2"/>
  <path d="M447.941,258.5l8.66,5v10l-8.66,5l-8.66-5v-10L447.941,258.5z" fill="#046FA7"/>
  <path d="M447.941,278.5l8.66,5v10l-8.66,5l-8.66-5v-10L447.941,278.5z" fill="#005A99"/>
  <path d="M447.941,298.5l8.66,5v10l-8.66,5l-8.66-5v-10L447.941,298.5z" fill="#A6BED9"/>
  <path d="M447.941,318.5l8.66,5v10l-8.66,5l-8.66-5v-10L447.941,318.5z" fill="#9FB9D6"/>
  <path d="M447.941,338.5l8.66,5v10l-8.66,5l-8.66-5v-10L447.941,338.5z" fill="#A3BCD8"/>
  <path d="M447.941,358.5l8.66,5v10l-8.66,5l-8.66-5v-10L447.941,358.5z" fill="#001765"/>
  <path d="M447.941,378.5l8.66,5v10l-8.66,5l-8.66-5v-10L447.941,378.5z" fill="#4C85B6"/>
  <path d="M447.941,398.5l8.66,5v10l-8.66,5l-8.66-5v-10L447.941,398.5z" fill="#00357E"/>
  <path d="M447.941,418.5l8.66,5v10l-8.66,5l-8.66-5v-10L447.941,418.5z" fill="#00478C"/>
  <path d="M447.941,438.5l8.66,5v10l-8.66,5l-8.66-5v-10L447.941,438.5z" fill="#00347D"/>
  <path d="M447.941,458.5l8.66,5v10l-8.66,5l-8.66-5v-10L447.941,458.5z" fill="#1170A9"/>
  <path d="M447.941,478.5l8.66,5v10l-8.66,5l-8.66-5v-10L447.941,478.5z" fill="#004288"/>
  <path d="M447.941,498.5l8.66,5v10l-8.66,5l-8.66-5v-10L447.941,498.5z" fill="#005F9D"/>
  <path d="M447.941,518.5l8.66,5v10l-8.66,5l-8.66-5v-10L447.941,518.5z" fill="#397CB0"/>
  <path d="M447.941,538.5l8.66,5v10l-8.66,5l-8.66-5v-10L447.941,538.5z" fill="#347AAF"/>
  <path d="M447.941,558.5l8.66,5v10l-8.66,5l-8.66-5v-10L447.941,558.5z" fill="#001563"/>
  <path d="M447.941,578.5l8.66,5v10l-8.66,5l-8.66-5v-10L447.941,578.5z" fill="#5C8EBB"/>
  <path d="M447.941,598.5l8.66,5v10l-8.66,5l-8.66-5v-10L447.941,598.5z" fill="#8DACCE"/>
  <path d="M447.941,618.5l8.66,5v10l-8.66,5l-8.66-5v-10L447.941,618.5z" fill="#6693BF"/>
  <path d="M447.941,638.5l8.66,5v10l-8.66,5l-8.66-5v-10L447.941,638.5z" fill="#002773"/>
  <path d="M447.941,658.5l8.66,5v10l-8.66,5l-8.66-5v-10L447.941,658.5z" fill="#006EA7"/>
  <path d="M447.941,678.5l8.66,5v10l-8.66,5l-8.66-5v-10L447.941,678.5z" fill="#88A9CC"/>
  <path d="M447.941,698.5l8.66,5v10l-8.66,5l-8.66-5v-10L447.941,698.5z" fill="#006AA4"/>
  <path d="M465.262,108.5l8.66,5v10l-8.66,5l-8.66-5v-10L465.262,108.5z" fill="#8CABCE"/>
  <path d="M465.262,128.5l8.66,5v10l-8.66,5l-8.66-5v-10L465.262,128.5z" fill="#6B96C1"/>
  <path d="M465.262,148.5l8.66,5v10l-8.66,5l-8.66-5v-10L465.262,148.5z" fill="#5E8FBC"/>
  <path d="M465.262,168.5l8.66,5v10l-8.66,5l-8.66-5v-10L465.262,168.5z" fill="#00357F"/>
  <path d="M465.262,188.5l8.66,5v10l-8.66,5l-8.66-5v-10L465.262,188.5z" fill="#3F7FB2"/>
  <path d="M465.262,208.5l8.66,5v10l-8.66,5l-8.66-5v-10L465.262,208.5z" fill="#9DB7D5"/>
  <path d="M465.262,228.5l8.66,5v10l-8.66,5l-8.66-5v-10L465.262,228.5z" fill="#00327C"/>
  <path d="M465.262,248.5l8.66,5v10l-8.66,5l-8.66-5v-10L465.262,248.5z" fill="#598CBA"/>
  <path d="M465.262,268.5l8.66,5v10l-8.66,5l-8.66-5v-10L465.262,268.5z" fill="#6A96C0"/>
  <path d="M465.262,288.5l8.66,5v10l-8.66,5l-8.66-5v-10L465.262,288.5z" fill="#98B4D3"/>
  <path d="M465.262,308.5l8.66,5v10l-8.66,5l-8.66-5v-10L465.262,308.5z" fill="#729BC4"/>
  <path d="M465.262,328.5l8.66,5v10l-8.66,5l-8.66-5v-10L465.262,328.5z" fill="#00337D"/>
  <path d="M465.262,348.5l8.66,5v10l-8.66,5l-8.66-5v-10L465.262,348.5z" fill="#005898"/>
  <path d="M465.262,368.5l8.66,5v10l-8.66,5l-8.66-5v-10L465.262,368.5z" fill="#001865"/>
  <path d="M465.262,388.5l8.66,5v10l-8.66,5l-8.66-5v-10L465.262,388.5z" fill="#1E73AA"/>
  <path d="M465.262,408.5l8.66,5v10l-8.66,5l-8.66-5v-10L465.262,408.5z" fill="#001E6A"/>
  <path d="M465.262,428.5l8.66,5v10l-8.66,5l-8.66-5v-10L465.262,428.5z" fill="#005193"/>
  <path d="M465.262,448.5l8.66,5v10l-8.66,5l-8.66-5v-10L465.262,448.5z" fill="#9FB9D6"/>
  <path d="M465.262,468.5l8.66,5v10l-8.66,5l-8.66-5v-10L465.262,468.5z" fill="#4B84B5"/>
  <path d="M465.262,488.5l8.66,5v10l-8.66,5l-8.66-5v-10L465.262,488.5z" fill="#4983B5"/>
  <path d="M465.262,508.5l8.66,5v10l-8.66,5l-8.66-5v-10L465.262,508.5z" fill="#000059"/>
  <path d="M465.262,528.5l8.66,5v10l-8.66,5l-8.66-5v-10L465.262,528.5z" fill="#0065A1"/>
  <path d="M465.262,548.5l8.66,5v10l-8.66,5l-8.66-5v-10L465.262,548.5z" fill="#8EADCF"/>
  <path d="M465.262,568.5l8.66,5v10l-8.66,5l-8.66-5v-10L465.262,568.5z" fill="#6291BD"/>
  <path d="M465.262,588.5l8.66,5v10l-8.66,5l-8.66-5v-10L465.262,588.5z" fill="#0063A0"/>
  <path d="M465.262,608.5l8.66,5v10l-8.66,5l-8.66-5v-10L465.262,608.5z" fill="#0068A3"/>
  <path d="M465.262,628.5l8.66,5v10l-8.66,5l-8.66-5v-10L465.262,628.5z" fill="#84A6CB"/>
  <path d="M465.262,648.5l8.66,5v10l-8.66,5l-8.66-5v-10L465.262,648.5z" fill="#558AB9"/>
  <path d="M465.262,668.5l8.66,5v10l-8.66,5l-8.66-5v-10L465.262,668.5z" fill="#6B96C1"/>
  <path d="M465.262,688.5l8.66,5v10l-8.66,5l-8.66-5v-10L465.262,688.5z" fill="#005E9C"/>
  <path d="M482.583,118.5l8.66,5v10l-8.66,5l-8.661-5v-10L482.583,118.5z" fill="#00619E"/>
  <path d="M482.583,138.5l8.66,5v10l-8.66,5l-8.661-5v-10L482.583,138.5z" fill="#00498E"/>
  <path d="M482.583,158.5l8.66,5v10l-8.66,5l-8.661-5v-10L482.583,158.5z" fill="#6E98C2"/>
  <path d="M482.583,178.5l8.66,5v10l-8.66,5l-8.661-5v-10L482.583,178.5z" fill="#8AAACD"/>
  <path d="M482.583,198.5l8.66,5v10l-8.66,5l-8.661-5v-10L482.583,198.5z" fill="#002974"/>
  <path d="M482.583,218.5l8.66,5v10l-8.66,5l-8.661-5v-10L482.583,218.5z" fill="#789FC6"/>
  <path d="M482.583,238.5l8.66,5v10l-8.66,5l-8.661-5v-10L482.583,238.5z" fill="#9EB8D5"/>
  <path d="M482.583,258.5l8.66,5v10l-8.66,5l-8.661-5v-10L482.583,258.5z" fill="#076FA8"/>
  <path d="M482.583,278.5l8.66,5v10l-8.66,5l-8.661-5v-10L482.583,278.5z" fill="#377CB0"/>
  <path d="M482.583,298.5l8.66,5v10l-8.66,5l-8.661-5v-10L482.583,298.5z" fill="#A5BDD8"/>
  <path d="M482.583,318.5l8.66,5v10l-8.66,5l-8.661-5v-10L482.583,318.5z" fill="#000B5E"/>
  <path d="M482.583,338.5l8.66,5v10l-8.66,5l-8.661-5v-10L482.583,338.5z" fill="#001C69"/>
  <path d="M482.583,358.5l8.66,5v10l-8.66,5l-8.661-5v-10L482.583,358.5z" fill="#749CC4"/>
  <path d="M482.583,378.5l8.66,5v10l-8.66,5l-8.661-5v-10L482.583,378.5z" fill="#005294"/>
  <path d="M482.583,398.5l8.66,5v10l-8.66,5l-8.661-5v-10L482.583,398.5z" fill="#004C8F"/>
  <path d="M482.583,418.5l8.66,5v10l-8.66,5l-8.661-5v-10L482.583,418.5z" fill="#739BC4"/>
  <path d="M482.583,438.5l8.66,5v10l-8.66,5l-8.661-5v-10L482.583,438.5z" fill="#719AC3"/>
  <path d="M482.583,458.5l8.66,5v10l-8.66,5l-8.661-5v-10L482.583,458.5z" fill="#001262"/>
  <path d="M482.583,478.5l8.66,5v10l-8.66,5l-8.661-5v-10L482.583,478.5z" fill="#90AFD0"/>
  <path d="M482.583,498.5l8.66,5v10l-8.66,5l-8.661-5v-10L482.583,498.5z" fill="#001765"/>
  <path d="M482.583,518.5l8.66,5v10l-8.66,5l-8.661-5v-10L482.583,518.5z" fill="#0067A2"/>
  <path d="M482.583,538.5l8.66,5v10l-8.66,5l-8.661-5v-10L482.583,538.5z" fill="#005B9A"/>
  <path d="M482.583,558.5l8.66,5v10l-8.66,5l-8.661-5v-10L482.583,558.5z" fill="#005D9C"/>
  <path d="M482.583,578.5l8.66,5v10l-8.66,5l-8.661-5v-10L482.583,578.5z" fill="#001E6A"/>
  <path d="M482.583,598.5l8.66,5v10l-8.66,5l-8.661-5v-10L482.583,598.5z" fill="#4F87B7"/>
  <path d="M482.583,618.5l8.66,5v10l-8.66,5l-8.661-5v-10L482.583,618.5z" fill="#001A67"/>
  <path d="M482.583,638.5l8.66,5v10l-8.66,5l-8.661-5v-10L482.583,638.5z" fill="#002470"/>
  <path d="M482.583,658.5l8.66,5v10l-8.66,5l-8.661-5v-10L482.583,658.5z" fill="#5E8EBC"/>
  <path d="M482.583,678.5l8.66,5v10l-8.66,5l-8.661-5v-10L482.583,678.5z" fill="#001664"/>
  <path d="M499.903,128.5l8.66,5v10l-8.66,5l-8.66-5v-10L499.903,128.5z" fill="#005B9A"/>
  <path d="M499.903,148.5l8.66,5v10l-8.66,5l-8.66-5v-10L499.903,148.5z" fill="#85A7CB"/>
  <path d="M499.903,168.5l8.66,5v10l-8.66,5l-8.66-5v-10L499.903,168.5z" fill="#00206C"/>
  <path d="M499.903,188.5l8.66,5v10l-8.66,5l-8.66-5v-10L499.903,188.5z" fill="#001967"/>
  <path d="M499.903,208.5l8.66,5v10l-8.66,5l-8.66-5v-10L499.903,208.5z" fill="#003C84"/>
  <path d="M499.903,228.5l8.66,5v10l-8.66,5l-8.66-5v-10L499.903,228.5z" fill="#006DA7"/>
  <path d="M499.903,248.5l8.66,5v10l-8.66,5l-8.66-5v-10L499.903,248.5z" fill="#000059"/>
  <path d="M499.903,268.5l8.66,5v10l-8.66,5l-8.66-5v-10L499.903,268.5z" fill="#6190BD"/>
  <path d="M499.903,288.5l8.66,5v10l-8.66,5l-8.66-5v-10L499.903,288.5z" fill="#004389"/>
  <path d="M499.903,308.5l8.66,5v10l-8.66,5l-8.66-5v-10L499.903,308.5z" fill="#367BAF"/>
  <path d="M499.903,328.5l8.66,5v10l-8.66,5l-8.66-5v-10L499.903,328.5z" fill="#00478C"/>
  <path d="M499.903,348.5l8.66,5v10l-8.66,5l-8.66-5v-10L499.903,348.5z" fill="#00005A"/>
  <path d="M499.903,368.5l8.66,5v10l-8.66,5l-8.66-5v-10L499.903,368.5z" fill="#002A75"/>
  <path d="M499.903,388.5l8.66,5v10l-8.66,5l-8.66-5v-10L499.903,388.5z" fill="#00367F"/>
  <path d="M499.903,408.5l8.66,5v10l-8.66,5l-8.66-5v-10L499.903,408.5z" fill="#001362"/>
  <path d="M499.903,428.5l8.66,5v10l-8.66,5l-8.66-5v-10L499.903,428.5z" fill="#8EADCF"/>
  <path d="M499.903,448.5l8.66,5v10l-8.66,5l-8.66-5v-10L499.903,448.5z" fill="#002672"/>
  <path d="M499.903,468.5l8.66,5v10l-8.66,5l-8.66-5v-10L499.903,468.5z" fill="#003981"/>
  <path d="M499.903,488.5l8.66,5v10l-8.66,5l-8.66-5v-10L499.903,488.5z" fill="#6C97C1"/>
  <path d="M499.903,508.5l8.66,5v10l-8.66,5l-8.66-5v-10L499.903,508.5z" fill="#006BA5"/>
  <path d="M499.903,528.5l8.66,5v10l-8.66,5l-8.66-5v-10L499.903,528.5z" fill="#006AA4"/>
  <path d="M499.903,548.5l8.66,5v10l-8.66,5l-8.66-5v-10L499.903,548.5z" fill="#005F9D"/>
  <path d="M499.903,568.5l8.66,5v10l-8.66,5l-8.66-5v-10L499.903,568.5z" fill="#003A82"/>
  <path d="M499.903,588.5l8.66,5v10l-8.66,5l-8.66-5v-10L499.903,588.5z" fill="#3D7EB1"/>
  <path d="M499.903,608.5l8.66,5v10l-8.66,5l-8.66-5v-10L499.903,608.5z" fill="#001866"/>
  <path d="M499.903,628.5l8.66,5v10l-8.66,5l-8.66-5v-10L499.903,628.5z" fill="#002A76"/>
  <path d="M499.903,648.5l8.66,5v10l-8.66,5l-8.66-5v-10L499.903,648.5z" fill="#003982"/>
  <path d="M499.903,668.5l8.66,5v10l-8.66,5l-8.66-5v-10L499.903,668.5z" fill="#005596"/>
  <path d="M517.224,138.5l8.66,5v10l-8.66,5l-8.66-5v-10L517.224,138.5z" fill="#00025B"/>
  <path d="M517.224,158.5l8.66,5v10l-8.66,5l-8.66-5v-10L517.224,158.5z" fill="#0068A3"/>
  <path d="M517.224,178.5l8.66,5v10l-8.66,5l-8.66-5v-10L517.224,178.5z" fill="#85A7CB"/>
  <path d="M517.224,198.5l8.66,5v10l-8.66,5l-8.66-5v-10L517.224,198.5z" fill="#056FA8"/>
  <path d="M517.224,218.5l8.66,5v10l-8.66,5l-8.66-5v-10L517.224,218.5z" fill="#1972AA"/>
  <path d="M517.224,238.5l8.66,5v10l-8.66,5l-8.66-5v-10L517.224,238.5z" fill="#00216E"/>
  <path d="M517.224,258.5l8.66,5v10l-8.66,5l-8.66-5v-10L517.224,258.5z" fill="#00337C"/>
  <path d="M517.224,278.5l8.66,5v10l-8.66,5l-8.66-5v-10L517.224,278.5z" fill="#003F86"/>
  <path d="M517.224,298.5l8.66,5v10l-8.66,5l-8.66-5v-10L517.224,298.5z" fill="#00498D"/>
  <path d="M517.224,318.5l8.66,5v10l-8.66,5l-8.66-5v-10L517.224,318.5z" fill="#00206C"/>
  <path d="M517.224,338.5l8.66,5v10l-8.66,5l-8.66-5v-10L517.224,338.5z" fill="#003A82"/>
  <path d="M517.224,358.5l8.66,5v10l-8.66,5l-8.66-5v-10L517.224,358.5z" fill="#8DACCE"/>
  <path d="M517.224,378.5l8.66,5v10l-8.66,5l-8.66-5v-10L517.224,378.5z" fill="#00206C"/>
  <path d="M517.224,398.5l8.66,5v10l-8.66,5l-8.66-5v-10L517.224,398.5z" fill="#00498E"/>
  <path d="M517.224,418.5l8.66,5v10l-8.66,5l-8.66-5v-10L517.224,418.5z" fill="#80A4C9"/>
  <path d="M517.224,438.5l8.66,5v10l-8.66,5l-8.66-5v-10L517.224,438.5z" fill="#6F99C3"/>
  <path d="M517.224,458.5l8.66,5v10l-8.66,5l-8.66-5v-10L517.224,458.5z" fill="#006EA7"/>
  <path d="M517.224,478.5l8.66,5v10l-8.66,5l-8.66-5v-10L517.224,478.5z" fill="#00206C"/>
  <path d="M517.224,498.5l8.66,5v10l-8.66,5l-8.66-5v-10L517.224,498.5z" fill="#00075D"/>
  <path d="M517.224,518.5l8.66,5v10l-8.66,5l-8.66-5v-10L517.224,518.5z" fill="#002A76"/>
  <path d="M517.224,538.5l8.66,5v10l-8.66,5l-8.66-5v-10L517.224,538.5z" fill="#005D9C"/>
  <path d="M517.224,558.5l8.66,5v10l-8.66,5l-8.66-5v-10L517.224,558.5z" fill="#005999"/>
  <path d="M517.224,578.5l8.66,5v10l-8.66,5l-8.66-5v-10L517.224,578.5z" fill="#00065D"/>
  <path d="M517.224,598.5l8.66,5v10l-8.66,5l-8.66-5v-10L517.224,598.5z" fill="#002E79"/>
  <path d="M517.224,618.5l8.66,5v10l-8.66,5l-8.66-5v-10L517.224,618.5z" fill="#5E8FBC"/>
  <path d="M517.224,638.5l8.66,5v10l-8.66,5l-8.66-5v-10L517.224,638.5z" fill="#005093"/>
  <path d="M517.224,658.5l8.66,5v10l-8.66,5l-8.66-5v-10L517.224,658.5z" fill="#006CA6"/>
  <path d="M534.544,148.5l8.66,5v10l-8.66,5l-8.66-5v-10L534.544,148.5z" fill="#005495"/>
  <path d="M534.544,168.5l8.66,5v10l-8.66,5l-8.66-5v-10L534.544,168.5z" fill="#001F6B"/>
  <path d="M534.544,188.5l8.66,5v10l-8.66,5l-8.66-5v-10L534.544,188.5z" fill="#749CC4"/>
  <path d="M534.544,208.5l8.66,5v10l-8.66,5l-8.66-5v-10L534.544,208.5z" fill="#85A7CB"/>
  <path d="M534.544,228.5l8.66,5v10l-8.66,5l-8.66-5v-10L534.544,228.5z" fill="#004D90"/>
  <path d="M534.544,248.5l8.66,5v10l-8.66,5l-8.66-5v-10L534.544,248.5z" fill="#89AACD"/>
  <path d="M534.544,268.5l8.66,5v10l-8.66,5l-8.66-5v-10L534.544,268.5z" fill="#001564"/>
  <path d="M534.544,288.5l8.66,5v10l-8.66,5l-8.66-5v-10L534.544,288.5z" fill="#00075D"/>
  <path d="M534.544,308.5l8.66,5v10l-8.66,5l-8.66-5v-10L534.544,308.5z" fill="#001C69"/>
  <path d="M534.544,328.5l8.66,5v10l-8.66,5l-8.66-5v-10L534.544,328.5z" fill="#006BA5"/>
  <path d="M534.544,348.5l8.66,5v10l-8.66,5l-8.66-5v-10L534.544,348.5z" fill="#00337D"/>
  <path d="M534.544,368.5l8.66,5v10l-8.66,5l-8.66-5v-10L534.544,368.5z" fill="#95B2D2"/>
  <path d="M534.544,388.5l8.66,5v10l-8.66,5l-8.66-5v-10L534.544,388.5z" fill="#00055C"/>
  <path d="M534.544,408.5l8.66,5v10l-8.66,5l-8.66-5v-10L534.544,408.5z" fill="#001262"/>
  <path d="M534.544,428.5l8.66,5v10l-8.66,5l-8.66-5v-10L534.544,428.5z" fill="#002C77"/>
  <path d="M534.544,448.5l8.66,5v10l-8.66,5l-8.66-5v-10L534.544,448.5z" fill="#003881"/>
  <path d="M534.544,468.5l8.66,5v10l-8.66,5l-8.66-5v-10L534.544,468.5z" fill="#003881"/>
  <path d="M534.544,488.5l8.66,5v10l-8.66,5l-8.66-5v-10L534.544,488.5z" fill="#00206C"/>
  <path d="M534.544,508.5l8.66,5v10l-8.66,5l-8.66-5v-10L534.544,508.5z" fill="#A1BAD7"/>
  <path d="M534.544,528.5l8.66,5v10l-8.66,5l-8.66-5v-10L534.544,528.5z" fill="#005B9A"/>
  <path d="M534.544,548.5l8.66,5v10l-8.66,5l-8.66-5v-10L534.544,548.5z" fill="#00327C"/>
  <path d="M534.544,568.5l8.66,5v10l-8.66,5l-8.66-5v-10L534.544,568.5z" fill="#005092"/>
  <path d="M534.544,588.5l8.66,5v10l-8.66,5l-8.66-5v-10L534.544,588.5z" fill="#A5BDD8"/>
  <path d="M534.544,608.5l8.66,5v10l-8.66,5l-8.66-5v-10L534.544,608.5z" fill="#A3BBD7"/>
  <path d="M534.544,628.5l8.66,5v10l-8.66,5l-8.66-5v-10L534.544,628.5z" fill="#92B0D1"/>
  <path d="M534.544,648.5l8.66,5v10l-8.66,5l-8.66-5v-10L534.544,648.5z" fill="#004C8F"/>
  <path d="M551.864,158.5l8.661,5v10l-8.661,5l-8.66-5v-10L551.864,158.5z" fill="#005D9B"/>
  <path d="M551.864,178.5l8.661,5v10l-8.661,5l-8.66-5v-10L551.864,178.5z" fill="#00347E"/>
  <path d="M551.864,198.5l8.661,5v10l-8.661,5l-8.66-5v-10L551.864,198.5z" fill="#002873"/>
  <path d="M551.864,218.5l8.661,5v10l-8.661,5l-8.66-5v-10L551.864,218.5z" fill="#005092"/>
  <path d="M551.864,238.5l8.661,5v10l-8.661,5l-8.66-5v-10L551.864,238.5z" fill="#00448A"/>
  <path d="M551.864,258.5l8.661,5v10l-8.661,5l-8.66-5v-10L551.864,258.5z" fill="#5F90BD"/>
  <path d="M551.864,278.5l8.661,5v10l-8.661,5l-8.66-5v-10L551.864,278.5z" fill="#A6BED9"/>
  <path d="M551.864,298.5l8.661,5v10l-8.661,5l-8.66-5v-10L551.864,298.5z" fill="#005E9C"/>
  <path d="M551.864,318.5l8.661,5v10l-8.661,5l-8.66-5v-10L551.864,318.5z" fill="#00065C"/>
  <path d="M551.864,338.5l8.661,5v10l-8.661,5l-8.66-5v-10L551.864,338.5z" fill="#002C78"/>
  <path d="M551.864,358.5l8.661,5v10l-8.661,5l-8.66-5v-10L551.864,358.5z" fill="#001966"/>
  <path d="M551.864,378.5l8.661,5v10l-8.661,5l-8.66-5v-10L551.864,378.5z" fill="#002571"/>
  <path d="M551.864,398.5l8.661,5v10l-8.661,5l-8.66-5v-10L551.864,398.5z" fill="#97B3D2"/>
  <path d="M551.864,418.5l8.661,5v10l-8.661,5l-8.66-5v-10L551.864,418.5z" fill="#001B68"/>
  <path d="M551.864,438.5l8.661,5v10l-8.661,5l-8.66-5v-10L551.864,438.5z" fill="#6593BF"/>
  <path d="M551.864,458.5l8.661,5v10l-8.661,5l-8.66-5v-10L551.864,458.5z" fill="#81A5CA"/>
  <path d="M551.864,478.5l8.661,5v10l-8.661,5l-8.66-5v-10L551.864,478.5z" fill="#558AB9"/>
  <path d="M551.864,498.5l8.661,5v10l-8.661,5l-8.66-5v-10L551.864,498.5z" fill="#2976AC"/>
  <path d="M551.864,518.5l8.661,5v10l-8.661,5l-8.66-5v-10L551.864,518.5z" fill="#00095E"/>
  <path d="M551.864,538.5l8.661,5v10l-8.661,5l-8.66-5v-10L551.864,538.5z" fill="#002773"/>
  <path d="M551.864,558.5l8.661,5v10l-8.661,5l-8.66-5v-10L551.864,558.5z" fill="#00005A"/>
  <path d="M551.864,578.5l8.661,5v10l-8.661,5l-8.66-5v-10L551.864,578.5z" fill="#A0B9D6"/>
  <path d="M551.864,598.5l8.661,5v10l-8.661,5l-8.66-5v-10L551.864,598.5z" fill="#004288"/>
  <path d="M551.864,618.5l8.661,5v10l-8.661,5l-8.66-5v-10L551.864,618.5z" fill="#00005A"/>
  <path d="M551.864,638.5l8.661,5v10l-8.661,5l-8.66-5v-10L551.864,638.5z" fill="#387CB0"/>
  <path d="M569.186,168.5l8.66,5v10l-8.66,5l-8.66-5v-10L569.186,168.5z" fill="#004289"/>
  <path d="M569.186,188.5l8.66,5v10l-8.66,5l-8.66-5v-10L569.186,188.5z" fill="#96B2D2"/>
  <path d="M569.186,208.5l8.66,5v10l-8.66,5l-8.66-5v-10L569.186,208.5z" fill="#7BA0C7"/>
  <path d="M569.186,228.5l8.66,5v10l-8.66,5l-8.66-5v-10L569.186,228.5z" fill="#006AA4"/>
  <path d="M569.186,248.5l8.66,5v10l-8.66,5l-8.66-5v-10L569.186,248.5z" fill="#00045C"/>
  <path d="M569.186,268.5l8.66,5v10l-8.66,5l-8.66-5v-10L569.186,268.5z" fill="#005E9C"/>
  <path d="M569.186,288.5l8.66,5v10l-8.66,5l-8.66-5v-10L569.186,288.5z" fill="#005898"/>
  <path d="M569.186,308.5l8.66,5v10l-8.66,5l-8.66-5v-10L569.186,308.5z" fill="#93B0D1"/>
  <path d="M569.186,328.5l8.66,5v10l-8.66,5l-8.66-5v-10L569.186,328.5z" fill="#002470"/>
  <path d="M569.186,348.5l8.66,5v10l-8.66,5l-8.66-5v-10L569.186,348.5z" fill="#006CA6"/>
  <path d="M569.186,368.5l8.66,5v10l-8.66,5l-8.66-5v-10L569.186,368.5z" fill="#005F9D"/>
  <path d="M569.186,388.5l8.66,5v10l-8.66,5l-8.66-5v-10L569.186,388.5z" fill="#A2BAD7"/>
  <path d="M569.186,408.5l8.66,5v10l-8.66,5l-8.66-5v-10L569.186,408.5z" fill="#00357E"/>
  <path d="M569.186,428.5l8.66,5v10l-8.66,5l-8.66-5v-10L569.186,428.5z" fill="#94B1D1"/>
  <path d="M569.186,448.5l8.66,5v10l-8.66,5l-8.66-5v-10L569.186,448.5z" fill="#005F9D"/>
  <path d="M569.186,468.5l8.66,5v10l-8.66,5l-8.66-5v-10L569.186,468.5z" fill="#5E8FBC"/>
  <path d="M569.186,488.5l8.66,5v10l-8.66,5l-8.66-5v-10L569.186,488.5z" fill="#002A75"/>
  <path d="M569.186,508.5l8.66,5v10l-8.66,5l-8.66-5v-10L569.186,508.5z" fill="#005193"/>
  <path d="M569.186,528.5l8.66,5v10l-8.66,5l-8.66-5v-10L569.186,528.5z" fill="#00468B"/>
  <path d="M569.186,548.5l8.66,5v10l-8.66,5l-8.66-5v-10L569.186,548.5z" fill="#001664"/>
  <path d="M569.186,568.5l8.66,5v10l-8.66,5l-8.66-5v-10L569.186,568.5z" fill="#005294"/>
  <path d="M569.186,588.5l8.66,5v10l-8.66,5l-8.66-5v-10L569.186,588.5z" fill="#89AACD"/>
  <path d="M569.186,608.5l8.66,5v10l-8.66,5l-8.66-5v-10L569.186,608.5z" fill="#0063A0"/>
  <path d="M569.186,628.5l8.66,5v10l-8.66,5l-8.66-5v-10L569.186,628.5z" fill="#002470"/>
  <path d="M586.506,178.5l8.66,5v10l-8.66,5l-8.66-5v-10L586.506,178.5z" fill="#578BBA"/>
  <path d="M586.506,198.5l8.66,5v10l-8.66,5l-8.66-5v-10L586.506,198.5z" fill="#004C90"/>
  <path d="M586.506,218.5l8.66,5v10l-8.66,5l-8.66-5v-10L586.506,218.5z" fill="#00337D"/>
  <path d="M586.506,238.5l8.66,5v10l-8.66,5l-8.66-5v-10L586.506,238.5z" fill="#6B97C1"/>
  <path d="M586.506,258.5l8.66,5v10l-8.66,5l-8.66-5v-10L586.506,258.5z" fill="#000059"/>
  <path d="M586.506,278.5l8.66,5v10l-8.66,5l-8.66-5v-10L586.506,278.5z" fill="#001463"/>
  <path d="M586.506,298.5l8.66,5v10l-8.66,5l-8.66-5v-10L586.506,298.5z" fill="#357BAF"/>
  <path d="M586.506,318.5l8.66,5v10l-8.66,5l-8.66-5v-10L586.506,318.5z" fill="#002571"/>
  <path d="M586.506,338.5l8.66,5v10l-8.66,5l-8.66-5v-10L586.506,338.5z" fill="#003982"/>
  <path d="M586.506,358.5l8.66,5v10l-8.66,5l-8.66-5v-10L586.506,358.5z" fill="#93B0D1"/>
  <path d="M586.506,378.5l8.66,5v10l-8.66,5l-8.66-5v-10L586.506,378.5z" fill="#005C9B"/>
  <path d="M586.506,398.5l8.66,5v10l-8.66,5l-8.66-5v-10L586.506,398.5z" fill="#7CA1C8"/>
  <path d="M586.506,418.5l8.66,5v10l-8.66,5l-8.66-5v-10L586.506,418.5z" fill="#00206C"/>
  <path d="M586.506,438.5l8.66,5v10l-8.66,5l-8.66-5v-10L586.506,438.5z" fill="#00619E"/>
  <path d="M586.506,458.5l8.66,5v10l-8.66,5l-8.66-5v-10L586.506,458.5z" fill="#88A9CC"/>
  <path d="M586.506,478.5l8.66,5v10l-8.66,5l-8.66-5v-10L586.506,478.5z" fill="#8CABCE"/>
  <path d="M586.506,498.5l8.66,5v10l-8.66,5l-8.66-5v-10L586.506,498.5z" fill="#005D9B"/>
  <path d="M586.506,518.5l8.66,5v10l-8.66,5l-8.66-5v-10L586.506,518.5z" fill="#00055C"/>
  <path d="M586.506,538.5l8.66,5v10l-8.66,5l-8.66-5v-10L586.506,538.5z" fill="#4983B5"/>
  <path d="M586.506,558.5l8.66,5v10l-8.66,5l-8.66-5v-10L586.506,558.5z" fill="#0067A2"/>
  <path d="M586.506,578.5l8.66,5v10l-8.66,5l-8.66-5v-10L586.506,578.5z" fill="#001664"/>
  <path d="M586.506,598.5l8.66,5v10l-8.66,5l-8.66-5v-10L586.506,598.5z" fill="#3A7DB0"/>
  <path d="M586.506,618.5l8.66,5v10l-8.66,5l-8.66-5v-10L586.506,618.5z" fill="#005294"/>
  <path d="M603.826,188.5l8.66,5v10l-8.66,5l-8.66-5v-10L603.826,188.5z" fill="#8DACCE"/>
  <path d="M603.826,208.5l8.66,5v10l-8.66,5l-8.66-5v-10L603.826,208.5z" fill="#00055C"/>
  <path d="M603.826,228.5l8.66,5v10l-8.66,5l-8.66-5v-10L603.826,228.5z" fill="#005F9D"/>
  <path d="M603.826,248.5l8.66,5v10l-8.66,5l-8.66-5v-10L603.826,248.5z" fill="#2876AC"/>
  <path d="M603.826,268.5l8.66,5v10l-8.66,5l-8.66-5v-10L603.826,268.5z" fill="#7DA2C8"/>
  <path d="M603.826,288.5l8.66,5v10l-8.66,5l-8.66-5v-10L603.826,288.5z" fill="#4582B4"/>
  <path d="M603.826,308.5l8.66,5v10l-8.66,5l-8.66-5v-10L603.826,308.5z" fill="#6995C0"/>
  <path d="M603.826,328.5l8.66,5v10l-8.66,5l-8.66-5v-10L603.826,328.5z" fill="#002672"/>
  <path d="M603.826,348.5l8.66,5v10l-8.66,5l-8.66-5v-10L603.826,348.5z" fill="#005B9A"/>
  <path d="M603.826,368.5l8.66,5v10l-8.66,5l-8.66-5v-10L603.826,368.5z" fill="#8EADCF"/>
  <path d="M603.826,388.5l8.66,5v10l-8.66,5l-8.66-5v-10L603.826,388.5z" fill="#5C8EBB"/>
  <path d="M603.826,408.5l8.66,5v10l-8.66,5l-8.66-5v-10L603.826,408.5z" fill="#9CB7D5"/>
  <path d="M603.826,428.5l8.66,5v10l-8.66,5l-8.66-5v-10L603.826,428.5z" fill="#8BABCD"/>
  <path d="M603.826,448.5l8.66,5v10l-8.66,5l-8.66-5v-10L603.826,448.5z" fill="#005B9A"/>
  <path d="M603.826,468.5l8.66,5v10l-8.66,5l-8.66-5v-10L603.826,468.5z" fill="#001061"/>
  <path d="M603.826,488.5l8.66,5v10l-8.66,5l-8.66-5v-10L603.826,488.5z" fill="#003881"/>
  <path d="M603.826,508.5l8.66,5v10l-8.66,5l-8.66-5v-10L603.826,508.5z" fill="#5A8DBB"/>
  <path d="M603.826,528.5l8.66,5v10l-8.66,5l-8.66-5v-10L603.826,528.5z" fill="#002A75"/>
  <path d="M603.826,548.5l8.66,5v10l-8.66,5l-8.66-5v-10L603.826,548.5z" fill="#00045C"/>
  <path d="M603.826,568.5l8.66,5v10l-8.66,5l-8.66-5v-10L603.826,568.5z" fill="#001061"/>
  <path d="M603.826,588.5l8.66,5v10l-8.66,5l-8.66-5v-10L603.826,588.5z" fill="#001B68"/>
  <path d="M603.826,608.5l8.66,5v10l-8.66,5l-8.66-5v-10L603.826,608.5z" fill="#006BA5"/>
  <path d="M621.146,198.5l8.66,5v10l-8.66,5l-8.66-5v-10L621.146,198.5z" fill="#00025B"/>
  <path d="M621.146,218.5l8.66,5v10l-8.66,5l-8.66-5v-10L621.146,218.5z" fill="#7AA0C7"/>
  <path d="M621.146,238.5l8.66,5v10l-8.66,5l-8.66-5v-10L621.146,238.5z" fill="#4180B2"/>
  <path d="M621.146,258.5l8.66,5v10l-8.66,5l-8.66-5v-10L621.146,258.5z" fill="#005395"/>
  <path d="M621.146,278.5l8.66,5v10l-8.66,5l-8.66-5v-10L621.146,278.5z" fill="#2C77AD"/>
  <path d="M621.146,298.5l8.66,5v10l-8.66,5l-8.66-5v-10L621.146,298.5z" fill="#002873"/>
  <path d="M621.146,318.5l8.66,5v10l-8.66,5l-8.66-5v-10L621.146,318.5z" fill="#002E79"/>
  <path d="M621.146,338.5l8.66,5v10l-8.66,5l-8.66-5v-10L621.146,338.5z" fill="#000059"/>
  <path d="M621.146,358.5l8.66,5v10l-8.66,5l-8.66-5v-10L621.146,358.5z" fill="#004389"/>
  <path d="M621.146,378.5l8.66,5v10l-8.66,5l-8.66-5v-10L621.146,378.5z" fill="#005395"/>
  <path d="M621.146,398.5l8.66,5v10l-8.66,5l-8.66-5v-10L621.146,398.5z" fill="#98B4D3"/>
  <path d="M621.146,418.5l8.66,5v10l-8.66,5l-8.66-5v-10L621.146,418.5z" fill="#003F86"/>
  <path d="M621.146,438.5l8.66,5v10l-8.66,5l-8.66-5v-10L621.146,438.5z" fill="#00035B"/>
  <path d="M621.146,458.5l8.66,5v10l-8.66,5l-8.66-5v-10L621.146,458.5z" fill="#0F70A8"/>
  <path d="M621.146,478.5l8.66,5v10l-8.66,5l-8.66-5v-10L621.146,478.5z" fill="#85A7CB"/>
  <path d="M621.146,498.5l8.66,5v10l-8.66,5l-8.66-5v-10L621.146,498.5z" fill="#82A5CA"/>
  <path d="M621.146,518.5l8.66,5v10l-8.66,5l-8.66-5v-10L621.146,518.5z" fill="#A7BED9"/>
  <path d="M621.146,538.5l8.66,5v10l-8.66,5l-8.66-5v-10L621.146,538.5z" fill="#00226E"/>
  <path d="M621.146,558.5l8.66,5v10l-8.66,5l-8.66-5v-10L621.146,558.5z" fill="#89AACD"/>
  <path d="M621.146,578.5l8.66,5v10l-8.66,5l-8.66-5v-10L621.146,578.5z" fill="#006DA6"/>
  <path d="M621.146,598.5l8.66,5v10l-8.66,5l-8.66-5v-10L621.146,598.5z" fill="#001D6A"/>
  <path d="M638.467,208.5l8.661,5v10l-8.661,5l-8.66-5v-10L638.467,208.5z" fill="#00206C"/>
  <path d="M638.467,228.5l8.661,5v10l-8.661,5l-8.66-5v-10L638.467,228.5z" fill="#6F99C3"/>
  <path d="M638.467,248.5l8.661,5v10l-8.661,5l-8.66-5v-10L638.467,248.5z" fill="#003881"/>
  <path d="M638.467,268.5l8.661,5v10l-8.661,5l-8.66-5v-10L638.467,268.5z" fill="#94B1D1"/>
  <path d="M638.467,288.5l8.661,5v10l-8.661,5l-8.66-5v-10L638.467,288.5z" fill="#4F87B7"/>
  <path d="M638.467,308.5l8.661,5v10l-8.661,5l-8.66-5v-10L638.467,308.5z" fill="#00448A"/>
  <path d="M638.467,328.5l8.661,5v10l-8.661,5l-8.66-5v-10L638.467,328.5z" fill="#002773"/>
  <path d="M638.467,348.5l8.661,5v10l-8.661,5l-8.66-5v-10L638.467,348.5z" fill="#00347E"/>
  <path d="M638.467,368.5l8.661,5v10l-8.661,5l-8.66-5v-10L638.467,368.5z" fill="#002571"/>
  <path d="M638.467,388.5l8.661,5v10l-8.661,5l-8.66-5v-10L638.467,388.5z" fill="#4581B4"/>
  <path d="M638.467,408.5l8.661,5v10l-8.661,5l-8.66-5v-10L638.467,408.5z" fill="#00347E"/>
  <path d="M638.467,428.5l8.661,5v10l-8.661,5l-8.66-5v-10L638.467,428.5z" fill="#00488D"/>
  <path d="M638.467,448.5l8.661,5v10l-8.661,5l-8.66-5v-10L638.467,448.5z" fill="#001F6B"/>
  <path d="M638.467,468.5l8.661,5v10l-8.661,5l-8.66-5v-10L638.467,468.5z" fill="#6995C0"/>
  <path d="M638.467,488.5l8.661,5v10l-8.661,5l-8.66-5v-10L638.467,488.5z" fill="#00639F"/>
  <path d="M638.467,508.5l8.661,5v10l-8.661,5l-8.66-5v-10L638.467,508.5z" fill="#000E60"/>
  <path d="M638.467,528.5l8.661,5v10l-8.661,5l-8.66-5v-10L638.467,528.5z" fill="#001F6B"/>
  <path d="M638.467,548.5l8.661,5v10l-8.661,5l-8.66-5v-10L638.467,548.5z" fill="#002C77"/>
  <path d="M638.467,568.5l8.661,5v10l-8.661,5l-8.66-5v-10L638.467,568.5z" fill="#85A7CB"/>
  <path d="M638.467,588.5l8.661,5v10l-8.661,5l-8.66-5v-10L638.467,588.5z" fill="#0069A4"/>
  <path d="M655.788,218.5l8.66,5v10l-8.66,5l-8.661-5v-10L655.788,218.5z" fill="#6D98C2"/>
  <path d="M655.788,238.5l8.66,5v10l-8.66,5l-8.661-5v-10L655.788,238.5z" fill="#96B3D2"/>
  <path d="M655.788,258.5l8.66,5v10l-8.66,5l-8.661-5v-10L655.788,258.5z" fill="#4983B5"/>
  <path d="M655.788,278.5l8.66,5v10l-8.66,5l-8.661-5v-10L655.788,278.5z" fill="#005697"/>
  <path d="M655.788,298.5l8.66,5v10l-8.66,5l-8.661-5v-10L655.788,298.5z" fill="#5D8EBC"/>
  <path d="M655.788,318.5l8.66,5v10l-8.66,5l-8.661-5v-10L655.788,318.5z" fill="#002A75"/>
  <path d="M655.788,338.5l8.66,5v10l-8.66,5l-8.661-5v-10L655.788,338.5z" fill="#739BC4"/>
  <path d="M655.788,358.5l8.66,5v10l-8.66,5l-8.661-5v-10L655.788,358.5z" fill="#1E73AA"/>
  <path d="M655.788,378.5l8.66,5v10l-8.66,5l-8.661-5v-10L655.788,378.5z" fill="#006AA5"/>
  <path d="M655.788,398.5l8.66,5v10l-8.66,5l-8.661-5v-10L655.788,398.5z" fill="#588BBA"/>
  <path d="M655.788,418.5l8.66,5v10l-8.66,5l-8.661-5v-10L655.788,418.5z" fill="#82A5CA"/>
  <path d="M655.788,438.5l8.66,5v10l-8.66,5l-8.661-5v-10L655.788,438.5z" fill="#A6BED9"/>
  <path d="M655.788,458.5l8.66,5v10l-8.66,5l-8.661-5v-10L655.788,458.5z" fill="#387CB0"/>
  <path d="M655.788,478.5l8.66,5v10l-8.66,5l-8.661-5v-10L655.788,478.5z" fill="#3D7EB1"/>
  <path d="M655.788,498.5l8.66,5v10l-8.66,5l-8.661-5v-10L655.788,498.5z" fill="#8DACCE"/>
  <path d="M655.788,518.5l8.66,5v10l-8.66,5l-8.661-5v-10L655.788,518.5z" fill="#000A5E"/>
  <path d="M655.788,538.5l8.66,5v10l-8.66,5l-8.661-5v-10L655.788,538.5z" fill="#4B85B6"/>
  <path d="M655.788,558.5l8.66,5v10l-8.66,5l-8.661-5v-10L655.788,558.5z" fill="#8EADCF"/>
  <path d="M655.788,578.5l8.66,5v10l-8.66,5l-8.661-5v-10L655.788,578.5z" fill="#00478C"/>
  <path d="M673.108,228.5l8.66,5v10l-8.66,5l-8.66-5v-10L673.108,228.5z" fill="#00629F"/>
  <path d="M673.108,248.5l8.66,5v10l-8.66,5l-8.66-5v-10L673.108,248.5z" fill="#A5BDD8"/>
  <path d="M673.108,268.5l8.66,5v10l-8.66,5l-8.66-5v-10L673.108,268.5z" fill="#001C68"/>
  <path d="M673.108,288.5l8.66,5v10l-8.66,5l-8.66-5v-10L673.108,288.5z" fill="#005999"/>
  <path d="M673.108,308.5l8.66,5v10l-8.66,5l-8.66-5v-10L673.108,308.5z" fill="#001362"/>
  <path d="M673.108,328.5l8.66,5v10l-8.66,5l-8.66-5v-10L673.108,328.5z" fill="#001664"/>
  <path d="M673.108,348.5l8.66,5v10l-8.66,5l-8.66-5v-10L673.108,348.5z" fill="#89AACD"/>
  <path d="M673.108,368.5l8.66,5v10l-8.66,5l-8.66-5v-10L673.108,368.5z" fill="#2475AB"/>
  <path d="M673.108,388.5l8.66,5v10l-8.66,5l-8.66-5v-10L673.108,388.5z" fill="#91AFD0"/>
  <path d="M673.108,408.5l8.66,5v10l-8.66,5l-8.66-5v-10L673.108,408.5z" fill="#002470"/>
  <path d="M673.108,428.5l8.66,5v10l-8.66,5l-8.66-5v-10L673.108,428.5z" fill="#8BABCE"/>
  <path d="M673.108,448.5l8.66,5v10l-8.66,5l-8.66-5v-10L673.108,448.5z" fill="#001262"/>
  <path d="M673.108,468.5l8.66,5v10l-8.66,5l-8.66-5v-10L673.108,468.5z" fill="#003780"/>
  <path d="M673.108,488.5l8.66,5v10l-8.66,5l-8.66-5v-10L673.108,488.5z" fill="#002B76"/>
  <path d="M673.108,508.5l8.66,5v10l-8.66,5l-8.66-5v-10L673.108,508.5z" fill="#81A4C9"/>
  <path d="M673.108,528.5l8.66,5v10l-8.66,5l-8.66-5v-10L673.108,528.5z" fill="#6392BE"/>
  <path d="M673.108,548.5l8.66,5v10l-8.66,5l-8.66-5v-10L673.108,548.5z" fill="#004288"/>
  <path d="M673.108,568.5l8.66,5v10l-8.66,5l-8.66-5v-10L673.108,568.5z" fill="#759DC5"/>
</svg>